<svg width="100" height="100" viewBox="0 0 100 100" fill="none" xmlns="http://www.w3.org/2000/svg">
<g id="Icon" clip-path="url(#clip0_2870_572)">
<path id="Vector" d="M23.2422 27.9297C24.2749 28.8005 24.9213 30.0845 25.5615 31.25C25.6587 31.4187 25.7559 31.5874 25.856 31.7612C26.3902 32.7269 26.7246 33.4368 26.5625 34.5704C26.161 35.2696 25.927 35.6187 25.1709 35.8925C24.338 36.0431 23.9386 36.0013 23.1933 35.5713C22.5144 34.9019 22.097 34.0507 21.6797 33.2032C20.6719 33.4977 20.0604 34.1284 19.3237 34.8389C19.195 34.9615 19.0663 35.0841 18.9336 35.2105C18.6706 35.4619 18.4083 35.7141 18.1468 35.9671C17.8116 36.2912 17.4742 36.6127 17.1363 36.9339C15.7007 38.3157 14.4717 39.8111 13.2812 41.4063C13.1598 41.5654 13.1598 41.5654 13.0358 41.7278C9.40481 46.49 7.01411 51.9257 5.41989 57.6661C5.35129 57.9114 5.35129 57.9114 5.28132 58.1617C4.86034 59.7317 4.59922 61.278 4.29684 62.8907C11.9023 62.8907 19.5078 62.8907 27.3437 62.8907C27.4082 62.4395 27.4726 61.9883 27.539 61.5235C27.729 60.9765 27.729 60.9765 27.9419 60.4859C28.2314 59.8535 28.2314 59.8535 28.3203 59.1797C28.1245 59.0708 28.1245 59.0708 27.9247 58.9597C25.4279 57.5696 22.9327 56.1791 20.482 54.7087C20.114 54.4904 19.743 54.2781 19.371 54.0665C19.1395 53.9318 18.9081 53.797 18.6767 53.6622C18.4778 53.5484 18.2789 53.4346 18.074 53.3173C17.4812 52.854 17.2605 52.456 16.9922 51.7579C16.9922 50.923 17.1078 50.5077 17.5781 49.8169C18.3735 49.2701 18.9796 49.2868 19.9218 49.4141C20.4907 49.6157 20.983 49.9052 21.4965 50.2198C21.6434 50.3055 21.7902 50.3911 21.9414 50.4794C22.2649 50.6687 22.5874 50.8596 22.909 51.052C23.4786 51.3918 24.0515 51.7252 24.6254 52.0577C25.6014 52.6237 26.5756 53.1929 27.5488 53.7639C28.5211 54.3338 29.495 54.9012 30.4687 55.4688C31.2992 54.6635 32.0578 53.8061 32.8125 52.9297C32.5429 52.2049 32.2055 51.5677 31.8115 50.9034C31.3359 50.0382 31.0692 49.442 31.25 48.4375C31.495 47.8862 31.696 47.5659 32.1777 47.2046C32.9925 46.9557 33.7033 46.9341 34.4759 47.3087C35.3336 47.9234 35.7553 48.8331 36.2793 49.7315C36.3943 49.9191 36.5094 50.1066 36.6279 50.2999C37.2763 51.3983 37.8158 52.4042 37.6953 53.711C37.359 54.5318 36.7665 55.0662 36.1328 55.6763C35.2839 56.4914 35.2839 56.4914 34.5703 57.4219C34.5703 57.5508 34.5703 57.6797 34.5703 57.8125C34.719 57.8982 34.8677 57.9839 35.0209 58.0722C35.5761 58.3921 36.1312 58.712 36.6862 59.0321C36.9259 59.1702 37.1655 59.3083 37.4051 59.4463C37.7509 59.6455 38.0965 59.8448 38.4422 60.0441C38.7536 60.2236 38.7536 60.2236 39.0714 60.4068C39.4477 60.6256 39.8198 60.8518 40.1866 61.0863C40.3312 61.1661 40.4759 61.2459 40.625 61.3282C41.2486 61.1463 41.6398 60.746 42.102 60.3028C44.6627 58.0219 47.8298 57.2711 51.1774 57.3979C53.7085 57.5558 56.5824 58.9072 58.3946 60.6812C61.0842 63.761 61.9162 66.8954 61.7621 70.9268C61.5498 73.6546 59.9648 76.2629 58.0078 78.125C55.3735 80.2894 52.2314 81.3211 48.834 81.0952C45.9693 80.8031 43.1503 79.4864 41.2109 77.3438C39.2507 74.9162 38.2466 72.4244 38.2446 69.2994C38.2422 69.1034 38.2398 68.9074 38.2373 68.7054C38.235 67.4861 38.3619 66.4142 38.6718 65.2344C37.9319 64.798 37.1911 64.363 36.4502 63.9283C36.243 63.806 36.0357 63.6838 35.8223 63.5579C34.5803 62.8302 33.3291 62.1463 32.0312 61.5235C31.9758 61.7094 31.9758 61.7094 31.9193 61.899C31.8219 62.225 31.7235 62.5506 31.6246 62.8762C31.4987 63.2976 31.3776 63.7204 31.2599 64.1442C31.1962 64.367 31.1325 64.5898 31.0669 64.8194C31.0087 65.0283 30.9505 65.2373 30.8906 65.4526C30.6345 66.089 30.416 66.3688 29.8828 66.7969C29.3379 66.8958 29.3379 66.8958 28.698 66.8974C28.3337 66.9012 28.3337 66.9012 27.962 66.905C27.6934 66.9038 27.4247 66.9025 27.1561 66.9011C26.8728 66.9025 26.5894 66.9042 26.3061 66.9062C25.537 66.9106 24.7679 66.91 23.9987 66.9083C23.3566 66.9073 22.7144 66.9087 22.0723 66.9101C20.5573 66.9135 19.0424 66.9128 17.5274 66.9095C15.9646 66.9062 14.4019 66.9093 12.8391 66.9156C11.4972 66.9208 10.1553 66.9222 8.81337 66.9206C8.01196 66.9196 7.21062 66.92 6.40922 66.924C5.65555 66.9276 4.90202 66.9265 4.14836 66.9217C3.87193 66.9207 3.59548 66.9214 3.31906 66.9238C0.969111 66.9432 0.969112 66.9432 0.323925 66.3371C-1.07045 64.113 0.494366 59.6295 1.03222 57.2762C1.93664 53.5143 3.25071 49.8621 5.08295 46.4508C5.27654 46.0879 5.46354 45.7221 5.64953 45.3553C7.01395 42.6903 8.6972 40.2428 10.5468 37.8907C10.6931 37.7041 10.8394 37.5175 10.9901 37.3253C13.4851 34.2645 16.3346 31.4236 19.5312 29.1016C19.8365 28.8658 20.1417 28.6298 20.4467 28.3936C21.3278 27.7177 22.1747 27.5714 23.2422 27.9297ZM43.9689 64.2907C43.6637 64.7229 43.4093 65.1565 43.164 65.625C43.0837 65.7665 43.0034 65.908 42.9207 66.0538C42.1161 67.6963 42.0988 69.7465 42.5323 71.505C43.3484 73.6456 44.9295 75.4572 47.0237 76.4199C49.0549 77.1713 50.9036 77.2027 52.938 76.4428C54.6686 75.6312 55.9485 74.5465 56.8359 72.8516C56.9162 72.7101 56.9965 72.5686 57.0793 72.4228C57.8838 70.7803 57.9012 68.7302 57.4676 66.9716C56.6515 64.8311 55.0704 63.0195 52.9762 62.0568C49.7153 60.8505 46.2858 61.6173 43.9689 64.2907Z" fill="#222020"/>
<path id="Vector_2" d="M70.166 22.9736C70.2906 23.023 70.4151 23.0723 70.5434 23.1231C71.4205 23.5063 71.8469 23.9486 72.2656 24.8047C72.5179 26.1564 71.8366 27.0917 71.167 28.2104C70.9955 28.5051 70.9955 28.5051 70.8205 28.8057C70.4584 29.4267 70.0925 30.0453 69.7266 30.6641C69.5014 31.0499 69.2765 31.4359 69.0521 31.8222C68.6009 32.5983 68.1484 33.3737 67.6948 34.1484C66.9716 35.3849 66.2549 36.6251 65.5395 37.8662C65.4181 38.0769 65.2967 38.2875 65.1716 38.5045C64.8018 39.1462 64.4321 39.7879 64.0625 40.4297C63.8158 40.8579 63.5691 41.2862 63.3224 41.7145C63.2005 41.9261 63.0786 42.1377 62.953 42.3558C62.5893 42.9864 62.2246 43.6166 61.8599 44.2467C61.36 45.1111 60.866 45.9786 60.3752 46.8483C60.1313 47.2763 59.8874 47.7043 59.6435 48.1323C59.5326 48.3314 59.4217 48.5304 59.3074 48.7355C59.2023 48.9189 59.0972 49.1023 58.9889 49.2912C58.8981 49.4522 58.8074 49.6132 58.7138 49.7791C58.3363 50.2773 57.9815 50.5082 57.4219 50.7812C56.4106 50.8752 55.6158 50.6786 54.6509 50.3906C51.4378 49.55 47.7863 49.6632 44.6129 50.6103C43.7056 50.8426 42.9517 50.9604 42.0884 50.5463C41.5328 50.1457 41.3009 49.8018 40.9683 49.2058C40.8544 49.0047 40.7405 48.8037 40.6231 48.5966C40.5029 48.3789 40.3826 48.1613 40.2588 47.937C40.13 47.7081 40.0009 47.4793 39.8716 47.2507C39.6032 46.7758 39.336 46.3003 39.0695 45.8243C38.4592 44.7362 37.8323 43.6577 37.207 42.5781C36.9628 42.155 36.7187 41.7318 36.4746 41.3086C36.3537 41.0991 36.2329 40.8896 36.1084 40.6738C35.0098 38.7695 35.0098 38.7695 34.6434 38.1344C34.3999 37.7124 34.1563 37.2903 33.9128 36.8682C33.2927 35.7933 32.6726 34.7184 32.0526 33.6433C31.8649 33.3181 31.8649 33.3181 31.6735 32.9863C31.4262 32.5575 31.1794 32.1284 30.9329 31.6991C30.3716 30.7226 29.8056 29.7502 29.2213 28.7872C29.0696 28.5344 29.0696 28.5344 28.9148 28.2764C28.7287 27.9671 28.5403 27.6591 28.3491 27.3529C27.8254 26.4772 27.5673 25.8524 27.7344 24.8047C28.2743 23.6346 29.0224 23.3018 30.1636 22.8638C30.3276 22.7983 30.4916 22.7329 30.6606 22.6655C31.1806 22.4614 31.7029 22.2647 32.2266 22.0703C32.3882 22.0095 32.5499 21.9488 32.7165 21.8861C44.8429 17.3955 58.2868 18.0677 70.166 22.9736ZM32.8125 26.3672C33.0891 27.1065 33.4285 27.7729 33.8219 28.4569C33.9465 28.6743 34.0711 28.8917 34.1996 29.1158C34.3353 29.3511 34.4711 29.5864 34.6069 29.8218C34.748 30.0672 34.889 30.3128 35.0299 30.5583C35.3921 31.1887 35.755 31.8187 36.1182 32.4485C36.4402 33.0069 36.7618 33.5655 37.0834 34.124C37.685 35.1679 38.2876 36.2112 38.8904 37.2544C39.2687 37.9095 39.6463 38.5649 40.0238 39.2204C41.3848 41.5834 42.7516 43.9424 44.1406 46.2891C44.3559 46.2468 44.3559 46.2468 44.5755 46.2036C48.2475 45.5958 52.1978 45.6218 55.8594 46.2891C55.9695 46.0982 55.9695 46.0982 56.0818 45.9035C57.2322 43.9095 58.3825 41.9155 59.5329 39.9216C59.6521 39.7149 59.7714 39.5082 59.8942 39.2953C60.1356 38.8769 60.3771 38.4584 60.6185 38.0401C61.2347 36.9724 61.8503 35.9044 62.4649 34.8358C62.588 34.6219 62.7111 34.4081 62.838 34.1877C63.0823 33.7632 63.3265 33.3386 63.5704 32.9139C64.1715 31.87 64.78 30.8317 65.4037 29.8012C65.5232 29.603 65.6426 29.4048 65.7657 29.2005C65.9924 28.8255 66.2207 28.4515 66.451 28.0786C66.601 27.83 66.601 27.83 66.7541 27.5764C66.8429 27.4318 66.9316 27.2872 67.0231 27.1382C67.2502 26.7288 67.2502 26.7288 66.9922 26.1719C66.6156 25.963 66.6156 25.963 66.14 25.814C65.9573 25.7514 65.7745 25.6887 65.5863 25.6242C65.2852 25.5267 65.2852 25.5267 64.978 25.4272C64.77 25.3592 64.562 25.2912 64.3476 25.2211C54.5041 22.1078 42.2963 21.7115 32.8125 26.3672Z" fill="#222020"/>
<path id="Vector_3" d="M78.9063 27.9297C79.525 28.3005 79.525 28.3005 80.1147 28.7842C80.2234 28.8725 80.332 28.9608 80.444 29.0517C80.6702 29.2366 80.8952 29.4228 81.1191 29.6106C81.4185 29.8604 81.7235 30.1035 82.029 30.3459C84.9592 32.7213 87.7831 35.4531 89.9872 38.5231C90.2589 38.9013 90.5365 39.2747 90.8142 39.6485C92.1344 41.4485 93.2742 43.3103 94.3119 45.2859C94.5152 45.6727 94.7228 46.0568 94.931 46.4409C97.6783 51.6096 101.155 59.7857 100 65.8203C99.6795 66.3332 99.5424 66.5186 99.0234 66.7969C98.1105 66.9484 97.1974 66.9325 96.2746 66.9264C95.9912 66.928 95.7079 66.9301 95.4245 66.9325C94.6562 66.9378 93.8879 66.9369 93.1196 66.9345C92.4779 66.9331 91.8362 66.9348 91.1945 66.9364C89.6808 66.9403 88.1671 66.9392 86.6533 66.9349C85.0919 66.9306 83.5307 66.934 81.9693 66.9414C80.6283 66.9475 79.2872 66.949 77.9461 66.9469C77.1453 66.9456 76.3447 66.946 75.5439 66.9506C74.791 66.9548 74.0383 66.9532 73.2854 66.9473C73.0093 66.9461 72.7332 66.9468 72.4571 66.9497C70.383 66.9698 70.383 66.9698 69.7403 66.5518C69.1197 65.845 68.9015 64.9811 68.689 64.0869C67.7866 60.7285 66.0128 57.6818 63.4644 55.3101C62.3561 54.2318 62.3561 54.2318 62.1948 53.418C62.2277 52.6862 62.4471 52.2026 62.8067 51.5694C62.9132 51.3802 63.0198 51.191 63.1296 50.9961C63.2441 50.7963 63.3586 50.5965 63.4766 50.3906C63.5894 50.1911 63.7023 49.9915 63.8186 49.7859C64.1869 49.136 64.5578 48.4875 64.9292 47.8394C65.0666 47.5992 65.2041 47.359 65.3415 47.1189C66.6117 44.9002 67.8891 42.6858 69.1682 40.4722C69.6558 39.6282 70.1429 38.7839 70.6299 37.9395C70.8726 37.5188 71.1155 37.0981 71.3585 36.6776C71.9265 35.6942 72.4933 34.7103 73.0552 33.7235C73.2535 33.3754 73.4523 33.0275 73.6511 32.6798C73.8999 32.2444 74.1479 31.8085 74.395 31.3721C76.7139 27.3217 76.7139 27.3217 78.9063 27.9297ZM78.3203 33.0078C78.0548 33.3668 78.0548 33.3668 77.7939 33.841C77.6349 34.1159 77.6349 34.1159 77.4727 34.3964C77.3576 34.5988 77.2426 34.8012 77.124 35.0098C77.0034 35.2193 76.8828 35.4287 76.7586 35.6445C76.4328 36.2112 76.1084 36.7786 75.7848 37.3465C75.5239 37.8042 75.2624 38.2616 75.0009 38.719C74.5424 39.5209 74.0842 40.323 73.6267 41.1255C72.7818 42.607 71.9293 44.0838 71.0693 45.5567C70.9603 45.7442 70.8513 45.9317 70.739 46.1249C70.1467 47.1416 69.5457 48.1522 68.9346 49.1577C68.7413 49.4794 68.7413 49.4794 68.5441 49.8076C68.2956 50.2207 68.0446 50.6324 67.7909 51.0424C67.6804 51.2271 67.5699 51.4119 67.4561 51.6022C67.3569 51.7646 67.2577 51.9271 67.1555 52.0945C66.9412 52.5339 66.9412 52.5339 67.1355 52.9597C67.4576 53.4294 67.8163 53.8535 68.1885 54.2847C70.3135 56.8559 71.7022 59.7104 72.6563 62.8906C80.2617 62.8906 87.8672 62.8906 95.7031 62.8906C95.5725 61.2237 95.5725 61.2237 95.2736 59.6306C95.2044 59.3509 95.2044 59.3509 95.1337 59.0655C95.084 58.8735 95.0342 58.6816 94.9829 58.4839C94.9043 58.1775 94.9043 58.1775 94.8241 57.865C93.0231 50.9769 89.8186 44.6586 85.1563 39.2578C85.0256 39.1055 84.8949 38.9532 84.7603 38.7963C82.0029 35.6019 82.0029 35.6019 78.7109 33.0078C78.582 33.0078 78.4531 33.0078 78.3203 33.0078Z" fill="#222020"/>
<path id="Vector_4" d="M29.6875 39.4532C30.2363 39.8035 30.5682 40.0428 30.8594 40.625C30.9415 41.2225 30.9541 41.7865 30.8594 42.3828C30.4333 42.9211 30.1032 43.2492 29.4922 43.5547C28.7516 43.6389 28.3632 43.5753 27.6855 43.2495C27.0112 42.6518 26.8636 42.2982 26.7578 41.4063C26.9693 40.7014 27.1904 40.2152 27.6733 39.6607C28.3421 39.3534 28.9738 39.3215 29.6875 39.4532Z" fill="#222020"/>
</g>
<defs>
<clipPath id="clip0_2870_572">
<rect width="100" height="100" fill="white"/>
</clipPath>
</defs>
</svg>
