<svg width="100" height="100" viewBox="0 0 100 100" fill="none" xmlns="http://www.w3.org/2000/svg">
<g id="Icon" clip-path="url(#clip0_2870_594)">
<path id="Vector" d="M86.5234 3.90625C87.2065 4.4624 87.8459 5.04944 88.4765 5.66406C88.6291 5.80681 88.7816 5.94957 88.9388 6.09665C91.6751 8.71773 93.4129 12.175 94.3359 15.8203C94.3837 16.0046 94.4315 16.1889 94.4808 16.3788C95.6299 21.825 94.2462 27.362 91.4062 32.0312C90.92 32.7164 90.396 33.3519 89.8437 33.9844C89.6923 34.1777 89.6923 34.1777 89.5378 34.375C88.6487 35.4802 87.5627 36.3243 86.4448 37.1849C86.3387 37.2668 86.2326 37.3486 86.1233 37.4329C85.7421 37.6953 85.7421 37.6953 85.3374 37.877C84.8692 38.0974 84.5419 38.3 84.1796 38.6719C83.9576 39.4461 83.9935 40.1972 84.0186 40.9973C84.0188 41.2234 84.019 41.4494 84.0192 41.6824C84.0206 42.4044 84.0322 43.1257 84.0453 43.8477C84.0554 44.5695 84.0632 45.2911 84.0652 46.0129C84.0667 46.4619 84.073 46.9108 84.0847 47.3596C84.0936 48.8786 84.0936 48.8786 83.5153 49.6448C82.7084 50.2095 82.2457 50.2949 81.2499 50.1953C80.5703 49.8041 80.1353 49.3905 79.8828 48.6328C79.866 48.36 79.8598 48.0865 79.8606 47.8133C79.8606 47.6491 79.8606 47.4849 79.8606 47.3157C79.8616 47.1393 79.8626 46.9629 79.8637 46.7812C79.8641 46.5093 79.8641 46.5093 79.8645 46.2319C79.8656 45.6528 79.8681 45.0737 79.8705 44.4946C79.8715 44.1021 79.8724 43.7096 79.8732 43.317C79.8754 42.3546 79.8787 41.3921 79.8828 40.4297C79.7072 40.4703 79.5316 40.5109 79.3507 40.5527C77.9852 40.8587 76.6674 41.1125 75.2685 41.1621C75.1123 41.169 74.9561 41.1759 74.7951 41.183C71.6572 41.2974 71.6572 41.2974 70.7031 40.8203C70.7038 41.0398 70.7045 41.2592 70.7052 41.4854C70.7226 46.829 70.7354 52.1726 70.7435 57.5163C70.7476 60.1004 70.7531 62.6846 70.762 65.2688C70.7698 67.5215 70.7748 69.7742 70.7766 72.0269C70.7776 73.2194 70.78 74.4118 70.7857 75.6043C70.791 76.7276 70.7926 77.8508 70.7914 78.9741C70.7916 79.3855 70.7932 79.7969 70.7962 80.2082C70.8165 83.1344 70.6814 85.4733 68.5546 87.6953C66.7851 89.3159 64.8762 89.6803 62.5375 89.6719C62.3666 89.6721 62.1957 89.6722 62.0196 89.6724C61.4484 89.6727 60.8771 89.6717 60.3058 89.6706C59.8958 89.6705 59.4857 89.6706 59.0757 89.6707C57.9633 89.6708 56.8508 89.6696 55.7384 89.6682C54.5755 89.667 53.4127 89.6669 52.2498 89.6667C50.0481 89.6661 47.8464 89.6645 45.6447 89.6625C43.1381 89.6603 40.6314 89.6592 38.1247 89.6583C32.9685 89.6562 27.8124 89.6528 22.6562 89.6484C22.6721 90.2753 22.6941 90.9017 22.7172 91.5283C22.7216 91.7048 22.726 91.8813 22.7306 92.0631C22.7806 93.3098 23.0051 94.1501 23.767 95.166C24.9377 96.0519 26.4926 95.9544 27.8938 95.948C28.1022 95.9486 28.3106 95.9493 28.5254 95.9499C29.2213 95.9514 29.9173 95.9502 30.6133 95.949C31.1132 95.9495 31.6131 95.9502 32.113 95.951C33.3285 95.9526 34.544 95.9524 35.7595 95.9513C36.7477 95.9504 37.7358 95.9503 38.724 95.9507C38.8648 95.9508 39.0056 95.9508 39.1507 95.9509C39.4368 95.951 39.7229 95.9511 40.009 95.9513C42.6896 95.9524 45.3702 95.9511 48.0508 95.949C50.3493 95.9473 52.6477 95.9476 54.9462 95.9494C57.6174 95.9515 60.2887 95.9523 62.9599 95.9511C63.2449 95.951 63.53 95.9508 63.815 95.9507C63.9552 95.9506 64.0954 95.9506 64.2399 95.9505C65.2265 95.9502 66.2131 95.9508 67.1997 95.9517C68.5283 95.9529 69.857 95.952 71.1856 95.9498C71.6731 95.9492 72.1607 95.9494 72.6482 95.9503C73.3138 95.9513 73.9795 95.95 74.6451 95.948C74.9342 95.9493 74.9342 95.9493 75.2291 95.9507C76.5608 95.9431 77.8158 95.9246 78.8818 95.0439C79.5633 94.2021 79.7362 93.6691 79.7366 92.5814C79.7376 92.3421 79.7387 92.1027 79.7398 91.8562C79.739 91.5915 79.7382 91.3269 79.7373 91.0623C79.7379 90.7831 79.7386 90.504 79.7395 90.2248C79.741 89.6239 79.7415 89.0231 79.741 88.4222C79.7405 87.4718 79.7433 86.5213 79.7467 85.5709C79.7559 82.8683 79.7606 80.1657 79.7618 77.4631C79.7626 75.9702 79.7661 74.4773 79.7726 72.9845C79.7765 72.0401 79.777 71.0957 79.7749 70.1512C79.7744 69.563 79.7771 68.9749 79.7808 68.3867C79.7818 68.1145 79.7815 67.8422 79.7798 67.57C79.7648 65.0054 79.7648 65.0054 80.664 64.0625C81.3406 63.6859 82.0122 63.628 82.7636 63.7817C83.3192 64.1367 83.6147 64.492 83.9843 65.0391C84.0826 65.6108 84.0826 65.6108 84.0835 66.2543C84.0868 66.6214 84.0868 66.6214 84.0902 66.9959C84.0887 67.2657 84.0871 67.5354 84.0854 67.8052C84.0865 68.0905 84.0879 68.3758 84.0896 68.6611C84.0931 69.4351 84.0917 70.2091 84.0893 70.9832C84.0873 71.795 84.0891 72.6067 84.0903 73.4185C84.0918 74.7829 84.0899 76.1473 84.0862 77.5117C84.0819 79.085 84.0833 80.6582 84.0876 82.2315C84.0911 83.5849 84.0916 84.9383 84.0896 86.2917C84.0884 87.0988 84.0882 87.9059 84.0908 88.713C84.0931 89.4732 84.0915 90.2333 84.087 90.9936C84.0859 91.2711 84.0862 91.5486 84.088 91.8261C84.1011 94.1481 83.7424 96.0365 82.2234 97.8508C80.7334 99.3555 78.9917 100.061 76.8968 100.079C76.5875 100.078 76.5875 100.078 76.2721 100.076C76.0496 100.077 75.8271 100.078 75.5979 100.079C74.8542 100.082 74.1106 100.08 73.367 100.079C72.833 100.08 72.2991 100.081 71.7652 100.083C70.4665 100.086 69.1679 100.087 67.8692 100.085C66.8133 100.085 65.7574 100.085 64.7014 100.086C64.551 100.086 64.4005 100.086 64.2455 100.086C63.9398 100.087 63.6341 100.087 63.3284 100.087C60.4635 100.09 57.5987 100.089 54.7338 100.087C52.1151 100.085 49.4965 100.087 46.8778 100.092C44.1865 100.097 41.4951 100.099 38.8038 100.097C37.2938 100.097 35.7838 100.097 34.2739 100.101C32.9884 100.103 31.7029 100.104 30.4174 100.1C29.7621 100.098 29.1069 100.098 28.4515 100.101C27.7398 100.104 27.0282 100.101 26.3165 100.098C26.1112 100.1 25.9059 100.102 25.6944 100.104C23.7031 100.084 21.9537 99.4448 20.5078 98.0469C18.8527 96.1259 18.4563 94.2607 18.518 91.7725C18.5206 91.567 18.5233 91.3616 18.526 91.1499C18.5328 90.6493 18.5424 90.1489 18.5546 89.6484C18.3598 89.6515 18.165 89.6546 17.9643 89.6577C17.2305 89.6685 16.4966 89.6751 15.7627 89.6806C15.4472 89.6835 15.1316 89.6875 14.8161 89.6926C12.0422 89.7365 9.59776 89.6337 7.42181 87.6953C5.45077 85.6902 5.15668 83.4419 5.17417 80.7424C5.17327 80.4375 5.17202 80.1327 5.17047 79.8278C5.16723 78.995 5.16882 78.1623 5.17125 77.3295C5.17302 76.4295 5.17028 75.5295 5.16814 74.6295C5.16467 72.8683 5.16541 71.1071 5.16768 69.3459C5.16945 67.9142 5.16968 66.4825 5.16884 65.0508C5.16872 64.8468 5.1686 64.6428 5.16847 64.4326C5.16822 64.0182 5.16797 63.6037 5.16771 63.1893C5.16548 59.3057 5.16804 55.4221 5.17224 51.5385C5.17573 48.2083 5.17513 44.878 5.17152 41.5478C5.16734 37.6778 5.1657 33.8079 5.1681 29.9379C5.16835 29.525 5.16859 29.1121 5.16884 28.6992C5.16896 28.4961 5.16907 28.293 5.1692 28.0837C5.16987 26.6542 5.16874 25.2246 5.1669 23.7951C5.1647 22.0523 5.16531 20.3095 5.16946 18.5667C5.17151 17.678 5.17232 16.7893 5.16973 15.9006C5.16739 15.0862 5.1687 14.2718 5.17284 13.4574C5.17371 13.1637 5.17328 12.8699 5.17137 12.5762C5.15537 9.89964 5.6767 7.89118 7.53702 5.92117C8.8504 4.68196 10.6265 4.07494 12.4204 4.07884C12.5956 4.07874 12.7708 4.07863 12.9514 4.07852C13.1421 4.0794 13.3328 4.08027 13.5293 4.08117C13.7334 4.08131 13.9374 4.08145 14.1476 4.08159C14.8323 4.08225 15.517 4.08427 16.2017 4.08625C16.6923 4.08694 17.1828 4.08752 17.6734 4.088C18.4577 4.08882 19.2419 4.08971 20.0262 4.09108C21.972 4.09448 23.9177 4.09494 25.8634 4.09362C26.0747 4.09349 26.0747 4.09349 26.2903 4.09335C27.0106 4.09289 27.731 4.0924 28.4513 4.09189C29.9353 4.09082 31.4193 4.08983 32.9033 4.08921C33.0522 4.08915 33.2011 4.08908 33.3545 4.08902C35.7644 4.08814 38.1743 4.09219 40.5843 4.0979C43.0613 4.10364 45.5383 4.10341 48.0153 4.09786C49.5415 4.09464 51.0674 4.09611 52.5936 4.10369C53.7653 4.10902 54.9368 4.1061 56.1085 4.10019C56.5874 4.09905 57.0664 4.10057 57.5453 4.10499C60.2484 4.1283 62.1129 4.08143 64.2578 2.34375C71.1333 -1.67407 80.2235 -0.736599 86.5234 3.90625ZM62.7697 8.49476C59.5137 11.7436 57.6183 15.821 57.5561 20.459C57.5789 25.1116 59.4309 29.1518 62.6953 32.4219C62.8289 32.5578 62.9626 32.6938 63.1004 32.8339C66.0895 35.6849 70.3948 37.2095 74.5002 37.1384C79.374 36.8556 83.5778 34.7633 86.8478 31.1674C89.8885 27.5856 90.8777 23.142 90.6249 18.5547C90.1527 14.7801 88.4153 11.4667 85.7421 8.78906C85.5938 8.6385 85.4455 8.48794 85.2928 8.33282C82.9519 6.08773 79.7821 4.5328 76.5624 4.10156C76.3749 4.07538 76.1873 4.04919 75.994 4.02221C71.1571 3.49477 66.276 5.12492 62.7697 8.49476ZM9.87543 9.48486C9.37911 10.2591 9.35016 10.8488 9.34872 11.7499C9.34785 12.0033 9.34698 12.2567 9.34608 12.5178C9.3461 12.8007 9.34614 13.0836 9.3462 13.3664C9.34555 13.6657 9.34482 13.9649 9.34402 14.2641C9.34206 15.0885 9.34133 15.913 9.34081 16.7374C9.34005 17.6257 9.33819 18.514 9.33648 19.4024C9.33262 21.5486 9.33065 23.6949 9.32891 25.8412C9.32806 26.8514 9.32701 27.8616 9.32598 28.8718C9.32266 32.2291 9.31984 35.5864 9.31842 38.9438C9.31805 39.8152 9.31767 40.6866 9.31729 41.5581C9.31719 41.7747 9.3171 41.9913 9.317 42.2144C9.31538 45.7246 9.31043 49.2347 9.30409 52.7449C9.29764 56.3471 9.29411 59.9492 9.29349 63.5514C9.29307 65.5745 9.29135 67.5977 9.28637 69.6208C9.28213 71.3435 9.28055 73.0662 9.28246 74.7889C9.28335 75.668 9.28296 76.5471 9.27918 77.4262C9.27575 78.231 9.27592 79.0358 9.27896 79.8406C9.27943 80.1317 9.27857 80.4229 9.27626 80.714C9.23571 82.7877 9.23571 82.7877 10.1562 84.5703C11.1013 85.3185 11.8256 85.5707 13.0099 85.5725C13.191 85.5733 13.372 85.574 13.5584 85.5748C13.7566 85.5746 13.9548 85.5745 14.159 85.5743C14.3701 85.5749 14.5811 85.5755 14.7986 85.5761C15.5082 85.5778 16.2179 85.578 16.9275 85.5783C17.4353 85.5792 17.9432 85.5802 18.451 85.5813C19.8323 85.5839 21.2136 85.5851 22.5949 85.586C23.4575 85.5865 24.32 85.5873 25.1826 85.5882C27.571 85.5906 29.9594 85.5926 32.3478 85.5933C32.5006 85.5933 32.6535 85.5934 32.8109 85.5934C32.9641 85.5934 33.1173 85.5935 33.2752 85.5935C33.5856 85.5936 33.896 85.5937 34.2065 85.5938C34.3605 85.5938 34.5144 85.5939 34.6731 85.5939C37.1684 85.5947 39.6638 85.5981 42.1591 85.6026C44.7213 85.6073 47.2835 85.6097 49.8457 85.6099C51.2842 85.6101 52.7226 85.6112 54.1611 85.6148C55.514 85.6181 56.8668 85.6184 58.2197 85.6167C58.7164 85.6166 59.2132 85.6174 59.7099 85.6193C60.3876 85.6218 61.0653 85.6207 61.743 85.6186C62.0384 85.621 62.0384 85.621 62.3396 85.6234C63.7418 85.6135 64.6942 85.4291 65.7836 84.4849C66.6202 83.5048 66.6571 82.7165 66.6485 81.4557C66.6488 81.2771 66.6491 81.0986 66.6495 80.9147C66.6501 80.3152 66.648 79.7157 66.6459 79.1162C66.6457 78.687 66.6458 78.2578 66.646 77.8286C66.6461 76.662 66.6438 75.4955 66.6411 74.3289C66.6387 73.1103 66.6384 71.8917 66.638 70.6731C66.6369 68.6272 66.6345 66.5814 66.631 64.5356C66.6274 62.4284 66.6246 60.3213 66.623 58.2141C66.6229 58.0842 66.6228 57.9543 66.6226 57.8205C66.6221 57.1688 66.6216 56.5172 66.6212 55.8656C66.6171 50.4599 66.6102 45.0541 66.6015 39.6484C66.3881 39.5434 66.1747 39.4384 65.9548 39.3302C65.6714 39.1899 65.388 39.0495 65.1046 38.9091C64.8942 38.8058 64.8942 38.8058 64.6796 38.7004C62.7274 37.7309 61.1509 36.4535 59.5703 34.9609C59.4454 34.8464 59.3205 34.7318 59.1918 34.6138C58.6884 34.1362 58.2728 33.7373 57.9661 33.1058C57.6503 32.4855 57.3689 32.093 56.8359 31.6406C55.6506 31.3518 54.4848 31.4035 53.2717 31.4344C52.9056 31.4365 52.5394 31.4378 52.1733 31.4383C51.3862 31.4411 50.5995 31.4502 49.8125 31.464C48.5683 31.4857 47.3243 31.4936 46.08 31.4996C44.1125 31.5107 42.1452 31.531 40.1778 31.5552C36.6532 31.5985 33.1285 31.6309 29.6037 31.6531C28.3665 31.6613 27.1296 31.675 25.8926 31.6931C25.1237 31.7035 24.3548 31.7099 23.5859 31.7153C23.2291 31.7187 22.8724 31.7238 22.5157 31.7307C22.0289 31.74 21.5425 31.7432 21.0557 31.7449C20.8436 31.7512 20.8436 31.7512 20.6273 31.7576C19.8656 31.7533 19.5561 31.6607 18.955 31.176C18.5107 30.6079 18.434 30.3782 18.4407 29.6691C18.4401 29.4762 18.4395 29.2833 18.439 29.0845C18.4434 28.8784 18.4478 28.6723 18.4524 28.4599C18.4533 28.2464 18.4542 28.0329 18.4552 27.8129C18.4593 27.1315 18.4704 26.4504 18.4814 25.769C18.4846 25.3096 18.4874 24.8502 18.4898 24.3908C18.4964 23.5498 18.5032 22.7089 18.517 21.8681C18.5195 21.6993 18.522 21.5305 18.5246 21.3566C18.5807 20.5008 18.5807 20.5008 18.7499 20.1172C19.5459 19.7022 20.2384 19.676 21.1267 19.6722C21.2655 19.671 21.4043 19.6699 21.5474 19.6687C22.0113 19.6654 22.4752 19.6649 22.9391 19.6643C23.2721 19.6625 23.6052 19.6605 23.9382 19.6583C24.8416 19.653 25.7451 19.65 26.6485 19.6475C27.5929 19.6445 28.5373 19.6392 29.4817 19.6342C31.2698 19.6251 33.0578 19.6179 34.8459 19.6114C36.8817 19.604 38.9174 19.5943 40.9532 19.5845C45.1406 19.5643 49.3281 19.5469 53.5156 19.5312C53.5484 19.3458 53.5484 19.3458 53.5819 19.1566C53.6822 18.5911 53.7835 18.0259 53.8848 17.4606C53.9364 17.1689 53.9364 17.1689 53.9891 16.8712C54.5075 13.9888 55.5947 11.4121 57.1545 8.93726C57.2849 8.72993 57.2849 8.72993 57.4179 8.51842C57.4837 8.41437 57.5494 8.31032 57.6171 8.20312C51.8214 8.18529 46.0257 8.17147 40.23 8.16323C39.5455 8.16225 38.861 8.16124 38.1765 8.16021C38.0402 8.16 37.9039 8.1598 37.7635 8.15958C35.5581 8.15619 33.3527 8.15003 31.1474 8.14285C28.8838 8.13554 26.6202 8.13126 24.3567 8.12962C23.0855 8.1286 21.8144 8.1262 20.5432 8.12052C19.3467 8.11522 18.1502 8.11358 16.9536 8.11476C16.5146 8.11454 16.0756 8.11299 15.6366 8.10999C15.0366 8.1061 14.4369 8.10704 13.837 8.10917C13.6637 8.1069 13.4904 8.10462 13.3119 8.10228C11.9179 8.11564 10.8497 8.46058 9.87543 9.48486ZM22.4609 23.6328C22.4609 24.9863 22.4609 26.3398 22.4609 27.7344C32.7089 27.7344 42.957 27.7344 53.5156 27.7344C53.5156 26.3809 53.5156 25.0273 53.5156 23.6328C43.2675 23.6328 33.0195 23.6328 22.4609 23.6328Z" fill="#222020"/>
<path id="Vector_2" d="M21.2005 56.9804C21.4242 56.9793 21.4242 56.9793 21.6524 56.9781C22.1525 56.9761 22.6525 56.9769 23.1525 56.9777C23.5109 56.9768 23.8693 56.9758 24.2276 56.9746C25.2013 56.972 26.1751 56.9719 27.1488 56.9724C27.9613 56.9726 28.7739 56.9717 29.5864 56.9707C31.5031 56.9686 33.4197 56.9685 35.3364 56.9697C37.3145 56.9708 39.2927 56.9684 41.2708 56.9643C42.9685 56.9608 44.6662 56.9597 46.3639 56.9603C47.3782 56.9606 48.3924 56.9601 49.4067 56.9574C50.3604 56.955 51.314 56.9553 52.2677 56.9579C52.6179 56.9584 52.968 56.9578 53.3181 56.9562C53.7959 56.9542 54.2735 56.9557 54.7513 56.9582C54.89 56.9568 55.0287 56.9553 55.1717 56.9539C56.02 56.9631 56.5477 57.1051 57.2266 57.6172C57.7278 58.2856 57.6884 58.9544 57.6172 59.7657C57.3791 60.3014 57.1966 60.6292 56.7114 60.9611C56.0689 61.2003 55.4523 61.1874 54.7761 61.1838C54.627 61.1845 54.4778 61.1853 54.3242 61.1861C53.8242 61.1881 53.3241 61.1873 52.8241 61.1865C52.4657 61.1874 52.1074 61.1884 51.749 61.1895C50.7753 61.1922 49.8016 61.1923 48.8278 61.1918C48.0153 61.1916 47.2028 61.1925 46.3902 61.1935C44.4736 61.1956 42.5569 61.1957 40.6402 61.1945C38.6621 61.1933 36.684 61.1958 34.7058 61.1999C33.0081 61.2034 31.3104 61.2045 29.6127 61.2039C28.5985 61.2035 27.5842 61.2041 26.57 61.2068C25.6163 61.2092 24.6626 61.2088 23.7089 61.2063C23.3588 61.2058 23.0086 61.2064 22.6585 61.208C22.1807 61.21 21.7031 61.2084 21.2253 61.206C21.0866 61.2074 20.9479 61.2088 20.8049 61.2103C19.9567 61.2011 19.4289 61.059 18.75 60.5469C18.2488 59.8786 18.2882 59.2097 18.3594 58.3985C18.5975 57.8628 18.7801 57.535 19.2652 57.2031C19.9077 56.9639 20.5243 56.9768 21.2005 56.9804Z" fill="#222020"/>
<path id="Vector_3" d="M21.575 66.1601C21.72 66.1593 21.865 66.1586 22.0144 66.1578C22.4995 66.1558 22.9845 66.1566 23.4695 66.1574C23.8176 66.1565 24.1658 66.1555 24.5139 66.1543C25.459 66.1517 26.4041 66.1516 27.3492 66.1521C28.1384 66.1523 28.9276 66.1514 29.7168 66.1504C31.5789 66.1482 33.441 66.1482 35.3031 66.1493C37.2234 66.1505 39.1437 66.1481 41.0641 66.144C42.7134 66.1405 44.3626 66.1393 46.0119 66.14C46.9967 66.1403 47.9815 66.1398 48.9663 66.1371C49.8926 66.1347 50.8188 66.135 51.7451 66.1376C52.0847 66.138 52.4242 66.1375 52.7638 66.1359C53.2282 66.1338 53.6924 66.1354 54.1568 66.1379C54.3573 66.1357 54.3573 66.1357 54.5618 66.1335C55.6532 66.1457 56.5744 66.399 57.4097 67.1265C57.717 67.7953 57.7489 68.427 57.6172 69.1407C57.2669 69.6895 57.0276 70.0214 56.4454 70.3126C55.963 70.3329 55.486 70.3414 55.0036 70.3413C54.8532 70.342 54.7028 70.3427 54.5478 70.3435C54.0412 70.3456 53.5346 70.3464 53.0279 70.3471C52.6658 70.3484 52.3036 70.3497 51.9414 70.351C50.9556 70.3544 49.9697 70.3565 48.9839 70.3581C48.3683 70.3591 47.7528 70.3603 47.1373 70.3615C45.2125 70.3652 43.2877 70.368 41.3629 70.3696C39.139 70.3716 36.9151 70.3767 34.6912 70.3846C32.9736 70.3905 31.256 70.3934 29.5384 70.394C28.5119 70.3945 27.4854 70.3962 26.4589 70.4011C25.4934 70.4057 24.5279 70.4065 23.5623 70.4045C23.2078 70.4044 22.8532 70.4056 22.4987 70.4083C22.0149 70.4118 21.5313 70.4104 21.0475 70.4078C20.907 70.41 20.7665 70.4121 20.6217 70.4143C19.686 70.4023 19.2119 70.194 18.5547 69.5313C18.2414 68.9046 18.2655 68.2581 18.3594 67.5782C19.1252 66.2735 20.1583 66.1523 21.575 66.1601Z" fill="#222020"/>
<path id="Vector_4" d="M20.9731 47.8228C21.1235 47.822 21.2739 47.8213 21.4288 47.8206C21.9354 47.8184 22.4421 47.8177 22.9487 47.8169C23.3109 47.8157 23.673 47.8144 24.0352 47.8131C25.021 47.8096 26.0069 47.8076 26.9928 47.806C27.6083 47.805 28.2238 47.8038 28.8394 47.8026C30.7642 47.7988 32.6889 47.7961 34.6137 47.7944C36.8376 47.7925 39.0615 47.7874 41.2855 47.7795C43.0031 47.7736 44.7206 47.7707 46.4382 47.7701C47.4648 47.7696 48.4912 47.7678 49.5177 47.7629C50.4833 47.7584 51.4488 47.7576 52.4143 47.7596C52.7689 47.7597 53.1234 47.7584 53.4779 47.7558C53.9618 47.7523 54.4453 47.7537 54.9291 47.7562C55.0697 47.7541 55.2102 47.752 55.355 47.7498C56.2907 47.7618 56.7647 47.9701 57.4219 48.6328C57.7355 49.2599 57.7099 49.9056 57.6172 50.5859C57.2515 51.2329 56.9988 51.4945 56.3132 51.7805C55.5934 51.9719 54.9287 52.0081 54.1903 52.004C54.0459 52.0047 53.9015 52.0055 53.7527 52.0063C53.271 52.0083 52.7893 52.0075 52.3076 52.0067C51.9613 52.0076 51.6151 52.0086 51.2689 52.0097C50.3298 52.0124 49.3908 52.0125 48.4518 52.012C47.6674 52.0118 46.8831 52.0127 46.0987 52.0137C44.2481 52.0158 42.3976 52.0159 40.547 52.0147C38.6387 52.0135 36.7305 52.016 34.8222 52.0201C33.1829 52.0236 31.5436 52.0247 29.9042 52.0241C28.9256 52.0237 27.9469 52.0243 26.9682 52.027C26.0479 52.0294 25.1276 52.029 24.2072 52.0265C23.8698 52.026 23.5324 52.0266 23.1951 52.0282C22.7337 52.0302 22.2725 52.0286 21.8111 52.0262C21.6784 52.0276 21.5456 52.029 21.4088 52.0305C20.3204 52.0183 19.3998 51.7629 18.5669 51.0375C18.2597 50.3688 18.2277 49.737 18.3594 49.0234C19.0995 47.864 19.6786 47.8224 20.9731 47.8228Z" fill="#222020"/>
<path id="Vector_5" d="M21.2166 38.4022C21.4394 38.4008 21.4394 38.4008 21.6666 38.3994C22.1634 38.3971 22.66 38.399 23.1568 38.4008C23.5133 38.4 23.8697 38.399 24.2262 38.3977C25.1939 38.395 26.1615 38.3961 27.1292 38.3979C28.1417 38.3994 29.1542 38.398 30.1667 38.3971C31.867 38.396 33.5674 38.3974 35.2677 38.4002C37.2338 38.4034 39.1998 38.4024 41.1659 38.3992C42.8536 38.3965 44.5414 38.3961 46.2291 38.3977C47.2373 38.3986 48.2454 38.3987 49.2535 38.3968C50.2013 38.3951 51.149 38.3962 52.0968 38.3996C52.4447 38.4004 52.7926 38.4002 53.1406 38.3989C53.6153 38.3973 54.09 38.3993 54.5647 38.4022C54.7715 38.4003 54.7715 38.4003 54.9824 38.3983C56.026 38.4107 56.6419 38.6866 57.3853 39.4044C57.7205 40.0395 57.6918 40.5029 57.6172 41.211C57.3791 41.7467 57.1966 42.0745 56.7114 42.4064C56.0689 42.6456 55.4523 42.6327 54.7761 42.6291C54.627 42.6299 54.4779 42.6306 54.3242 42.6314C53.8242 42.6334 53.3242 42.6326 52.8241 42.6318C52.4658 42.6327 52.1074 42.6337 51.749 42.6349C50.7753 42.6375 49.8016 42.6376 48.8279 42.6371C48.0153 42.6369 47.2028 42.6378 46.3903 42.6388C44.4736 42.6409 42.5569 42.641 40.6403 42.6398C38.6621 42.6387 36.684 42.6411 34.7058 42.6452C33.0081 42.6487 31.3104 42.6498 29.6127 42.6492C28.5985 42.6488 27.5842 42.6494 26.57 42.6521C25.6163 42.6545 24.6626 42.6542 23.7089 42.6516C23.3588 42.6511 23.0087 42.6517 22.6585 42.6533C22.1808 42.6553 21.7031 42.6538 21.2254 42.6513C21.0866 42.6527 20.9479 42.6542 20.805 42.6556C19.9567 42.6464 19.4289 42.5044 18.7501 41.9922C18.2492 41.3244 18.3015 40.6543 18.3594 39.8438C18.53 39.2857 18.694 39.1048 19.1612 38.7529C19.8592 38.4119 20.4571 38.395 21.2166 38.4022Z" fill="#222020"/>
<path id="Vector_6" d="M75.3906 16.2109C76.0454 16.8497 76.2616 17.3202 76.2799 18.238C76.2786 18.3714 76.2773 18.5049 76.276 18.6424C76.2777 18.7854 76.2794 18.9284 76.2811 19.0758C76.2856 19.5469 76.2842 20.0177 76.2825 20.4887C76.2835 20.8173 76.2847 21.1459 76.2861 21.4745C76.2882 22.1626 76.2873 22.8506 76.2844 23.5387C76.2811 24.419 76.2857 25.2991 76.2925 26.1794C76.2968 26.8579 76.2965 27.5363 76.2949 28.2147C76.2948 28.5392 76.2961 28.8637 76.299 29.1882C76.3024 29.6426 76.2995 30.0966 76.2951 30.5511C76.2974 30.6841 76.2997 30.8172 76.302 30.9543C76.2808 32.0286 75.9268 32.4734 75.1953 33.2031C74.672 33.434 74.2005 33.4479 73.6328 33.3984C72.7986 33.0647 72.4596 32.6314 72.0703 31.8359C71.9946 31.1777 71.9946 31.1777 71.9914 30.4169C71.99 30.2777 71.9887 30.1384 71.9873 29.995C71.9837 29.5367 71.9845 29.0785 71.9856 28.6201C71.9847 28.3003 71.9837 27.9804 71.9825 27.6606C71.9807 26.9909 71.9812 26.3213 71.9832 25.6516C71.9854 24.7949 71.9815 23.9384 71.9758 23.0818C71.9722 22.4214 71.9722 21.7611 71.9733 21.1008C71.9734 20.785 71.9722 20.4693 71.9698 20.1535C71.9669 19.7113 71.9689 19.2693 71.9723 18.8271C71.9723 18.5759 71.9724 18.3247 71.9724 18.0658C72.0879 17.2596 72.3403 16.8382 72.8515 16.2109C73.7916 15.7095 74.4231 15.7988 75.3906 16.2109Z" fill="#222020"/>
<path id="Vector_7" d="M75.1953 9.7656C75.8871 10.3709 76.1413 10.72 76.2695 11.6333C76.1666 12.3409 76.02 12.7185 75.5859 13.2812C74.8042 13.8024 74.1615 13.8347 73.2422 13.6718C72.7039 13.2458 72.3758 12.9156 72.0703 12.3047C72.062 11.4493 72.1119 10.7518 72.6318 10.0586C73.4516 9.47988 74.258 9.47201 75.1953 9.7656Z" fill="#222020"/>
<path id="Vector_8" d="M82.6172 54.8828C83.3083 55.2053 83.5568 55.4133 83.9844 56.0547C84.0909 56.6534 84.0905 57.2137 83.9844 57.8125C83.5583 58.3507 83.2282 58.6789 82.6172 58.9844C81.7541 59.084 81.3461 59.0413 80.5908 58.5937C80.0362 57.9599 79.8924 57.6399 79.8492 56.8214C79.9169 56.0638 80.3012 55.6423 80.8105 55.1147C81.4456 54.7795 81.9091 54.8083 82.6172 54.8828Z" fill="#222020"/>
</g>
<defs>
<clipPath id="clip0_2870_594">
<rect width="100" height="100" fill="white"/>
</clipPath>
</defs>
</svg>
