<svg width="100" height="101" viewBox="0 0 100 101" fill="none" xmlns="http://www.w3.org/2000/svg">
<g id="Icon">
<path id="Vector" d="M23.204 6.56766C23.3428 6.56694 23.4815 6.56622 23.6244 6.56548C24.0893 6.56333 24.5542 6.56257 25.0191 6.56183C25.3525 6.56061 25.6859 6.55931 26.0193 6.55794C27.1143 6.55383 28.2094 6.55181 29.3045 6.54986C29.682 6.54907 30.0595 6.54827 30.4369 6.54745C32.2109 6.54373 33.9849 6.54095 35.7589 6.53932C37.8039 6.53741 39.849 6.53228 41.894 6.52438C43.4763 6.51848 45.0585 6.5156 46.6408 6.51495C47.585 6.51449 48.5292 6.51275 49.4734 6.50783C50.3627 6.50327 51.2519 6.50246 52.1412 6.50446C52.4662 6.50456 52.7913 6.50334 53.1164 6.50064C55.9562 6.47845 58.3992 7.02582 60.5797 8.96991C62.7086 11.1665 63.2745 13.4813 63.2909 16.4258C63.2931 16.7088 63.2971 16.9918 63.3029 17.2748C63.3112 17.6847 63.3144 18.0944 63.3164 18.5044C63.3206 18.8713 63.3206 18.8713 63.325 19.2456C63.2173 19.9872 63.0406 20.2118 62.452 20.6589C62.0613 20.7627 62.0613 20.7627 61.6707 20.7566C61.4774 20.7596 61.4774 20.7596 61.2801 20.7627C60.6667 20.5997 60.4707 20.4047 60.1082 19.8777C59.9924 19.2197 59.9899 18.567 59.9861 17.9001C59.9553 15.7481 59.876 13.5029 58.3542 11.837C56.6262 10.2042 54.9464 9.88789 52.5956 9.89764C52.4631 9.89792 52.3306 9.89819 52.1942 9.89848C51.7763 9.89956 51.3585 9.90201 50.9407 9.90451C50.6553 9.90549 50.3698 9.90638 50.0843 9.90718C49.3892 9.90932 48.694 9.91268 47.9988 9.91671C47.9069 10.0955 47.815 10.2742 47.7204 10.4584C47.5976 10.6929 47.4748 10.9274 47.3519 11.1618C47.2916 11.2797 47.2313 11.3975 47.1691 11.5189C46.8414 12.1399 46.6418 12.449 46.0457 12.8464C45.4702 12.8986 45.4702 12.8986 44.7576 12.9031C44.6276 12.9045 44.4977 12.9058 44.3638 12.9071C43.9341 12.9108 43.5045 12.9116 43.0748 12.912C42.7759 12.9133 42.4769 12.9146 42.1779 12.916C41.5511 12.9183 40.9242 12.919 40.2973 12.9188C39.495 12.9187 38.6927 12.9241 37.8904 12.9308C37.2728 12.9352 36.6552 12.9359 36.0375 12.9357C35.7418 12.9362 35.446 12.9379 35.1503 12.9409C34.736 12.9448 34.3221 12.9436 33.9078 12.9413C33.6723 12.9418 33.4369 12.9424 33.1943 12.943C32.4451 12.8272 32.1288 12.5905 31.5926 12.0652C31.2836 11.5753 31.2836 11.5753 31.0433 11.0642C30.9205 10.8096 30.9205 10.8096 30.7953 10.55C30.616 10.112 30.616 10.112 30.616 9.7214C29.6782 9.73984 28.7404 9.7606 27.8027 9.78339C27.4845 9.79081 27.1663 9.79763 26.8481 9.8038C23.0836 9.79427 23.0836 9.79427 19.841 11.4754C18.1473 13.2679 18.0294 14.8715 18.0403 17.2543C18.0395 17.5444 18.0384 17.8345 18.0371 18.1247C18.0343 18.9194 18.0351 19.7142 18.0366 20.5089C18.0375 21.367 18.035 22.2251 18.033 23.0832C18.0297 24.7632 18.0295 26.4433 18.0305 28.1234C18.0313 29.489 18.0311 30.8546 18.03 32.2202C18.0298 32.5119 18.0298 32.5119 18.0296 32.8094C18.0293 33.2044 18.029 33.5994 18.0287 33.9944C18.026 37.6976 18.027 41.4008 18.0293 45.1041C18.0312 48.4914 18.0287 51.8787 18.024 55.2661C18.0193 58.7451 18.0174 62.2241 18.0187 65.7032C18.0194 67.656 18.0189 69.6089 18.0155 71.5617C18.0126 73.2241 18.0125 74.8864 18.0159 76.5487C18.0176 77.3966 18.018 78.2445 18.015 79.0924C18.0123 79.8692 18.0132 80.6458 18.017 81.4225C18.0177 81.703 18.0172 81.9835 18.0151 82.2639C18.0001 84.4936 18.3482 86.0572 19.8914 87.7053C21.761 89.3914 24.3855 89.2713 26.7498 89.2641C27.0452 89.2647 27.3406 89.2654 27.636 89.2662C28.4329 89.268 29.2299 89.2673 30.0269 89.2661C30.864 89.2651 31.7011 89.266 32.5383 89.2666C33.9436 89.2673 35.349 89.2664 36.7544 89.2645C38.3753 89.2624 39.9962 89.2631 41.6171 89.2652C43.0129 89.267 44.4088 89.2673 45.8046 89.2662C46.6365 89.2656 47.4683 89.2655 48.3002 89.2668C49.0825 89.268 49.8649 89.2672 50.6472 89.2649C50.933 89.2644 51.2188 89.2645 51.5046 89.2654C55.0019 89.2773 55.0019 89.2773 57.9926 87.6549C59.7834 85.7597 59.9361 83.8328 59.9472 81.3256C59.9518 80.933 59.9565 80.5405 59.9613 80.148C59.9682 79.5333 59.974 78.9188 59.9766 78.3041C59.9796 77.708 59.9874 77.1121 59.9961 76.516C59.9957 76.3321 59.9953 76.1481 59.9949 75.9586C60.0188 74.6864 60.0188 74.6864 60.4814 74.0591C60.9225 73.7616 61.1435 73.678 61.6707 73.6862C61.8641 73.6832 61.8641 73.6832 62.0613 73.6801C62.6302 73.8312 62.8607 74.116 63.2332 74.5651C63.3324 75.0525 63.3324 75.0525 63.3343 75.6058C63.3368 75.8139 63.3392 76.022 63.3418 76.2364C63.3402 76.4606 63.3386 76.6848 63.337 76.9158C63.3377 77.148 63.3385 77.3802 63.3392 77.6195C63.3398 78.1115 63.3383 78.6036 63.3351 79.0956C63.3309 79.8433 63.335 80.5905 63.34 81.3382C63.3395 81.8171 63.3385 82.2961 63.337 82.7751C63.3386 82.9966 63.3401 83.218 63.3418 83.4462C63.3137 85.863 62.4775 88.0659 60.8597 89.8804C59.1219 91.5646 57.0467 92.5545 54.6296 92.5626C54.4908 92.5634 54.3521 92.5641 54.2092 92.5648C53.7443 92.567 53.2794 92.5677 52.8145 92.5685C52.4811 92.5697 52.1477 92.571 51.8144 92.5724C50.7193 92.5765 49.6242 92.5785 48.5291 92.5804C48.1516 92.5812 47.7741 92.582 47.3967 92.5829C45.6227 92.5866 43.8487 92.5894 42.0747 92.591C40.0297 92.5929 37.9847 92.598 35.9396 92.6059C34.3573 92.6118 32.7751 92.6147 31.1928 92.6154C30.2486 92.6158 29.3044 92.6175 28.3602 92.6225C27.4709 92.627 26.5817 92.6278 25.6924 92.6258C25.3674 92.6257 25.0423 92.627 24.7172 92.6297C21.778 92.6526 19.3867 92.0354 17.1326 90.0322C15.5754 88.386 14.5531 86.1094 14.5502 83.84C14.5489 83.5911 14.5476 83.3422 14.5463 83.0857C14.5469 82.812 14.5475 82.5382 14.5482 82.2644C14.5474 81.9716 14.5465 81.6789 14.5455 81.3861C14.5431 80.5832 14.5431 79.7802 14.5436 78.9772C14.5437 78.1106 14.5415 77.244 14.5397 76.3774C14.5364 74.68 14.5354 72.9826 14.5351 71.2852C14.535 69.9051 14.5342 68.5251 14.5329 67.145C14.5295 63.2308 14.5277 59.3166 14.528 55.4024C14.528 55.1914 14.528 54.9805 14.528 54.7631C14.528 54.4463 14.528 54.4463 14.5281 54.123C14.5282 50.7007 14.5245 47.2784 14.519 43.8561C14.5134 40.3407 14.5107 36.8252 14.511 33.3098C14.5111 31.3367 14.5101 29.3636 14.5059 27.3906C14.5023 25.7104 14.5015 24.0304 14.5041 22.3502C14.5054 21.4935 14.5054 20.6369 14.502 19.7802C14.4989 18.9947 14.4995 18.2094 14.5029 17.4239C14.5035 17.141 14.5028 16.858 14.5006 16.575C14.4799 13.7031 15.1799 11.3277 17.0883 9.13623C18.7294 7.55847 20.9443 6.57525 23.204 6.56766Z" fill="#222020"/>
<path id="Vector_2" d="M76.0253 31.3397C76.6634 31.8599 77.274 32.4053 77.8816 32.9609C78.1157 33.1709 78.1157 33.1709 78.3546 33.3851C80.5669 35.4719 82.1238 38.0141 83.3503 40.7734C83.4916 41.0857 83.4916 41.0857 83.6357 41.4043C85.9434 46.922 85.7436 53.4643 83.6067 58.9863C82.4514 61.7959 80.9024 64.1238 78.8581 66.3593C78.7181 66.5154 78.5782 66.6715 78.4339 66.8324C76.3461 69.0457 73.8047 70.5988 71.0456 71.8281C70.8397 71.9222 70.6337 72.0164 70.4215 72.1134C64.9169 74.4364 58.3406 74.2177 52.8327 72.0844C50.0232 70.9291 47.6953 69.3802 45.4597 67.3359C45.3036 67.1959 45.1475 67.0559 44.9867 66.9117C42.7743 64.8249 41.2174 62.2827 39.9909 59.5234C39.8968 59.3152 39.8026 59.107 39.7056 58.8924C37.3979 53.3748 37.5977 46.8325 39.7346 41.3105C40.8898 38.5009 42.4389 36.173 44.4831 33.9375C44.6231 33.7814 44.7631 33.6253 44.9073 33.4644C46.9941 31.2521 49.5363 29.6952 52.2956 28.4687C52.5038 28.3745 52.7121 28.2804 52.9266 28.1834C60.3609 25.0739 69.7015 26.3554 76.0253 31.3397ZM51.3191 32.7656C51.1242 32.8741 50.9293 32.9826 50.7285 33.0944C46.4222 35.6671 43.6394 39.9836 42.1394 44.6796C42.0393 44.9833 42.0393 44.9833 41.9372 45.2931C40.5727 50.3447 41.6504 55.8735 44.1657 60.3657C44.8347 61.4643 45.608 62.4481 46.4363 63.4296C46.5231 63.545 46.61 63.6603 46.6995 63.7791C48.9879 66.7323 52.7234 68.5685 56.2019 69.6796C56.4043 69.7464 56.6067 69.8131 56.8153 69.8818C60.261 70.8125 64.351 70.6018 67.7253 69.4843C68.0663 69.3714 68.0663 69.3714 68.4142 69.2562C70.7965 68.3973 72.7815 67.1509 74.7566 65.5781C74.8996 65.4655 75.0426 65.353 75.1899 65.2371C78.819 62.2344 81.1114 57.493 81.7878 52.8828C81.9656 49.8871 81.9519 46.9577 81.0066 44.0937C80.9358 43.8732 80.8651 43.6526 80.7922 43.4254C79.9269 40.9734 78.597 38.8303 76.905 36.8671C76.795 36.7312 76.685 36.5952 76.5716 36.4552C73.6486 32.9229 68.9111 30.6243 64.405 30.0312C64.2053 30.0048 64.0057 29.9783 63.8 29.9511C59.327 29.496 55.198 30.5943 51.3191 32.7656Z" fill="#222020"/>
<path id="Vector_3" d="M62.0613 34.6606C62.6232 35.2017 62.8272 35.5067 62.9188 36.288C62.9097 36.5123 62.9007 36.7367 62.8913 36.9678C62.8843 37.1946 62.8772 37.4215 62.87 37.6552C62.8609 37.8271 62.8518 37.9991 62.8425 38.1763C63.1809 38.2004 63.1809 38.2004 63.5261 38.2251C65.0103 38.4162 66.3515 39.1993 67.3347 40.3247C68.2889 41.8833 68.4731 43.4041 68.061 45.1663C67.8661 45.7658 67.685 46.055 67.1394 46.3794C66.3551 46.4935 65.9353 46.4741 65.2465 46.0742C64.4962 45.282 64.6959 44.4005 64.7041 43.3582C64.6658 42.6428 64.6658 42.6428 64.138 42.2015C62.843 41.41 61.3758 41.24 59.8953 41.5942C58.974 41.9491 58.2088 42.5608 57.7644 43.4497C57.6926 44.3111 57.6781 44.82 58.0329 45.6104C59.3921 47.1314 61.1248 47.8562 62.9582 48.6565C65.2058 49.6459 67.6215 50.8705 68.5729 53.284C69.0217 55.0843 68.8301 56.8756 67.9206 58.4888C66.9385 60.0721 65.422 60.6918 63.6863 61.1293C63.2331 61.2231 63.2331 61.2231 62.8425 61.2231C62.8516 61.3387 62.8606 61.4543 62.87 61.5733C62.9059 62.3597 62.9069 62.8573 62.5373 63.5669C61.9052 64.0856 61.5087 64.1671 60.6941 64.1528C60.1468 63.8078 59.8122 63.5609 59.5222 62.981C59.5084 62.5824 59.5057 62.1834 59.51 61.7847C59.5118 61.5707 59.5135 61.3567 59.5153 61.1362C59.5176 60.9715 59.5199 60.8069 59.5222 60.6372C59.3505 60.5871 59.1788 60.537 59.0019 60.4854C56.9772 59.7433 55.4129 58.0637 54.2243 56.3159C53.989 55.5427 54.1258 55.1205 54.4441 54.3872C54.8898 53.8938 55.1409 53.8138 55.7991 53.7158C56.5624 53.8249 56.8298 54.0385 57.3738 54.5825C57.523 54.8004 57.6693 55.0203 57.8132 55.2417C58.6468 56.4633 60.0907 57.2625 61.4753 57.7075C62.7262 57.8914 63.7612 57.668 64.7956 56.9263C65.2087 56.3066 65.2486 56.1056 65.2595 55.3882C65.2678 55.1412 65.2678 55.1412 65.2763 54.8892C65.1235 54.0375 64.6253 53.5738 63.9465 53.0711C62.7281 52.3646 61.5117 51.8088 60.2058 51.2866C57.8482 50.3294 55.8716 49.0906 54.6394 46.77C54.0341 45.2651 53.9375 43.4328 54.5539 41.9116C55.4974 40.1307 57.0004 38.7847 58.9363 38.1763C59.1296 38.1763 59.323 38.1763 59.5222 38.1763C59.5131 37.9879 59.5041 37.7996 59.4947 37.6056C59.4842 37.2355 59.4842 37.2355 59.4734 36.8579C59.4643 36.6132 59.4552 36.3685 59.4459 36.1163C59.5222 35.4419 59.5222 35.4419 59.8915 34.975C60.6709 34.3803 61.1047 34.4297 62.0613 34.6606Z" fill="#222020"/>
</g>
</svg>
