<svg width="100" height="101" viewBox="0 0 100 101" fill="none" xmlns="http://www.w3.org/2000/svg">
<g id="Icon" clip-path="url(#clip0_2870_581)">
<path id="Vector" d="M81.2432 33.8596C83.3467 35.3136 84.7819 37.1505 85.4249 39.6724C85.8644 42.1917 85.4218 44.6617 83.9844 46.7891C83.5439 47.388 83.0888 47.9721 82.6172 48.5469C82.7743 48.5912 82.9314 48.6355 83.0933 48.6812C84.7849 49.3044 86.1442 50.3034 87.5 51.4766C87.635 51.5927 87.7699 51.7087 87.909 51.8283C90.0523 53.8143 92.1008 57.1739 92.2608 60.1314C92.2203 61.5299 91.7136 62.7482 90.7593 63.7691C89.2126 65.1737 87.3744 65.1777 85.3868 65.1768C85.1761 65.1775 84.9654 65.1782 84.7483 65.1788C84.053 65.1807 83.3576 65.1811 82.6622 65.1813C82.1777 65.1819 81.6931 65.1826 81.2086 65.1832C80.1931 65.1844 79.1777 65.1848 78.1622 65.1847C76.8632 65.1846 75.5642 65.1873 74.2651 65.1907C73.2643 65.1928 72.2635 65.1932 71.2627 65.1931C70.7839 65.1934 70.3051 65.1942 69.8262 65.1957C69.1555 65.1977 68.4848 65.1971 67.8141 65.1959C67.6177 65.197 67.4213 65.1981 67.219 65.1992C65.2512 65.1905 63.6214 64.9221 62.1094 63.586C60.9465 62.1462 60.7528 60.718 60.9375 58.8985C62.1262 54.4585 65.1659 51.388 68.956 49.0413C69.4915 48.7629 69.9137 48.6258 70.5079 48.5469C70.3345 48.3551 70.3345 48.3551 70.1577 48.1593C68.0432 45.7171 67.3598 43.3334 67.5782 40.1485C68.0495 37.5904 69.3968 35.6229 71.4844 34.0938C74.4513 32.3082 78.2247 32.0262 81.2432 33.8596ZM72.168 37.8535C71.0897 39.3084 70.6493 40.8917 70.8985 42.6875C71.3273 44.4003 72.2674 45.6223 73.6695 46.667C74.9994 47.3365 76.6472 47.5713 78.0823 47.1553C79.8253 46.4679 80.9507 45.5241 81.836 43.8594C82.4842 42.2402 82.3041 40.7372 81.6407 39.1719C80.9108 37.8203 79.6819 36.5962 78.1868 36.1339C75.9237 35.6988 73.7977 36.134 72.168 37.8535ZM66.7969 54.9922C65.5677 56.4808 64.3468 58.2935 64.2174 60.2695C64.2838 60.9047 64.5741 61.2195 65.0391 61.6328C65.5933 61.8176 65.9363 61.8535 66.5107 61.8556C66.6922 61.8567 66.8737 61.8578 67.0608 61.859C67.3589 61.8593 67.3589 61.8593 67.6631 61.8596C67.8728 61.8606 68.0824 61.8616 68.2984 61.8626C68.9935 61.8654 69.6885 61.8667 70.3835 61.8678C70.8659 61.869 71.3483 61.8701 71.8308 61.8712C72.843 61.8733 73.8552 61.8744 74.8674 61.8751C76.1646 61.8761 77.4617 61.8808 78.7588 61.8864C79.7556 61.89 80.7524 61.8911 81.7491 61.8914C82.2273 61.8919 82.7056 61.8935 83.1838 61.8961C83.8528 61.8994 84.5218 61.899 85.1909 61.8978C85.3885 61.8996 85.586 61.9014 85.7896 61.9032C86.8329 61.897 87.577 61.8338 88.4766 61.2422C88.8927 60.7357 88.8699 60.4917 88.8138 59.8331C88.3023 57.1683 86.3432 54.6083 84.1797 53.0391C78.4606 49.2573 71.5396 49.95 66.7969 54.9922Z" fill="#222020"/>
<path id="Vector_2" d="M28.0609 33.8023C30.17 35.1764 31.4513 36.9566 32.2876 39.3061C32.8078 41.8113 32.4608 44.4239 31.0669 46.5815C30.5728 47.2629 30.0452 47.9125 29.4922 48.5468C29.6286 48.565 29.7651 48.5831 29.9057 48.6018C32.8263 49.3299 35.5576 52.1406 37.1094 54.6015C38.3911 56.8314 39.5275 59.0626 38.9648 61.6999C38.5085 63.0481 37.7835 63.87 36.5356 64.5258C35.1507 65.204 33.7715 65.1774 32.2618 65.1768C32.0511 65.1774 31.8404 65.1781 31.6233 65.1788C30.9279 65.1806 30.2326 65.181 29.5372 65.1812C29.0526 65.1818 28.5681 65.1825 28.0835 65.1832C27.0681 65.1843 26.0526 65.1847 25.0371 65.1846C23.7381 65.1846 22.4391 65.1872 21.1401 65.1906C20.1393 65.1928 19.1385 65.1932 18.1376 65.1931C17.6588 65.1933 17.18 65.1941 16.7012 65.1957C16.0305 65.1976 15.3598 65.197 14.689 65.1958C14.4926 65.1969 14.2962 65.198 14.0939 65.1992C12.2307 65.1909 10.6539 65.0203 9.25903 63.6767C8.31599 62.662 7.80493 61.6085 7.72705 60.2168C7.84586 57.3256 9.66196 54.5495 11.5234 52.4531C11.639 52.3191 11.7546 52.1852 11.8736 52.0472C13.264 50.5412 15.1394 49.3981 16.9922 48.5468C17.1211 48.5468 17.25 48.5468 17.3828 48.5468C17.2673 48.4048 17.1517 48.2628 17.0326 48.1165C15.2127 45.8008 14.2457 43.5331 14.4531 40.539C14.8042 38.1009 15.923 36.069 17.807 34.4798C20.8465 32.3555 24.7926 31.9579 28.0609 33.8023ZM18.75 38.3906C17.8813 39.7579 17.552 41.1483 17.8635 42.7637C18.2908 44.4028 19.0226 45.5357 20.4468 46.4716C21.8982 47.2635 23.2148 47.5213 24.8413 47.1796C26.7173 46.6215 27.7763 45.5503 28.7109 43.8593C29.2821 42.6651 29.2926 41.2859 28.9673 40.0141C28.3744 38.3935 27.5668 37.3978 26.062 36.5473C23.3303 35.2847 20.5745 36.0689 18.75 38.3906ZM13.6719 54.9921C12.5103 56.4864 11.1328 58.394 11.1328 60.3388C11.3616 60.9393 11.608 61.2346 12.1094 61.6328C12.6639 61.8176 13.0074 61.8534 13.5822 61.8555C13.7641 61.8566 13.9459 61.8577 14.1332 61.8589C14.3323 61.8591 14.5313 61.8593 14.7365 61.8596C14.9464 61.8605 15.1564 61.8615 15.3727 61.8625C16.0687 61.8653 16.7647 61.8667 17.4606 61.8678C17.9435 61.8689 18.4264 61.87 18.9093 61.8711C19.9223 61.8732 20.9354 61.8743 21.9484 61.875C23.2473 61.8761 24.5462 61.8808 25.8451 61.8863C26.8427 61.89 27.8403 61.891 28.8379 61.8913C29.3168 61.8919 29.7958 61.8934 30.2747 61.896C30.9442 61.8993 31.6137 61.899 32.2833 61.8977C32.4816 61.8995 32.6799 61.9013 32.8842 61.9032C34.2168 61.8999 34.2168 61.8999 35.3516 61.2421C35.803 60.565 35.7875 60.2079 35.6758 59.4172C35.0088 56.7332 32.8451 54.057 30.5017 52.6251C29.6047 52.1191 28.6812 51.6851 27.7344 51.2812C27.5604 51.2062 27.3864 51.1312 27.2072 51.0539C22.4232 49.4052 16.9526 51.3823 13.6719 54.9921Z" fill="#222020"/>
<path id="Vector_3" d="M55.9952 53.2695C57.9484 55.1324 58.9812 57.3626 59.0455 60.0703C59.0183 62.7398 57.9058 64.8794 56.2501 66.9062C56.4321 66.9941 56.6141 67.082 56.8017 67.1725C60.7998 69.1644 63.7825 72.2803 65.3321 76.5254C65.8116 78.1394 65.8187 79.5321 65.1299 81.0862C64.375 82.3223 63.3102 83.1499 61.9141 83.5078C61.15 83.5665 60.3877 83.5652 59.6216 83.5645C59.3919 83.5658 59.1621 83.5672 58.9254 83.5685C58.2975 83.5716 57.6695 83.5729 57.0416 83.5731C56.6485 83.5734 56.2554 83.5742 55.8624 83.5753C54.4888 83.5789 53.1153 83.5805 51.7418 83.5802C50.465 83.5799 49.1883 83.5841 47.9116 83.5902C46.8125 83.5954 45.7134 83.5974 44.6143 83.5972C43.9591 83.5971 43.3041 83.5985 42.6489 83.6023C41.9173 83.6062 41.1859 83.605 40.4543 83.6027C40.2397 83.6049 40.025 83.6071 39.8038 83.6093C38.2921 83.597 37.0728 83.3273 35.878 82.3634C34.8073 81.0743 34.2348 79.9047 34.2949 78.2008C34.8287 74.5202 37.3081 71.1459 40.2232 68.949C41.334 68.1488 42.5243 67.5121 43.7501 66.9062C43.6791 66.8206 43.6081 66.735 43.5349 66.6468C41.6537 64.2736 40.7846 61.9137 41.0157 58.8984C41.488 56.2507 42.7834 54.1477 44.9952 52.5752C48.4968 50.418 52.8 50.6854 55.9952 53.2695ZM46.0938 55.9687C44.9546 57.1477 44.3313 58.526 44.2628 60.168C44.3563 62.1678 45.2255 63.4124 46.6797 64.7578C48.0678 65.786 49.4913 65.8775 51.1719 65.7344C52.6859 65.3938 53.7378 64.6013 54.6876 63.3906C55.5033 62.0855 55.83 60.8244 55.6641 59.289C55.242 57.5693 54.52 56.3843 53.1128 55.3218C50.7173 53.9456 48.1964 54.1829 46.0938 55.9687ZM39.8438 73.9375C38.7943 75.3548 37.6954 76.9834 37.6954 78.7959C37.9283 79.5238 38.0441 79.7485 38.6719 80.1875C39.3894 80.3072 40.1021 80.2941 40.828 80.2886C41.1578 80.2906 41.1578 80.2906 41.4942 80.2927C42.2218 80.2962 42.9492 80.2939 43.6768 80.2912C44.1818 80.2918 44.6868 80.2925 45.1917 80.2935C46.2504 80.2947 47.3091 80.2931 48.3677 80.2893C49.5913 80.2851 50.8147 80.2865 52.0382 80.2908C53.2158 80.2947 54.3934 80.2943 55.571 80.292C56.0719 80.2915 56.5727 80.2921 57.0736 80.294C57.7732 80.2959 58.4726 80.2929 59.1721 80.2886C59.4838 80.2909 59.4838 80.2909 59.8019 80.2934C60.8909 80.2979 60.8909 80.2979 61.8406 79.8279C62.2502 79.1855 62.317 78.8096 62.3047 78.039C61.1698 74.5474 58.677 71.9045 55.4688 70.2265C49.9575 67.6898 43.7275 69.4004 39.8438 73.9375Z" fill="#222020"/>
<path id="Vector_4" d="M55.8594 14.1718C57.7186 15.8448 58.8381 18.0999 59.0264 20.5851C59.1242 23.6292 57.967 25.774 56.0547 28.039C56.2254 28.0917 56.3961 28.1443 56.572 28.1985C60.5874 29.6165 63.2633 33.1255 65.0391 36.8281C65.676 38.232 65.9304 39.7227 65.4762 41.2272C64.7948 42.8488 63.8975 43.7162 62.3047 44.4453C61.7136 44.6243 61.1816 44.6659 60.5651 44.668C60.3723 44.6691 60.1796 44.6703 59.981 44.6714C59.7708 44.6716 59.5605 44.6718 59.3439 44.6721C59.0103 44.6735 59.0103 44.6735 58.67 44.675C57.9335 44.6779 57.1971 44.6792 56.4606 44.6803C55.9487 44.6814 55.4369 44.6825 54.925 44.6836C53.9885 44.6855 53.0519 44.6867 52.1154 44.6873C50.7395 44.6881 49.3638 44.6916 47.9879 44.6972C46.7941 44.702 45.6003 44.7035 44.4064 44.7038C43.8996 44.7044 43.3929 44.706 42.8861 44.7085C42.1764 44.7119 41.4669 44.7115 40.7572 44.7102C40.5485 44.712 40.3399 44.7138 40.1249 44.7157C38.3462 44.7057 36.8916 44.2894 35.5469 43.0781C34.5879 41.86 34.2698 40.7146 34.301 39.1833C34.6345 36.4912 36.3385 33.9395 38.086 31.9453C38.2018 31.8108 38.3176 31.6764 38.4369 31.5379C39.8286 30.0332 41.7018 28.8903 43.5547 28.039C43.6836 28.039 43.8125 28.039 43.9453 28.039C43.8439 27.9207 43.7424 27.8024 43.6379 27.6805C41.6805 25.3287 40.7757 23.108 41.0156 20.0312C41.366 17.5753 42.4984 15.5522 44.3985 13.9582C45.237 13.3618 46.1052 12.9579 47.0703 12.6093C47.198 12.5615 47.3256 12.5137 47.4571 12.4644C50.2987 11.5798 53.5418 12.3949 55.8594 14.1718ZM45.5078 17.6875C44.5473 18.9985 44.1688 20.3817 44.336 21.9843C44.6799 23.6839 45.5463 24.9689 46.9605 25.9638C48.1554 26.6992 49.3726 27.0617 50.7813 26.8672C52.4725 26.4542 53.8653 25.7333 54.7981 24.2236C55.5586 22.7524 55.9597 21.3788 55.5374 19.7329C54.8593 17.852 53.636 16.545 51.8311 15.6855C49.2721 15.1169 47.2752 15.7798 45.5078 17.6875ZM40.3885 34.3485C39.0902 35.8658 37.5828 38.0853 37.6953 40.1484C38.04 40.707 38.2804 41.0269 38.8672 41.3203C39.1619 41.3399 39.4575 41.3475 39.7529 41.349C39.9394 41.3504 40.1258 41.3518 40.318 41.3533C40.6259 41.3541 40.6259 41.3541 40.94 41.3549C41.1556 41.3561 41.3713 41.3574 41.5935 41.3587C42.3095 41.3626 43.0256 41.3649 43.7416 41.3668C43.9857 41.3676 44.2298 41.3684 44.4812 41.3692C45.6395 41.3729 46.7978 41.3757 47.9561 41.3774C49.2929 41.3793 50.6297 41.3844 51.9665 41.3923C53.1245 41.3989 54.2824 41.4012 55.4404 41.402C55.9329 41.403 56.4255 41.4052 56.918 41.4089C57.6068 41.4136 58.2954 41.4134 58.9842 41.4121C59.1883 41.4146 59.3924 41.4171 59.6027 41.4197C60.4669 41.4134 60.9864 41.4068 61.7417 40.9605C62.1271 40.5188 62.312 40.1879 62.3551 39.5968C62.1449 37.8232 61.0342 36.2449 59.961 34.875C59.8545 34.7362 59.748 34.5975 59.6382 34.4546C57.7248 32.1089 54.7389 30.5738 51.7578 30.1875C47.3413 29.8457 43.5081 31.0967 40.3885 34.3485Z" fill="#222020"/>
<path id="Vector_5" d="M84.3484 74.8443C85.4842 75.3853 86.2811 76.1324 87.1521 77.029C87.3699 77.2484 87.3699 77.2484 87.592 77.4723C88.0515 77.9361 88.5082 78.4026 88.9648 78.8692C89.2774 79.1857 89.5903 79.5021 89.9032 79.8183C90.6667 80.5903 91.428 81.3646 92.1875 82.1406C92.4058 81.9538 92.624 81.767 92.8422 81.5801C92.9638 81.4761 93.0853 81.372 93.2105 81.2648C93.7407 80.8087 94.2628 80.3435 94.7853 79.8785C95.3936 79.3709 95.8869 79.3521 96.6736 79.3636C97.4439 79.4465 97.8924 79.8157 98.3887 80.3828C98.8505 81.1217 98.8859 81.8263 98.9579 82.679C98.975 82.8792 98.975 82.8792 98.9926 83.0835C99.0303 83.5262 99.067 83.9691 99.1035 84.4119C99.1295 84.7223 99.1555 85.0327 99.1815 85.3431C99.236 85.9961 99.29 86.6491 99.3435 87.3021C99.4114 88.1288 99.4813 88.9553 99.5517 89.7819C99.6062 90.4248 99.6593 91.0678 99.7121 91.7109C99.7372 92.015 99.7628 92.319 99.7889 92.6229C99.8742 93.6203 99.9461 94.6176 100 95.6172C100.013 95.8509 100.013 95.8509 100.026 96.0894C100.049 96.5652 100.064 97.0406 100.077 97.5169C100.084 97.6615 100.091 97.806 100.099 97.955C100.109 98.7287 100.011 99.2142 99.5313 99.8076C98.7304 100.592 98.1362 100.532 97.0644 100.527C96.907 100.526 96.7497 100.526 96.5876 100.525C94.9508 100.512 93.3268 100.399 91.6961 100.264C91.3843 100.239 91.0725 100.214 90.7607 100.19C90.1153 100.138 89.47 100.085 88.8247 100.032C88.0002 99.9632 87.1753 99.8985 86.3504 99.8347C85.7099 99.7846 85.0695 99.7322 84.4292 99.6793C84.125 99.6544 83.8207 99.6304 83.5163 99.6071C83.0924 99.5745 82.669 99.5388 82.2454 99.5022C82.0053 99.4827 81.7653 99.4632 81.5179 99.4431C80.5678 99.2773 79.7121 98.9274 79.1015 98.1563C78.7786 97.1875 78.7365 96.3627 79.1748 95.4463C79.8902 94.5063 80.793 93.7013 81.6406 92.8828C80.8522 91.9325 80.0217 91.0506 79.1359 90.1912C78.8841 89.9438 78.6325 89.6964 78.3809 89.4488C77.9897 89.0648 77.5978 88.6814 77.2044 88.2996C76.8211 87.9269 76.4402 87.5517 76.0597 87.176C75.9425 87.0635 75.8253 86.951 75.7046 86.835C74.8719 86.0075 74.3668 85.2315 74.134 84.0572C74.1307 82.5103 74.9703 81.5188 76.0113 80.4619C76.1403 80.3341 76.2694 80.2063 76.4023 80.0746C76.5371 79.9392 76.6719 79.8038 76.8109 79.6643C77.0948 79.38 77.3795 79.0964 77.6648 78.8135C78.0999 78.3815 78.5318 77.9465 78.9634 77.5111C79.2407 77.2343 79.5182 76.9576 79.7958 76.6811C79.924 76.5517 80.0522 76.4223 80.1843 76.2889C81.3677 75.1235 82.6365 74.2541 84.3484 74.8443ZM82.4794 78.7185C82.2573 78.9406 82.0362 79.1639 81.8161 79.388C81.6996 79.505 81.5831 79.6221 81.4631 79.7427C81.09 80.1179 80.7183 80.4945 80.3467 80.8711C80.0945 81.1253 79.8422 81.3793 79.5898 81.6333C78.9703 82.2571 78.352 82.8822 77.7344 83.5078C78.0135 84.1453 78.3541 84.5649 78.8475 85.0529C78.9955 85.2002 79.1434 85.3474 79.2958 85.4992C79.5354 85.7348 79.5354 85.7348 79.7798 85.9752C79.9435 86.1379 80.1072 86.3006 80.2759 86.4682C80.7991 86.9879 81.3235 87.5062 81.8481 88.0244C82.3733 88.5442 82.8981 89.0642 83.4224 89.5848C83.7488 89.9088 84.0757 90.2323 84.4032 90.5552C84.5505 90.7012 84.6978 90.8472 84.8496 90.9977C84.9798 91.1263 85.11 91.255 85.2442 91.3875C85.6686 91.8411 85.74 92.088 85.8398 92.7119C85.72 93.6404 85.4047 93.9684 84.7694 94.6231C84.4494 94.9543 84.1552 95.2884 83.862 95.6427C83.6325 95.9201 83.6325 95.9201 83.3984 96.2031C84.9282 96.3311 86.4579 96.4585 87.9878 96.5851C88.6982 96.644 89.4087 96.703 90.1191 96.7625C90.8054 96.82 91.4918 96.8769 92.1783 96.9334C92.5659 96.9655 92.9535 96.9982 93.3411 97.0308C93.5795 97.0504 93.8179 97.0699 94.0636 97.0901C94.3765 97.1161 94.3765 97.1161 94.6958 97.1426C95.3584 97.1825 96.016 97.1859 96.6797 97.1797C96.5486 94.2642 96.3252 91.3597 96.0815 88.4517C96.0447 88.0075 96.008 87.5634 95.9713 87.1192C95.8825 86.0456 95.793 84.972 95.7031 83.8985C95.4828 84.0857 95.2627 84.2732 95.0427 84.4608C94.8588 84.6174 94.8588 84.6174 94.6712 84.7771C94.3215 85.0754 94.3215 85.0754 93.9651 85.448C93.5431 85.8778 93.1869 86.2046 92.5807 86.3091C91.0745 86.2181 90.3412 85.3738 89.344 84.3188C89.174 84.1457 89.004 83.9726 88.8289 83.7942C88.3802 83.3361 87.935 82.875 87.4914 82.4119C86.8632 81.7577 86.2289 81.1093 85.5949 80.4606C85.2581 80.1153 84.9227 79.7686 84.5887 79.4205C84.438 79.2647 84.2873 79.109 84.132 78.9485C83.9994 78.8103 83.8668 78.6721 83.7302 78.5297C83.1545 78.0173 83.0427 78.2025 82.4794 78.7185Z" fill="#222020"/>
<path id="Vector_6" d="M95.5893 0.473927C96.0652 0.450762 96.5406 0.435807 97.0169 0.423426C97.1614 0.416182 97.306 0.408938 97.455 0.401475C98.2287 0.391119 98.7142 0.488584 99.3075 0.96871C100.092 1.76964 100.032 2.36382 100.027 3.43565C100.026 3.593 100.026 3.75034 100.025 3.91245C100.012 5.54927 99.8986 7.17323 99.7643 8.80389C99.7393 9.11571 99.7145 9.42755 99.6896 9.73938C99.6379 10.3848 99.5851 11.0301 99.5315 11.6753C99.4632 12.4999 99.3985 13.3247 99.3346 14.1496C99.2845 14.7902 99.2322 15.4305 99.1792 16.0708C99.1544 16.3751 99.1304 16.6794 99.1071 16.9837C99.0745 17.4076 99.0387 17.8311 99.0022 18.2546C98.9827 18.4947 98.9632 18.7348 98.9431 18.9821C98.7772 19.9322 98.4274 20.788 97.6562 21.3985C96.6874 21.7214 95.8627 21.7635 94.9463 21.3253C94.0063 20.6098 93.2013 19.707 92.3828 18.8594C91.4325 19.6478 90.5506 20.4783 89.6912 21.3642C89.4438 21.6159 89.1964 21.8675 88.9488 22.1191C88.5648 22.5104 88.1814 22.9022 87.7995 23.2956C87.4268 23.679 87.0517 24.0598 86.676 24.4403C86.5635 24.5575 86.4509 24.6747 86.335 24.7955C85.5075 25.6282 84.7315 26.1332 83.5571 26.366C82.0103 26.3693 81.0188 25.5297 79.9619 24.4887C79.8341 24.3597 79.7063 24.2307 79.5746 24.0978C79.4392 23.9629 79.3038 23.8281 79.1643 23.6892C78.8799 23.4052 78.5963 23.1206 78.3134 22.8352C77.8815 22.4001 77.4465 21.9682 77.0111 21.5366C76.7342 21.2593 76.4575 20.9819 76.181 20.7042C76.0516 20.576 75.9222 20.4478 75.7889 20.3157C74.8901 19.4031 74.2816 18.6345 74.1333 17.3213C74.2119 15.6139 75.3665 14.4772 76.5289 13.348C76.6752 13.2028 76.8215 13.0576 76.9722 12.908C77.4361 12.4485 77.9025 11.9919 78.3691 11.5352C78.6857 11.2226 79.0021 10.9098 79.3182 10.5968C80.0903 9.83328 80.8646 9.07205 81.6406 8.31255C81.4538 8.09427 81.267 7.87603 81.0801 7.65781C80.9761 7.53627 80.872 7.41473 80.7648 7.28951C80.3087 6.75929 79.8435 6.2372 79.3785 5.71475C78.8709 5.10642 78.8521 4.61312 78.8635 3.82647C78.9465 3.05615 79.3157 2.60765 79.8828 2.11138C80.6217 1.64957 81.3263 1.61418 82.1789 1.54218C82.3124 1.53072 82.4459 1.51926 82.5835 1.50746C83.0262 1.4697 83.4691 1.43304 83.9119 1.39651C84.2223 1.37053 84.5327 1.34454 84.8431 1.31852C85.496 1.264 86.149 1.21008 86.8021 1.15652C87.6288 1.08861 88.4553 1.01874 89.2818 0.948315C89.9248 0.893853 90.5678 0.840742 91.2109 0.787974C91.5149 0.762823 91.8189 0.73722 92.1229 0.71111C93.2776 0.612339 94.4323 0.537955 95.5893 0.473927ZM94.0636 3.91001C93.8252 3.92956 93.5868 3.94911 93.3411 3.96926C93.0876 3.99062 92.834 4.01198 92.5728 4.03399C92.3076 4.05593 92.0425 4.07783 91.7773 4.09967C91.0834 4.15698 90.3896 4.21495 89.6957 4.27306C88.9861 4.33238 88.2764 4.39106 87.5668 4.44979C86.1773 4.56488 84.7878 4.68068 83.3984 4.79693C83.5859 5.01675 83.7735 5.23643 83.9612 5.45606C84.0657 5.57841 84.1701 5.70076 84.2778 5.82682C84.493 6.07495 84.7152 6.31705 84.9411 6.5555C85.4401 7.08222 85.7167 7.40651 85.8643 8.12945C85.5559 9.5789 84.3181 10.5693 83.3038 11.5703C83.1445 11.729 82.9852 11.8878 82.8211 12.0513C82.3146 12.5557 81.8067 13.0586 81.2988 13.5616C80.9541 13.9043 80.6095 14.2471 80.265 14.59C79.4225 15.4283 78.5789 16.2654 77.7344 17.1016C78.0971 17.8889 78.6186 18.4264 79.2313 19.0273C79.393 19.1882 79.393 19.1882 79.558 19.3523C79.9014 19.6935 80.2461 20.0333 80.5908 20.3731C80.8244 20.6047 81.0578 20.8364 81.2912 21.0681C81.8624 21.635 82.4348 22.2007 83.0078 22.7657C83.6448 22.4879 84.0521 22.153 84.5312 21.6525C84.674 21.5046 84.8169 21.3566 84.9641 21.2042C85.1169 21.0445 85.2697 20.8848 85.4271 20.7202C85.7546 20.384 86.0823 20.0479 86.4101 19.712C86.9254 19.1822 87.4394 18.6514 87.9503 18.1174C88.4444 17.602 88.9433 17.0918 89.4432 16.5821C89.594 16.4219 89.7448 16.2618 89.9002 16.0969C90.7607 15.2283 91.3581 14.7744 92.6003 14.7193C93.1513 14.777 93.4095 14.9703 93.7866 15.3682C93.9022 15.4855 94.0177 15.6029 94.1368 15.7237C94.267 15.8562 94.3971 15.9886 94.5312 16.1251C94.7331 16.2981 94.9368 16.4692 95.1418 16.6384C95.4197 16.8677 95.4197 16.8677 95.7031 17.1016C95.8311 15.5719 95.9585 14.0421 96.0851 12.5123C96.1439 11.8018 96.203 11.0913 96.2625 10.3809C96.3199 9.69459 96.3769 9.0082 96.4334 8.32178C96.4655 7.93414 96.4981 7.54654 96.5308 7.15894C96.5503 6.92051 96.5699 6.68209 96.59 6.43644C96.6161 6.12351 96.6161 6.12351 96.6426 5.80427C96.6824 5.1416 96.6858 4.48407 96.6797 3.82037C95.8015 3.81224 94.9387 3.83724 94.0636 3.91001Z" fill="#222020"/>
<path id="Vector_7" d="M17.5782 74.7187C18.7202 75.2698 19.536 76.002 20.4255 76.8954C20.6286 77.097 20.6286 77.097 20.8358 77.3026C21.1201 77.5857 21.4037 77.8696 21.6866 78.1541C22.1182 78.5874 22.5534 79.0169 22.9889 79.4463C23.2659 79.7229 23.5426 79.9997 23.819 80.2768C24.0131 80.4676 24.0131 80.4676 24.2111 80.6622C25.1502 81.6156 25.6937 82.4292 25.8668 83.7886C25.6611 85.4633 24.641 86.5156 23.4711 87.6521C23.3248 87.7973 23.1785 87.9425 23.0278 88.0921C22.564 88.5515 22.0975 89.0082 21.6309 89.4648C21.3144 89.7775 20.998 90.0903 20.6818 90.4033C19.9097 91.1668 19.1355 91.928 18.3594 92.6875C18.5462 92.9058 18.7331 93.124 18.92 93.3422C19.024 93.4638 19.128 93.5853 19.2352 93.7105C19.6914 94.2408 20.1566 94.7628 20.6215 95.2853C21.1292 95.8936 21.1479 96.3869 21.1365 97.1736C21.0536 97.9439 20.6844 98.3924 20.1172 98.8887C19.3783 99.3505 18.6737 99.3859 17.8211 99.4579C17.6876 99.4693 17.5541 99.4808 17.4166 99.4926C16.9738 99.5304 16.531 99.567 16.0882 99.6035C15.7778 99.6295 15.4673 99.6555 15.1569 99.6815C14.504 99.7361 13.851 99.79 13.198 99.8435C12.3713 99.9114 11.5447 99.9813 10.7182 100.052C10.0753 100.106 9.43224 100.159 8.78917 100.212C8.48512 100.237 8.18112 100.263 7.87715 100.289C6.87973 100.374 5.8825 100.446 4.88287 100.5C4.64915 100.513 4.64915 100.513 4.41071 100.526C3.93486 100.549 3.45944 100.564 2.9832 100.577C2.83862 100.584 2.69404 100.591 2.54508 100.599C1.77137 100.609 1.28587 100.511 0.692515 100.031C-0.0914533 99.2304 -0.0322035 98.6362 -0.0268864 97.5644C-0.0263856 97.4071 -0.0258854 97.2497 -0.0253695 97.0876C-0.0115621 95.4508 0.101464 93.8268 0.235803 92.1962C0.260726 91.8843 0.285594 91.5725 0.310413 91.2607C0.362144 90.6153 0.414976 89.97 0.468547 89.3247C0.536849 88.5002 0.601575 87.6754 0.665426 86.8504C0.715522 86.2099 0.767849 85.5695 0.820812 84.9292C0.845642 84.625 0.869701 84.3207 0.892952 84.0163C0.925591 83.5925 0.961328 83.169 0.997837 82.7454C1.01735 82.5054 1.03687 82.2653 1.05698 82.0179C1.22282 81.0678 1.57264 80.2121 2.3438 79.6016C3.31262 79.2786 4.13733 79.2365 5.05377 79.6748C5.99378 80.3903 6.79879 81.2931 7.61724 82.1406C8.56754 81.3522 9.44945 80.5217 10.3089 79.6359C10.5563 79.3842 10.8037 79.1325 11.0512 78.881C11.4353 78.4897 11.8186 78.0978 12.2005 77.7045C12.5732 77.3211 12.9484 76.9402 13.324 76.5597C13.4929 76.3839 13.4929 76.3839 13.6651 76.2046C14.7789 75.0837 15.9709 74.4745 17.5782 74.7187ZM16.2707 78.5209C16.0726 78.7221 16.0726 78.7221 15.8704 78.9274C15.6455 79.1543 15.6455 79.1543 15.416 79.3857C15.2539 79.5511 15.0917 79.7165 14.9247 79.8869C14.758 80.055 14.5913 80.2232 14.4196 80.3964C13.7037 81.1187 12.9901 81.8433 12.2763 82.5677C11.7561 83.095 11.2347 83.6211 10.7133 84.1472C10.4712 84.3941 10.4712 84.3941 10.2243 84.6459C10.0731 84.7984 9.92192 84.9509 9.76616 85.108C9.63375 85.2424 9.50135 85.3769 9.36493 85.5154C8.82512 85.9923 8.3692 86.2082 7.66607 86.352C6.84139 86.2093 6.47794 85.8375 5.88384 85.2694C5.5495 84.9517 5.21177 84.6558 4.85693 84.3621C4.67213 84.2091 4.48733 84.0561 4.29693 83.8984C4.16894 85.4282 4.04156 86.958 3.91495 88.4878C3.85613 89.1983 3.7971 89.9087 3.7376 90.6191C3.68012 91.3055 3.62319 91.9918 3.56664 92.6783C3.53456 93.0659 3.50191 93.4535 3.46926 93.8411C3.44971 94.0795 3.43016 94.318 3.41001 94.5636C3.39266 94.7722 3.37532 94.9808 3.35744 95.1958C3.31761 95.8584 3.31423 96.516 3.32037 97.1797C6.27366 97.0558 9.2135 96.8348 12.1583 96.5815C12.5921 96.5447 13.026 96.508 13.4598 96.4713C14.5072 96.3826 15.5544 96.2932 16.6016 96.2031C16.4144 95.9828 16.2269 95.7627 16.0393 95.5427C15.9349 95.4201 15.8305 95.2975 15.723 95.1712C15.4246 94.8215 15.4246 94.8215 15.0521 94.4651C14.6225 94.0434 14.2956 93.6871 14.191 93.0812C14.2821 91.5739 15.129 90.8325 16.1812 89.8303C16.3544 89.6594 16.5275 89.4885 16.7059 89.3124C17.1639 88.8615 17.6251 88.4143 18.0882 87.9687C18.561 87.5119 19.0293 87.0506 19.4981 86.5897C20.4166 85.6884 21.3394 84.7917 22.2657 83.8984C21.9042 83.1158 21.3887 82.5743 20.7825 81.9728C20.6756 81.8655 20.5687 81.7582 20.4586 81.6477C20.2332 81.422 20.0073 81.1968 19.7809 80.9721C19.4335 80.6268 19.0883 80.2795 18.7432 79.9319C18.5238 79.7128 18.3044 79.4939 18.0848 79.275C17.9812 79.1707 17.8776 79.0663 17.7709 78.9588C17.0872 78.1803 17.0872 78.1803 16.2707 78.5209Z" fill="#222020"/>
<path id="Vector_8" d="M2.93565 0.473114C3.17167 0.473865 3.17167 0.473865 3.41245 0.474631C5.04927 0.488438 6.67323 0.601464 8.30389 0.735803C8.61571 0.760726 8.92755 0.785594 9.23938 0.810413C9.88477 0.862144 10.5301 0.914976 11.1753 0.968547C11.9999 1.03685 12.8247 1.10157 13.6496 1.16543C14.2902 1.21552 14.9305 1.26785 15.5708 1.32081C15.8751 1.34564 16.1794 1.3697 16.4837 1.39295C16.9076 1.42559 17.3311 1.46133 17.7546 1.49784C17.9947 1.51735 18.2348 1.53687 18.4821 1.55698C19.4322 1.72282 20.288 2.07264 20.8985 2.8438C21.2214 3.81262 21.2635 4.63733 20.8252 5.55377C20.1098 6.49378 19.207 7.29879 18.3594 8.11724C19.1478 9.06754 19.9783 9.94945 20.8642 10.8089C21.1159 11.0563 21.3675 11.3037 21.6191 11.5512C22.0104 11.9353 22.4022 12.3186 22.7956 12.7005C23.179 13.0732 23.5598 13.4484 23.9403 13.824C24.1161 13.9929 24.1161 13.9929 24.2955 14.1651C25.208 15.0719 25.7141 15.8882 25.8545 17.1993C25.6822 18.808 24.8812 19.6793 23.7694 20.7729C23.63 20.9126 23.4905 21.0524 23.3468 21.1963C23.0528 21.4901 22.7577 21.7829 22.4618 22.0747C22.0104 22.5205 21.5628 22.9697 21.1155 23.4195C20.8285 23.7053 20.5413 23.9909 20.2538 24.2763C20.1207 24.41 19.9876 24.5436 19.8505 24.6814C18.9242 25.5896 18.152 26.2165 16.8213 26.3668C15.1139 26.2882 13.9772 25.1335 12.848 23.9711C12.7028 23.8248 12.5576 23.6785 12.408 23.5278C11.9485 23.064 11.4919 22.5975 11.0352 22.1309C10.7226 21.8144 10.4098 21.498 10.0968 21.1818C9.33328 20.4097 8.57205 19.6355 7.81255 18.8594C7.59427 19.0462 7.37603 19.2331 7.15781 19.42C7.03627 19.524 6.91473 19.628 6.78951 19.7352C6.25929 20.1914 5.7372 20.6566 5.21475 21.1215C4.60642 21.6292 4.11312 21.6479 3.32647 21.6365C2.55615 21.5536 2.10765 21.1844 1.61138 20.6172C1.14957 19.8783 1.11418 19.1737 1.04218 18.3211C1.03072 18.1876 1.01926 18.0541 1.00746 17.9166C0.969696 17.4738 0.93304 17.031 0.896508 16.5882C0.870535 16.2778 0.84454 15.9673 0.818524 15.6569C0.763999 15.004 0.710079 14.351 0.656515 13.698C0.58861 12.8713 0.518739 12.0447 0.448315 11.2182C0.393853 10.5753 0.340742 9.93224 0.287974 9.28917C0.262823 8.98512 0.23722 8.68112 0.21111 8.37715C0.125792 7.37973 0.0539566 6.3825 5.37261e-05 5.38287C-0.00856817 5.22706 -0.0171901 5.07125 -0.0260732 4.91071C-0.0492384 4.43486 -0.0641925 3.95944 -0.076574 3.4832C-0.0838179 3.33862 -0.0910617 3.19404 -0.0985251 3.04508C-0.108881 2.27137 -0.0114155 1.78587 0.46871 1.19251C1.26964 0.408547 1.86382 0.467796 2.93565 0.473114ZM3.32037 3.82037C3.45143 6.73587 3.67487 9.64037 3.91851 12.5484C3.95531 12.9925 3.99206 13.4367 4.02876 13.8809C4.11757 14.9545 4.207 16.0281 4.29693 17.1016C4.51675 16.9142 4.73643 16.7265 4.95606 16.5389C5.07841 16.4344 5.20076 16.3299 5.32682 16.2223C5.57495 16.0071 5.81705 15.7849 6.0555 15.559C6.58222 15.06 6.90651 14.7833 7.62945 14.6358C9.0789 14.9442 10.0693 16.1819 11.0703 17.1962C11.3084 17.4352 11.3084 17.4352 11.5513 17.6789C12.0557 18.1855 12.5586 18.6933 13.0616 19.2012C13.4043 19.5459 13.7471 19.8905 14.09 20.235C14.9283 21.0775 15.7654 21.9212 16.6016 22.7657C17.3889 22.4029 17.9264 21.8815 18.5273 21.2688C18.6345 21.161 18.7418 21.0531 18.8523 20.942C19.1935 20.5987 19.5333 20.254 19.8731 19.9092C20.1047 19.6757 20.3364 19.4422 20.5681 19.2089C21.135 18.6377 21.7007 18.0653 22.2657 17.4922C21.9898 16.8651 21.6607 16.4506 21.1735 15.9713C21.0301 15.8292 20.8867 15.6871 20.739 15.5407C20.5842 15.3891 20.4294 15.2375 20.2698 15.0814C20.1109 14.9239 19.952 14.7665 19.7882 14.6043C19.2803 14.1011 18.7712 13.5993 18.2618 13.0977C17.5913 12.4376 16.9221 11.7763 16.2537 11.1141C16.0989 10.9625 15.9441 10.8109 15.7845 10.6547C15.6411 10.5126 15.4978 10.3705 15.35 10.2241C15.2237 10.0998 15.0973 9.97552 14.9672 9.84747C14.5008 9.31621 14.2892 8.85624 14.148 8.16607C14.2907 7.34139 14.6625 6.97794 15.2306 6.38384C15.5484 6.0495 15.8442 5.71177 16.138 5.35693C16.291 5.17213 16.444 4.98733 16.6016 4.79693C15.0719 4.66894 13.5421 4.54156 12.0123 4.41495C11.3018 4.35613 10.5913 4.2971 9.88093 4.2376C9.19459 4.18012 8.5082 4.12319 7.82178 4.06664C7.43414 4.03456 7.04654 4.00191 6.65894 3.96926C6.42051 3.94971 6.18209 3.93016 5.93644 3.91001C5.72782 3.89266 5.51921 3.87532 5.30427 3.85744C4.6416 3.81761 3.98407 3.81423 3.32037 3.82037Z" fill="#222020"/>
</g>
<defs>
<clipPath id="clip0_2870_581">
<rect width="100" height="100" fill="white" transform="translate(0 0.5)"/>
</clipPath>
</defs>
</svg>
