<svg width="100" height="101" viewBox="0 0 100 101" fill="none" xmlns="http://www.w3.org/2000/svg">
<g id="Icon" clip-path="url(#clip0_2870_607)">
<path id="Vector" d="M8.5609 5.85819C8.91093 5.85637 8.91093 5.85637 9.26803 5.85452C9.75799 5.85314 10.2479 5.85374 10.7379 5.85623C11.4881 5.85895 12.2377 5.85226 12.9879 5.84483C13.4653 5.84465 13.9428 5.84501 14.4203 5.84598C14.756 5.84209 14.756 5.84209 15.0985 5.83813C16.8216 5.85834 16.8216 5.85834 17.4255 6.43425C17.8014 6.98646 17.9058 7.26027 17.8955 7.92194C17.8992 8.16364 17.8992 8.16364 17.9031 8.41022C17.7072 9.14771 17.4018 9.40996 16.7968 9.87506C16.1285 10.0171 15.4723 10.0067 14.7911 9.99942C14.4996 10.0025 14.4996 10.0025 14.2022 10.0056C13.5818 10.0114 12.9617 10.0107 12.3413 10.0093C11.723 10.0111 11.1048 10.0142 10.4866 10.0194C10.1025 10.0223 9.71836 10.0231 9.33424 10.0214C7.74518 10.0279 6.34077 10.1804 5.07808 11.2422C4.2262 12.3609 4.0778 13.5201 4.0754 14.8905C4.07457 15.1068 4.07374 15.323 4.07288 15.5459C4.07301 15.8975 4.07301 15.8975 4.07315 16.2562C4.07249 16.5053 4.07183 16.7544 4.07116 17.0111C4.06944 17.6923 4.06897 18.3735 4.06885 19.0547C4.06871 19.4808 4.06829 19.907 4.06778 20.3332C4.06597 21.8218 4.06517 23.3103 4.06533 24.7988C4.06544 26.1836 4.06338 27.5684 4.0603 28.9532C4.05774 30.1446 4.0567 31.3359 4.05682 32.5272C4.05687 33.2377 4.05632 33.9481 4.05425 34.6586C4.05199 35.4515 4.0529 36.2443 4.05407 37.0371C4.05243 37.3876 4.05243 37.3876 4.05075 37.7451C4.05715 39.4445 4.13225 40.9399 5.27339 42.2969C6.4469 43.1906 7.66391 43.2929 9.09563 43.318C9.35051 43.3228 9.60538 43.3276 9.86798 43.3325C10.1481 43.3368 10.4282 43.3411 10.7083 43.3453C11.0052 43.3503 11.3021 43.3554 11.5989 43.3606C14.3042 43.4056 17.0097 43.4311 19.7153 43.4515C21.5324 43.4654 23.349 43.4853 25.1658 43.52C26.7538 43.5503 28.3414 43.5695 29.9296 43.5755C30.7692 43.579 31.6079 43.5878 32.4472 43.6099C35.7214 43.8448 35.7214 43.8448 38.7595 42.9734C39.4864 42.2657 39.8789 41.481 40.2429 40.5458C40.5679 39.8543 41.0855 39.3364 41.6137 38.7935C41.7174 38.685 41.821 38.5765 41.9278 38.4647C44.1566 36.1461 46.6201 34.4719 49.414 32.9219C48.4376 30.8004 47.4103 28.7207 46.289 26.6719C45.786 27.2906 45.4581 27.9257 45.1248 28.6487C44.9624 28.9952 44.9624 28.9952 44.7967 29.3487C44.627 29.713 44.458 30.0776 44.2903 30.4428C44.1268 30.7978 43.9605 31.1515 43.7942 31.5052C43.6967 31.716 43.5991 31.9268 43.4987 32.1441C43.0729 32.8853 42.5957 33.5825 41.7488 33.8329C41.6075 33.8304 41.4663 33.8279 41.3208 33.8253C41.18 33.8278 41.0393 33.8303 40.8943 33.8329C40.0126 33.5868 39.4665 33.0622 38.9946 32.3035C38.726 31.7913 38.4769 31.2732 38.2324 30.7491C38.0458 30.3624 37.8589 29.9758 37.6716 29.5894C37.5316 29.2982 37.5316 29.2982 37.3887 29.0012C36.9684 28.1415 36.5214 27.2968 36.0717 26.4522C35.9122 26.1493 35.7528 25.8465 35.5934 25.5435C35.3245 25.034 35.0516 24.5271 34.774 24.0222C34.174 22.8997 33.7598 22.0922 33.9843 20.8126C34.3347 20.2637 34.5739 19.9318 35.1562 19.6407C35.5377 19.5735 35.5377 19.5735 35.9863 19.543C36.2053 19.5219 36.2053 19.5219 36.4288 19.5003C37.4604 19.7987 37.9497 20.7695 38.4536 21.6513C38.8581 22.4021 39.2414 23.1633 39.624 23.9254C39.7596 24.1921 39.8954 24.4587 40.0314 24.7253C40.3614 25.3732 40.6891 26.0222 41.0156 26.6719C41.5186 26.0532 41.8465 25.4182 42.1798 24.6952C42.3422 24.3487 42.3422 24.3487 42.5079 23.9952C42.6776 23.6309 42.8466 23.2663 43.0143 22.9011C43.1778 22.5461 43.3441 22.1924 43.5104 21.8387C43.6079 21.6279 43.7055 21.417 43.8059 21.1998C44.1714 20.5636 44.5668 20.1236 45.1171 19.6407C45.5696 19.5316 45.5696 19.5316 46.0083 19.5552C46.2262 19.5617 46.2262 19.5617 46.4485 19.5682C46.9369 19.6512 47.2354 19.7672 47.6562 20.0313C47.9415 20.4539 47.9415 20.4539 48.204 20.9766C48.3019 21.1683 48.3999 21.36 48.5008 21.5576C48.6007 21.7589 48.7007 21.9602 48.8037 22.1675C49.0023 22.5601 49.2012 22.9525 49.4003 23.3448C49.4979 23.5383 49.5955 23.7319 49.6961 23.9314C50.1699 24.8548 50.6692 25.7639 51.1718 26.6719C51.6748 26.0532 52.0028 25.4182 52.3361 24.6952C52.4443 24.4642 52.5526 24.2332 52.6641 23.9952C52.8338 23.6309 53.0028 23.2663 53.1705 22.9011C53.334 22.5461 53.5003 22.1924 53.6666 21.8387C53.7642 21.6279 53.8617 21.417 53.9622 21.1998C54.4052 20.4287 54.8802 19.7506 55.7617 19.5041C57.0126 19.51 57.0126 19.51 57.5698 19.8505C58.0663 20.3682 58.2024 20.8067 58.2847 21.5076C58.2556 22.6026 57.7538 23.4804 57.2631 24.438C57.0672 24.8332 56.8714 25.2284 56.6757 25.6237C56.5739 25.8266 56.4721 26.0296 56.3673 26.2388C55.8472 27.2843 55.3476 28.3396 54.8461 29.3941C54.6644 29.7743 54.4826 30.1546 54.3006 30.5347C54.2243 30.6943 54.148 30.8539 54.0693 31.0184C54.0155 31.1309 53.9617 31.2435 53.9062 31.3594C54.0454 31.3194 54.1847 31.2794 54.3281 31.2381C54.5152 31.1855 54.7022 31.1329 54.895 31.0787C55.0785 31.0266 55.2621 30.9744 55.4512 30.9207C56.624 30.6346 57.762 30.5501 58.9653 30.5591C59.1064 30.5594 59.2475 30.5597 59.3929 30.5599C59.8386 30.561 60.2843 30.5635 60.7299 30.566C61.0342 30.567 61.3385 30.5679 61.6428 30.5686C62.3843 30.5708 63.1257 30.5742 63.8671 30.5782C63.7552 30.3631 63.7552 30.3631 63.6409 30.1437C62.978 28.8697 62.317 27.5947 61.6582 26.3185C61.3105 25.6458 60.959 24.9753 60.6033 24.3068C60.4623 24.0373 60.3214 23.7677 60.1806 23.4981C60.0603 23.2715 59.9399 23.0449 59.8159 22.8115C59.5364 22.0927 59.4969 21.5775 59.5703 20.8126C59.921 20.2748 60.1665 19.9285 60.7421 19.6407C61.1305 19.5873 61.1305 19.5873 61.5844 19.5674C61.7327 19.5579 61.881 19.5483 62.0338 19.5385C62.7534 19.6963 63.0103 20.0526 63.4765 20.6172C63.8309 21.1954 64.1372 21.7934 64.4409 22.3995C64.6109 22.7314 64.781 23.0633 64.9513 23.3951C65.0328 23.555 65.1142 23.7149 65.1982 23.8797C65.5852 24.6297 65.9988 25.3641 66.4138 26.099C66.6015 26.4766 66.6015 26.4766 66.6015 26.8672C66.7304 26.8672 66.8593 26.8672 66.9921 26.8672C67.0715 26.6156 67.0715 26.6156 67.1525 26.3588C67.5074 25.3363 67.9776 24.3728 68.4434 23.3968C68.6154 23.0349 68.7839 22.6715 68.9525 22.3079C69.117 21.9627 69.117 21.9627 69.2848 21.6106C69.3836 21.4012 69.4823 21.1918 69.5841 20.9761C70.0226 20.2566 70.5098 19.7372 71.3439 19.5301C71.5585 19.5304 71.5585 19.5304 71.7773 19.5308C71.9203 19.5265 72.0633 19.5223 72.2106 19.5179C73.0744 19.756 73.4794 20.3587 73.9171 21.0965C74.2271 21.6727 74.524 22.2539 74.8168 22.8389C75.0183 23.2353 75.22 23.6315 75.4219 24.0276C75.5163 24.2141 75.6108 24.4006 75.7081 24.5927C75.9405 25.0402 76.1839 25.4761 76.4396 25.9105C76.7578 26.4766 76.7578 26.4766 76.7578 26.8672C76.8867 26.8672 77.0156 26.8672 77.1484 26.8672C77.2278 26.6156 77.2278 26.6156 77.3088 26.3588C77.6636 25.3363 78.1338 24.3728 78.5996 23.3968C78.7716 23.0349 78.9402 22.6715 79.1088 22.3079C79.2732 21.9627 79.2732 21.9627 79.441 21.6106C79.5398 21.4012 79.6386 21.1918 79.7403 20.9761C80.1789 20.2566 80.6661 19.7372 81.5002 19.5301C82.3145 19.5315 82.7096 19.57 83.3984 20.0435C83.8734 20.7412 83.9473 21.142 83.9843 21.9844C83.797 22.553 83.5984 23.0382 83.3374 23.5714C83.2249 23.81 83.2249 23.81 83.1102 24.0535C82.9303 24.433 82.7484 24.8117 82.5653 25.1896C82.235 25.873 81.9097 26.5586 81.5852 27.2447C81.2736 27.9023 80.9597 28.5589 80.6452 29.2151C80.4871 29.5455 80.3295 29.8762 80.1725 30.2071C79.9485 30.6779 79.7218 31.1474 79.4944 31.6165C79.4271 31.7592 79.3598 31.9019 79.2905 32.0489C78.9363 32.7723 78.6455 33.3058 77.9296 33.7032C77.5032 33.7879 77.5032 33.7879 77.0629 33.7886C76.9182 33.7924 76.7734 33.7962 76.6243 33.8001C75.8937 33.6436 75.397 33.2227 74.9809 32.6023C74.7667 32.2185 74.5681 31.8299 74.3736 31.4357C74.3013 31.2938 74.229 31.1518 74.1544 31.0056C73.9255 30.5549 73.6998 30.1027 73.4741 29.6505C73.3188 29.3434 73.1633 29.0364 73.0075 28.7296C72.6276 27.9798 72.2505 27.2286 71.875 26.4766C71.769 26.6889 71.663 26.9012 71.5538 27.1199C71.4126 27.4024 71.2715 27.6849 71.1303 27.9674C71.0607 28.1068 70.9911 28.2463 70.9194 28.3899C70.45 29.3292 69.9755 30.2658 69.4946 31.1992C69.3094 31.5493 69.3094 31.5493 69.3359 31.9454C69.532 32.0259 69.7281 32.1065 69.9302 32.1895C74.7766 34.219 80.019 37.7766 82.3182 42.7185C82.8717 43.34 82.9524 43.3593 83.7369 43.4127C84.1195 43.4152 84.5021 43.4111 84.8846 43.4017C85.1895 43.4006 85.1895 43.4006 85.5006 43.3995C85.9307 43.3968 86.3609 43.3914 86.791 43.3834C87.446 43.3713 88.1006 43.3674 88.7558 43.3651C89.1744 43.3615 89.593 43.3574 90.0116 43.3528C90.2061 43.3512 90.4007 43.3495 90.6011 43.3478C92.2072 43.3152 93.6451 43.1752 94.9218 42.1016C95.7737 40.983 95.9221 39.8237 95.9245 38.4534C95.9253 38.2371 95.9262 38.0208 95.927 37.798C95.9269 37.4464 95.9269 37.4464 95.9268 37.0877C95.9274 36.8386 95.9281 36.5894 95.9287 36.3328C95.9305 35.6516 95.9309 34.9704 95.9311 34.2892C95.9312 33.863 95.9316 33.4368 95.9321 33.0107C95.9339 31.5221 95.9347 30.0336 95.9346 28.545C95.9345 27.1602 95.9365 25.7754 95.9396 24.3906C95.9422 23.1993 95.9432 22.008 95.9431 20.8167C95.943 20.1062 95.9436 19.3957 95.9457 18.6853C95.9479 17.8924 95.947 17.0996 95.9458 16.3067C95.9469 16.0731 95.948 15.8395 95.9492 15.5988C95.9428 13.8993 95.8677 12.404 94.7265 11.0469C93.6163 10.2014 92.4645 10.0459 91.1035 10.046C90.8915 10.0456 90.6795 10.0451 90.4612 10.0446C90.115 10.0453 90.115 10.0453 89.7619 10.046C89.5152 10.0458 89.2684 10.0455 89.0142 10.0452C88.4732 10.0446 87.9322 10.0446 87.3912 10.0451C86.5109 10.0459 85.6306 10.0454 84.7503 10.0447C83.6379 10.0439 82.5256 10.0434 81.4132 10.0434C79.2282 10.0434 77.0432 10.0409 74.8582 10.0376C74.5141 10.0371 74.1701 10.0366 73.826 10.0361C73.3046 10.0353 72.7832 10.0346 72.2619 10.0338C70.2971 10.0309 68.3324 10.0282 66.3677 10.0258C66.1882 10.0256 66.0086 10.0254 65.8236 10.0252C62.9112 10.0217 59.9989 10.0212 57.0865 10.0215C54.0965 10.0218 51.1066 10.0183 48.1167 10.0115C46.2722 10.0075 44.4278 10.0065 42.5834 10.0093C41.3201 10.0109 40.0569 10.009 38.7937 10.0043C38.0645 10.0017 37.3354 10.0007 36.6063 10.004C35.8163 10.0074 35.0266 10.0034 34.2366 9.9986C34.0054 10.0008 33.7743 10.003 33.5361 10.0053C31.8113 9.98489 31.8113 9.98489 31.2057 9.40958C30.8316 8.85752 30.7269 8.58263 30.7373 7.92194C30.7347 7.7608 30.7322 7.59967 30.7296 7.43366C30.8723 6.8966 31.0687 6.56087 31.4726 6.17731C32.3095 5.69699 33.3595 5.83621 34.2955 5.8448C34.5483 5.84328 34.8011 5.84176 35.0616 5.84019C35.763 5.83611 36.4643 5.83813 37.1658 5.84115C37.9225 5.84336 38.6791 5.83995 39.4358 5.83726C40.9183 5.83292 42.4009 5.83386 43.8834 5.83669C45.089 5.8389 46.2946 5.8392 47.5002 5.83813C47.7575 5.83791 47.7575 5.83791 48.0201 5.83768C48.3686 5.83737 48.7171 5.83705 49.0657 5.83673C52.3359 5.83394 55.606 5.83715 58.8761 5.84239C61.6795 5.84675 64.4828 5.846 67.2861 5.8415C70.5424 5.83626 73.7987 5.83422 77.055 5.83721C77.4027 5.83752 77.7504 5.83783 78.0981 5.83813C78.3546 5.83836 78.3546 5.83836 78.6164 5.83859C79.8193 5.83943 81.0221 5.83801 82.2249 5.83571C83.6927 5.83296 85.1605 5.83373 86.6284 5.83891C87.3767 5.84147 88.125 5.8425 88.8733 5.83926C89.6863 5.83578 90.4991 5.83995 91.3121 5.8448C91.5463 5.84263 91.7804 5.84045 92.0217 5.8382C94.3442 5.86504 96.3821 6.66767 98.0468 8.31256C99.7159 10.3177 100.117 12.3406 100.104 14.8974C100.106 15.1825 100.107 15.4676 100.109 15.7528C100.114 16.5219 100.113 17.291 100.111 18.0602C100.11 18.7048 100.112 19.3493 100.113 19.9938C100.116 21.5155 100.116 23.0373 100.113 24.5591C100.109 26.1236 100.112 27.6881 100.119 29.2527C100.124 30.601 100.125 31.9492 100.124 33.2975C100.123 34.1005 100.123 34.9035 100.127 35.7066C100.131 36.4624 100.129 37.218 100.125 37.9738C100.124 38.2493 100.124 38.5249 100.127 38.8004C100.147 41.2079 99.5993 43.1703 98.0354 45.0382C96.6845 46.4054 94.7988 47.3931 92.8629 47.4638C92.4765 47.4636 92.0901 47.4593 91.7038 47.4514C91.3958 47.4497 91.3958 47.4497 91.0816 47.448C90.4328 47.4437 89.7843 47.4339 89.1357 47.4239C88.6929 47.42 88.2502 47.4164 87.8074 47.4132C86.7283 47.4046 85.6493 47.3916 84.5703 47.3751C84.6362 47.5735 84.7022 47.7719 84.7702 47.9763C85.6411 50.6419 86.0139 53.1093 85.9985 55.92C85.9981 56.0582 85.9977 56.1965 85.9972 56.3389C85.9874 58.3539 85.9172 60.2676 85.3515 62.2188C85.3127 62.3558 85.2739 62.4929 85.2339 62.634C83.8752 67.3384 81.1441 72.706 76.9531 75.5001C77.2132 76.0772 77.4971 76.4835 77.9442 76.9301C78.0674 77.0541 78.1906 77.1781 78.3176 77.306C78.4525 77.4398 78.5875 77.5737 78.7265 77.7116C78.94 77.9256 78.94 77.9256 79.1578 78.1439C79.6284 78.6153 80.1004 79.0852 80.5725 79.5551C80.8995 79.8819 81.2264 80.2087 81.5532 80.5356C82.2383 81.2203 82.924 81.9044 83.6102 82.588C84.4913 83.4658 85.3712 84.3449 86.2505 85.2244C86.9254 85.8992 87.6007 86.5735 88.2762 87.2476C88.6009 87.5716 88.9255 87.8958 89.25 88.2201C89.7026 88.6724 90.1559 89.1239 90.6093 89.5753C90.7443 89.7103 90.8792 89.8454 91.0183 89.9845C91.1415 90.1069 91.2647 90.2293 91.3917 90.3554C91.4988 90.4622 91.606 90.5691 91.7164 90.6791C92.3504 91.2554 93.0182 91.2 93.8377 91.1953C94.6403 91.0822 94.9635 90.7346 95.5078 90.1485C95.7363 89.6914 95.7692 89.3644 95.8007 88.8546C95.8148 88.6949 95.8289 88.5353 95.8435 88.3708C95.3635 86.4355 92.6904 84.6005 91.2846 83.2392C90.9297 82.8949 90.5773 82.5482 90.2252 82.201C90.0631 82.0459 90.0631 82.0459 89.8978 81.8876C89.1857 81.1804 88.7905 80.5603 88.4765 79.6016C88.589 78.8644 88.7717 78.3834 89.1723 77.7584C89.924 77.2765 90.5438 77.2696 91.4062 77.4532C91.7343 77.6637 91.7343 77.6637 92.06 77.9644C92.1946 78.0884 92.3291 78.2124 92.4677 78.3401C92.6331 78.4986 92.7984 78.6571 92.9687 78.8204C93.0725 78.9195 93.1762 79.0186 93.2831 79.1207C94.0413 79.8466 94.7908 80.5808 95.5363 81.3196C95.8021 81.5822 96.069 81.8437 96.3368 82.1041C99.9863 85.6532 99.9862 85.6532 100.057 88.2824C100.071 89.7753 99.9689 90.9669 99.2187 92.2969C99.1502 92.4226 99.0817 92.5482 99.0112 92.6776C98.3836 93.6822 97.504 94.2637 96.4843 94.836C96.3106 94.9365 96.3106 94.9365 96.1334 95.0389C94.6022 95.7639 92.3211 95.6841 90.747 95.1412C88.5258 94.0218 86.7611 91.7657 85.0373 90.0144C84.2364 89.2015 83.4324 88.3916 82.629 87.5812C81.6107 86.5535 80.5933 85.525 79.5789 84.4935C78.7547 83.6557 77.9278 82.8207 77.0989 81.9876C76.7841 81.6701 76.4703 81.3516 76.1577 81.032C75.7225 80.5874 75.2838 80.1466 74.8441 79.7064C74.7155 79.5733 74.5869 79.4403 74.4545 79.3031C73.7963 78.6051 73.7963 78.6051 72.9026 78.4299C72.684 78.5265 72.684 78.5265 72.4609 78.6251C72.2424 78.7187 72.0238 78.8124 71.7987 78.9089C71.5473 79.0256 71.296 79.1426 71.0449 79.2598C69.9252 79.7647 68.8052 80.1939 67.6269 80.5416C67.4372 80.5985 67.4372 80.5985 67.2437 80.6566C65.0634 81.2747 62.9041 81.4396 60.6445 81.4327C60.5074 81.4325 60.3704 81.4323 60.2291 81.4322C53.7234 81.4055 48.0041 79.0393 43.164 74.7188C42.9815 74.5562 42.799 74.3935 42.6109 74.226C38.1206 69.9691 35.3224 63.7539 35.0822 57.5946C34.9985 54.3738 35.0852 51.1524 36.2447 48.1071C36.3232 47.9002 36.3232 47.9002 36.4032 47.6892C36.4429 47.5855 36.4825 47.4819 36.5234 47.3751C36.3685 47.376 36.2137 47.3769 36.0541 47.3778C32.2784 47.3994 28.5027 47.4155 24.7269 47.4257C22.901 47.4307 21.075 47.4375 19.2491 47.4487C17.6568 47.4585 16.0646 47.4648 14.4723 47.4669C13.6298 47.4682 12.7875 47.4712 11.9451 47.4783C11.1506 47.485 10.3562 47.487 9.56166 47.4855C9.27162 47.4858 8.98158 47.4877 8.69156 47.4915C6.24497 47.5217 4.24467 47.0078 2.33684 45.4105C0.609129 43.7034 -0.0839703 41.6304 -0.108096 39.2442C-0.106889 38.9783 -0.105599 38.7124 -0.104234 38.4465C-0.105615 38.1614 -0.107324 37.8762 -0.109333 37.5911C-0.113702 36.8219 -0.113158 36.0528 -0.111419 35.2836C-0.110415 34.6391 -0.111849 33.9946 -0.113268 33.3501C-0.116581 31.8283 -0.1159 30.3066 -0.112626 28.7848C-0.109323 27.2202 -0.112413 25.6558 -0.118725 24.0912C-0.123955 22.7429 -0.125355 21.3947 -0.123702 20.0464C-0.122744 19.2433 -0.123146 18.4403 -0.127176 17.6373C-0.130787 16.8815 -0.129567 16.1259 -0.124794 15.3701C-0.123824 15.0946 -0.124475 14.819 -0.126971 14.5435C-0.147031 12.136 0.40065 10.1736 1.96452 8.30569C3.80217 6.44586 6.01459 5.84707 8.5609 5.85819ZM54.2968 35.461C54.0743 35.5317 53.8517 35.6025 53.6224 35.6754C47.7818 37.7563 43.4547 41.9756 40.8105 47.5406C38.8216 52.0459 38.5469 57.5352 40.039 62.2188C40.1451 62.5527 40.1451 62.5527 40.2534 62.8932C42.3343 68.7339 46.5536 73.061 52.1186 75.7051C56.6239 77.6941 62.1132 77.9688 66.7968 76.4766C67.0194 76.4059 67.242 76.3351 67.4713 76.2622C73.3119 74.1813 77.639 69.962 80.2831 64.397C82.4015 59.5986 82.6111 53.6062 80.7533 48.6988C80.4354 47.9126 80.0724 47.1538 79.6875 46.3985C79.628 46.28 79.5686 46.1615 79.5074 46.0393C78.5625 44.1846 77.3728 42.6567 75.9765 41.1251C75.8627 40.9951 75.7489 40.8652 75.6317 40.7314C72.4402 37.282 67.3084 34.9573 62.6537 34.6365C59.7896 34.5387 57.0414 34.5866 54.2968 35.461Z" fill="#222020"/>
<path id="Vector_2" d="M66.211 39.5624C66.5248 39.6719 66.5248 39.6719 66.845 39.7837C71.1073 41.4235 74.3798 44.6788 76.3672 48.7421C78.072 52.7937 78.4186 57.4484 76.9532 61.6327C76.8847 61.8352 76.8162 62.0376 76.7456 62.2461C75.1892 66.375 72.0056 69.7716 68.042 71.6791C63.9114 73.4414 59.1671 73.8801 54.8829 72.3749C54.6736 72.3019 54.4644 72.2289 54.2488 72.1537C49.9865 70.5139 46.714 67.2586 44.7266 63.1952C43.023 59.1464 42.6717 54.4859 44.1407 50.3046C44.2502 49.9908 44.2502 49.9908 44.3619 49.6706C46.0017 45.4082 49.257 42.1358 53.3204 40.1484C57.3691 38.4447 62.0297 38.0934 66.211 39.5624ZM56.25 43.4687C56.071 43.5397 55.892 43.6107 55.7076 43.6838C52.252 45.1533 49.7174 47.6139 48.2422 51.0859C47.1806 53.8708 46.8942 57.4667 48.0469 60.2655C48.1179 60.4445 48.1889 60.6236 48.2621 60.808C49.7315 64.2636 52.1922 66.7982 55.6641 68.2734C58.4491 69.3349 62.0449 69.6214 64.8438 68.4687C65.0228 68.3977 65.2018 68.3267 65.3862 68.2535C68.8419 66.7841 71.3764 64.3234 72.8516 60.8515C73.9132 58.0665 74.1997 54.4707 73.0469 51.6718C72.9759 51.4928 72.9049 51.3138 72.8318 51.1293C71.3623 47.6737 68.9017 45.1391 65.4297 43.664C62.6447 42.6024 59.0489 42.3159 56.25 43.4687Z" fill="#222020"/>
<path id="Vector_3" d="M10.2294 19.5674C10.4492 19.5591 10.4492 19.5591 10.6735 19.5506C11.3244 19.6782 11.6227 19.9731 12.1093 20.4219C12.4829 21.0181 12.4829 21.0181 12.8318 21.7097C12.8945 21.8325 12.9573 21.9552 13.0219 22.0817C13.2203 22.4714 13.4156 22.8626 13.6108 23.2539C13.744 23.5167 13.8773 23.7794 14.0109 24.042C14.3562 24.722 14.6982 25.4036 15.039 26.0859C15.1168 26.2414 15.1945 26.3969 15.2746 26.557C15.3258 26.6594 15.3769 26.7617 15.4296 26.8672C15.5198 26.6846 15.6099 26.5021 15.7028 26.314C16.4656 24.7748 17.2406 23.2417 18.0297 21.7158C18.1528 21.4738 18.1528 21.4738 18.2783 21.2269C18.3567 21.0766 18.435 20.9262 18.5157 20.7713C18.5845 20.6378 18.6533 20.5042 18.7242 20.3666C18.9453 20.0312 18.9453 20.0312 19.5312 19.6406C19.9386 19.575 19.9386 19.575 20.3857 19.5674C20.5322 19.5618 20.6787 19.5563 20.8297 19.5506C21.4868 19.6794 21.7761 19.9641 22.2656 20.4219C22.5836 20.8961 22.8348 21.3966 23.0873 21.9081C23.1596 22.05 23.2319 22.192 23.3064 22.3382C23.5353 22.7889 23.7611 23.2411 23.9868 23.6934C24.1421 24.0004 24.2976 24.3074 24.4533 24.6142C24.8332 25.364 25.2103 26.1152 25.5859 26.8672C26.6103 24.8339 26.6103 24.8339 27.6084 22.7877C27.6695 22.6612 27.7305 22.5347 27.7934 22.4044C27.9124 22.1573 28.0298 21.9096 28.1459 21.6613C28.5474 20.8373 28.9763 20.2229 29.6874 19.6406C30.2936 19.4642 30.8317 19.4984 31.4453 19.6406C31.9835 20.0667 32.3116 20.3968 32.6171 21.0078C32.6311 22.3165 32.2236 23.3598 31.639 24.5074C31.5602 24.6675 31.4813 24.8276 31.4001 24.9926C31.1491 25.5007 30.8944 26.0069 30.6396 26.5132C30.473 26.8489 30.3067 27.1847 30.1406 27.5206C29.8178 28.1728 29.4926 28.8237 29.1654 29.4737C28.8753 30.0509 28.5908 30.6302 28.3128 31.2134C28.2215 31.4028 28.2215 31.4028 28.1283 31.596C27.968 31.9294 27.8095 32.2636 27.6512 32.5979C27.3369 33.1287 27.0882 33.3896 26.5624 33.7031C26.136 33.7947 26.136 33.7947 25.6957 33.8008C25.551 33.8068 25.4062 33.8129 25.257 33.8191C24.4425 33.6103 24.0155 33.0322 23.5867 32.3331C23.3356 31.8747 23.0978 31.4116 22.8637 30.9443C22.6937 30.6124 22.5236 30.2805 22.3533 29.9487C22.2311 29.7088 22.2311 29.7088 22.1064 29.4641C21.7194 28.7141 21.3058 27.9797 20.8907 27.2448C20.7031 26.8672 20.7031 26.8672 20.7031 26.4766C20.5742 26.4766 20.4453 26.4766 20.3124 26.4766C20.2595 26.6443 20.2066 26.8121 20.1521 26.985C19.7972 28.0075 19.327 28.971 18.8612 29.947C18.6892 30.3089 18.5207 30.6723 18.3521 31.0359C18.2424 31.266 18.1328 31.4961 18.0198 31.7332C17.921 31.9426 17.8223 32.152 17.7205 32.3677C17.282 33.0872 16.7947 33.6066 15.9606 33.8137C15.8176 33.8135 15.6746 33.8132 15.5273 33.813C15.3843 33.8173 15.2413 33.8215 15.0939 33.826C14.218 33.5845 13.8212 32.9798 13.3792 32.2307C13.043 31.6034 12.7209 30.9704 12.4023 30.334C12.2837 30.1 12.1648 29.8661 12.0458 29.6323C11.8619 29.2708 11.6781 28.9093 11.495 28.5474C11.0727 27.7135 10.6399 26.8861 10.2012 26.0608C10.0849 25.8411 9.96857 25.6215 9.84873 25.3953C9.6268 24.977 9.40381 24.5592 9.17963 24.1421C9.07967 23.9525 8.97972 23.7629 8.87674 23.5675C8.74482 23.3202 8.74482 23.3202 8.61024 23.0679C8.23022 22.1754 8.13853 21.592 8.44721 20.666C8.90496 19.8159 9.2935 19.5833 10.2294 19.5674Z" fill="#222020"/>
<path id="Vector_4" d="M62.5001 47.1797C64.71 47.637 66.5802 49.0322 67.8849 50.8456C68.8269 52.3152 69.3911 53.7252 69.4214 55.4926C69.4293 55.7427 69.4371 55.9927 69.4451 56.2502C69.3082 57.1226 69.0608 57.3995 68.3594 57.9218C67.8712 58.0515 67.8712 58.0515 67.3829 58.0439C67.2217 58.0464 67.0606 58.049 66.8946 58.0515C66.1775 57.8611 65.8855 57.5222 65.4297 56.9453C65.2474 56.3136 65.2474 56.3136 65.149 55.6269C64.8697 54.1613 64.4872 53.0338 63.2371 52.1433C62.3679 51.666 61.5617 51.4276 60.5836 51.2812C59.8852 51.1704 59.5622 51.0808 58.9478 50.6953C58.514 49.9772 58.477 49.4698 58.4641 48.6445C58.9815 46.6967 60.9139 47.0108 62.5001 47.1797Z" fill="#222020"/>
<path id="Vector_5" d="M86.7187 72.7655C87.4366 73.1557 87.6511 73.4492 87.9883 74.1937C88.1108 75.0977 87.9761 75.5075 87.5 76.2811C86.8345 76.7652 86.455 76.8671 85.6323 76.8671C84.7989 76.6246 84.4773 76.4122 83.9844 75.6952C83.7961 74.7836 83.8556 74.1435 84.3506 73.3515C85.0696 72.6747 85.7621 72.637 86.7187 72.7655Z" fill="#222020"/>
<path id="Vector_6" d="M25.586 5.96877C26.1963 6.33498 26.1963 6.33498 26.5625 6.94533C26.7556 7.92702 26.7143 8.64555 26.1963 9.50881C25.3331 10.0268 24.6145 10.0681 23.6328 9.87502C23.0225 9.50881 23.0225 9.50881 22.6563 8.89846C22.4631 7.91677 22.5045 7.19823 23.0225 6.33498C23.8857 5.81703 24.6043 5.77565 25.586 5.96877Z" fill="#222020"/>
</g>
<defs>
<clipPath id="clip0_2870_607">
<rect width="100" height="100" fill="white" transform="translate(0 0.5)"/>
</clipPath>
</defs>
</svg>
