<svg width="144" height="144" viewBox="0 0 144 144" fill="none" xmlns="http://www.w3.org/2000/svg">
<g id="Simplification">
<path id="Vector" d="M69.75 29.25C71.235 29.25 72.72 29.25 74.25 29.25C74.25 32.22 74.25 35.19 74.25 38.25C75.4566 38.3428 76.6631 38.4356 77.9062 38.5312C86.7131 40.1586 94.5512 45.0863 99.7754 52.3655C100.752 53.7884 101.581 55.2822 102.375 56.8125C102.573 57.1921 102.573 57.1921 102.776 57.5793C104.591 61.3001 105.75 65.6172 105.75 69.75C108.72 69.75 111.69 69.75 114.75 69.75C114.75 71.235 114.75 72.72 114.75 74.25C111.78 74.25 108.81 74.25 105.75 74.25C105.657 75.4566 105.564 76.6631 105.469 77.9062C103.841 86.7131 98.9137 94.5512 91.6345 99.7754C90.2116 100.752 88.7178 101.581 87.1875 102.375C86.8079 102.573 86.8079 102.573 86.4207 102.776C82.7058 104.589 78.3804 105.75 74.25 105.75C74.25 108.72 74.25 111.69 74.25 114.75C72.765 114.75 71.28 114.75 69.75 114.75C69.75 111.78 69.75 108.81 69.75 105.75C68.5434 105.657 67.3369 105.564 66.0938 105.469C57.2869 103.841 49.4488 98.9137 44.2246 91.6345C43.2482 90.2116 42.4192 88.7178 41.625 87.1875C41.4927 86.9344 41.3603 86.6814 41.224 86.4207C39.4086 82.6999 38.25 78.3828 38.25 74.25C35.28 74.25 32.31 74.25 29.25 74.25C29.25 72.765 29.25 71.28 29.25 69.75C32.22 69.75 35.19 69.75 38.25 69.75C38.3892 67.9402 38.3892 67.9402 38.5312 66.0938C40.1458 57.3563 45.0502 49.3754 52.3446 44.2372C57.4248 40.7678 63.5341 38.25 69.75 38.25C69.75 35.28 69.75 32.31 69.75 29.25ZM53.1562 49.7812C52.9583 49.9328 52.7603 50.0843 52.5564 50.2405C48.2543 53.7065 45.5261 58.956 43.875 64.125C43.7309 64.5622 43.7309 64.5622 43.5839 65.0083C42.2436 69.9702 42.5471 75.8598 44.1562 80.7188C44.2647 81.0461 44.3731 81.3735 44.4847 81.7108C45.723 85.1451 47.5233 87.9906 49.7812 90.8438C49.9226 91.029 50.064 91.2143 50.2097 91.4052C54.5255 96.8061 61.8097 100.163 68.5456 101.014C76.8593 101.884 84.3857 99.4322 90.8438 94.2188C91.0276 94.0781 91.2114 93.9374 91.4008 93.7925C96.6542 89.609 100.027 82.4836 100.969 75.9375C101.225 71.6258 101.209 67.4029 99.8438 63.2812C99.7354 62.9539 99.6269 62.6265 99.5153 62.2892C98.2777 58.857 96.4809 56.004 94.2188 53.1562C93.9903 52.8571 93.9903 52.8571 93.7573 52.552C89.241 46.9637 81.9054 43.8217 74.9421 42.8994C66.8612 42.138 59.3974 44.7253 53.1562 49.7812Z" fill="#222020"/>
<path id="Vector_2" d="M96.75 96.75C101.205 96.75 105.66 96.75 110.25 96.75C110.25 98.235 110.25 99.72 110.25 101.25C108.579 101.343 106.909 101.436 105.188 101.531C106.394 102.738 107.601 103.944 108.844 105.188C109.435 104.839 110.027 104.491 110.637 104.133C115.715 101.206 121.369 100.291 127.143 101.672C132.277 103.32 136.918 106.688 139.482 111.527C142.04 116.616 142.779 122.624 141.013 128.125C138.854 133.519 135.234 137.853 129.839 140.257C124.931 142.339 118.914 142.629 113.906 140.625C108.708 138.425 104.72 134.499 102.509 129.288C100.621 124.569 100.442 118.665 102.375 113.906C103.191 112.15 104.113 110.455 105.188 108.844C103.981 107.637 102.774 106.431 101.531 105.188C101.438 106.858 101.346 108.529 101.25 110.25C99.765 110.25 98.28 110.25 96.75 110.25C96.75 105.795 96.75 101.34 96.75 96.75ZM111.938 109.125C111.759 109.248 111.581 109.372 111.397 109.499C108.524 111.686 106.801 115.24 106.031 118.688C105.63 123.413 106.336 127.153 109.125 131.062C109.889 130.329 110.529 129.583 111.146 128.725C112.174 127.376 113.371 126.41 114.75 125.438C114.608 125.223 114.608 125.223 114.462 125.005C114.337 124.811 114.211 124.617 114.082 124.418C113.958 124.229 113.834 124.039 113.706 123.844C112.443 121.555 112.389 118.66 112.984 116.141C113.872 113.776 115.298 112.224 117.562 111.094C119.911 110.146 122.948 110.111 125.332 111.006C127.627 112.109 129.02 113.738 129.97 116.09C130.256 117.136 130.327 118.121 130.324 119.197C130.324 119.495 130.324 119.495 130.323 119.798C130.286 121.438 129.947 122.648 129.094 124.031C128.942 124.285 128.79 124.54 128.633 124.801C128.507 125.011 128.38 125.221 128.25 125.438C128.51 125.622 128.51 125.622 128.776 125.811C130.808 127.333 132.164 128.99 133.594 131.062C134.508 130.231 135.051 129.426 135.598 128.32C135.738 128.043 135.878 127.766 136.022 127.481C137.509 123.929 137.529 119.453 136.218 115.845C135.572 114.441 134.784 113.185 133.875 111.938C133.752 111.759 133.628 111.581 133.501 111.397C131.314 108.524 127.76 106.801 124.312 106.031C119.616 105.632 115.801 106.308 111.938 109.125ZM117.738 116.895C117.118 118.182 117.057 119.252 117.281 120.656C117.936 122.017 118.733 122.814 120.094 123.469C121.498 123.693 122.568 123.632 123.855 123.012C124.863 122.1 125.605 121.369 125.826 119.982C125.898 118.383 125.701 117.38 124.594 116.156C123.37 115.049 122.367 114.852 120.768 114.924C119.381 115.145 118.65 115.887 117.738 116.895ZM114.637 131.531C113.861 132.552 113.444 133.485 113.062 134.719C113.577 134.991 114.093 135.26 114.609 135.527C114.897 135.677 115.184 135.828 115.479 135.982C117.458 136.858 119.274 137.078 121.412 137.074C121.658 137.074 121.904 137.073 122.158 137.073C125.028 137.019 127.517 136.295 129.938 134.719C128.859 132.086 127.685 130.489 125.156 129.094C121.437 127.599 117.229 128.454 114.637 131.531Z" fill="#222020"/>
<path id="Vector_3" d="M33.75 96.75C38.205 96.75 42.66 96.75 47.25 96.75C47.25 101.205 47.25 105.66 47.25 110.25C45.765 110.25 44.28 110.25 42.75 110.25C42.6572 108.579 42.5644 106.909 42.4687 105.188C41.2622 106.394 40.0556 107.601 38.8125 108.844C39.1605 109.435 39.5086 110.027 39.8672 110.637C42.7941 115.715 43.7088 121.369 42.3281 127.143C40.6799 132.277 37.3116 136.918 32.4734 139.482C27.3842 142.04 21.376 142.779 15.8752 141.013C10.4815 138.854 6.14658 135.234 3.74262 129.839C1.66052 124.931 1.37089 118.914 3.37499 113.906C5.57547 108.708 9.50064 104.72 14.7118 102.509C19.4312 100.621 25.3351 100.442 30.0937 102.375C31.85 103.191 33.5445 104.113 35.1562 105.188C36.3628 103.981 37.5694 102.774 38.8125 101.531C37.1419 101.438 35.4712 101.346 33.75 101.25C33.75 99.765 33.75 98.28 33.75 96.75ZM12.9375 109.125C12.7591 109.248 12.5807 109.372 12.397 109.499C9.52393 111.686 7.80076 115.24 7.03124 118.688C6.62987 123.413 7.33578 127.153 10.125 131.062C10.8885 130.329 11.5288 129.583 12.1465 128.725C13.1735 127.376 14.3712 126.41 15.75 125.438C15.6075 125.223 15.6075 125.223 15.4622 125.005C15.3367 124.811 15.2113 124.617 15.082 124.418C14.958 124.229 14.834 124.039 14.7063 123.844C13.4431 121.555 13.3886 118.66 13.9845 116.141C14.8724 113.776 16.2984 112.224 18.5625 111.094C20.9113 110.146 23.9476 110.111 26.332 111.006C28.6271 112.109 30.0202 113.738 30.9705 116.09C31.2559 117.136 31.3266 118.121 31.3242 119.197C31.3238 119.495 31.3238 119.495 31.3235 119.798C31.2863 121.438 30.9465 122.648 30.0937 124.031C29.9418 124.285 29.7899 124.54 29.6334 124.801C29.5069 125.011 29.3804 125.221 29.25 125.438C29.5105 125.622 29.5105 125.622 29.7762 125.811C31.8082 127.333 33.1639 128.99 34.5937 131.062C35.508 130.231 36.0507 129.426 36.5977 128.32C36.7376 128.043 36.8775 127.766 37.0217 127.481C38.5086 123.929 38.5292 119.453 37.2184 115.845C36.5722 114.441 35.7843 113.185 34.875 111.938C34.7517 111.759 34.6285 111.581 34.5015 111.397C32.3137 108.524 28.76 106.801 25.3125 106.031C20.6162 105.632 16.8011 106.308 12.9375 109.125ZM18.7383 116.895C18.1184 118.182 18.057 119.252 18.2812 120.656C18.9365 122.017 19.7329 122.814 21.0937 123.469C22.4984 123.693 23.568 123.632 24.8555 123.012C25.8635 122.1 26.6049 121.369 26.8264 119.982C26.8984 118.383 26.7008 117.38 25.5937 116.156C24.3701 115.049 23.3669 114.852 21.7683 114.924C20.3807 115.145 19.6503 115.887 18.7383 116.895ZM15.6368 131.531C14.8608 132.552 14.4444 133.485 14.0625 134.719C14.5766 134.991 15.0926 135.26 15.6094 135.527C15.8965 135.677 16.1836 135.828 16.4795 135.982C18.4581 136.858 20.2741 137.078 22.4121 137.074C22.6582 137.074 22.9042 137.073 23.1577 137.073C26.0281 137.019 28.5166 136.295 30.9375 134.719C29.8592 132.086 28.6845 130.489 26.1562 129.094C22.437 127.599 18.2291 128.454 15.6368 131.531Z" fill="#222020"/>
<path id="Vector_4" d="M133.789 5.98488C137.826 9.27829 141.12 13.8293 141.75 19.1249C142.16 25.2338 141.377 30.9248 137.256 35.693C133.541 39.7616 128.915 42.5771 123.313 42.8378C117.787 42.9959 113.457 41.8882 108.844 38.8124C107.637 40.019 106.431 41.2256 105.188 42.4687C106.858 42.5615 108.529 42.6543 110.25 42.7499C110.25 44.2349 110.25 45.7199 110.25 47.2499C105.795 47.2499 101.34 47.2499 96.75 47.2499C96.75 42.7949 96.75 38.3399 96.75 33.7499C98.235 33.7499 99.72 33.7499 101.25 33.7499C101.343 35.4206 101.436 37.0912 101.531 38.8124C102.738 37.6059 103.944 36.3993 105.188 35.1562C104.665 34.2687 104.665 34.2687 104.133 33.3632C101.206 28.2845 100.291 22.6307 101.672 16.8574C103.32 11.7231 106.688 7.08209 111.527 4.51752C118.579 0.972755 127.346 1.1155 133.789 5.98488ZM111.938 10.1249C111.759 10.2482 111.581 10.3715 111.397 10.4985C108.524 12.6862 106.801 16.2399 106.031 19.6874C105.63 24.4126 106.336 28.1528 109.125 32.0624C109.889 31.3287 110.529 30.5832 111.146 29.7245C112.174 28.376 113.371 27.4098 114.75 26.4374C114.608 26.2232 114.608 26.2232 114.462 26.0046C114.337 25.811 114.211 25.6174 114.082 25.4179C113.958 25.2287 113.834 25.0394 113.706 24.8444C112.443 22.5553 112.389 19.6596 112.984 17.1408C113.872 14.7754 115.298 13.2237 117.562 12.0937C119.911 11.1462 122.948 11.1107 125.332 12.0058C127.627 13.1091 129.02 14.7378 129.97 17.0903C130.256 18.1362 130.327 19.1206 130.324 20.1972C130.324 20.4946 130.324 20.4946 130.323 20.7979C130.286 22.4376 129.947 23.6479 129.094 25.0312C128.942 25.2853 128.79 25.5395 128.633 25.8013C128.507 26.0112 128.38 26.2212 128.25 26.4374C128.51 26.6223 128.51 26.6223 128.776 26.811C130.808 28.3326 132.164 29.9901 133.594 32.0624C134.508 31.2313 135.051 30.4256 135.598 29.3202C135.738 29.0433 135.878 28.7663 136.022 28.4809C137.509 24.9293 137.529 20.4534 136.218 16.8453C135.572 15.4412 134.784 14.1847 133.875 12.9374C133.752 12.7591 133.628 12.5807 133.501 12.3969C131.314 9.52388 127.76 7.8007 124.312 7.03119C119.616 6.63227 115.801 7.30826 111.938 10.1249ZM117.738 17.8945C117.118 19.1819 117.057 20.2515 117.281 21.6562C117.936 23.017 118.733 23.8135 120.094 24.4687C121.498 24.6929 122.568 24.6316 123.855 24.0117C124.863 23.0996 125.605 22.3692 125.826 20.9816C125.898 19.3831 125.701 18.3798 124.594 17.1562C123.37 16.0491 122.367 15.8515 120.768 15.9235C119.381 16.145 118.65 16.8864 117.738 17.8945ZM114.637 32.5305C113.861 33.5516 113.444 34.4846 113.062 35.7187C113.577 35.9911 114.093 36.2599 114.609 36.5273C114.897 36.6774 115.184 36.8275 115.479 36.9821C117.458 37.858 119.274 38.0783 121.412 38.0742C121.658 38.0737 121.904 38.0732 122.158 38.0728C125.028 38.0189 127.517 37.2951 129.938 35.7187C128.859 33.0862 127.685 31.4887 125.156 30.0937C121.437 28.5989 117.229 29.4544 114.637 32.5305Z" fill="#222020"/>
<path id="Vector_5" d="M34.7888 5.98504C38.8262 9.27845 42.1204 13.8294 42.75 19.1251C43.1587 25.2079 42.2145 30.0533 38.8125 35.1563C40.0191 36.3629 41.2256 37.5695 42.4688 38.8126C42.5616 37.142 42.6544 35.4713 42.75 33.7501C44.235 33.7501 45.72 33.7501 47.25 33.7501C47.25 38.2051 47.25 42.6601 47.25 47.2501C42.795 47.2501 38.34 47.2501 33.75 47.2501C33.75 45.7651 33.75 44.2801 33.75 42.7501C35.4206 42.6573 37.0913 42.5645 38.8125 42.4688C37.6059 41.2623 36.3994 40.0557 35.1562 38.8126C34.5646 39.1606 33.9729 39.5087 33.3633 39.8673C28.2845 42.7942 22.6307 43.7089 16.8574 42.3282C11.7231 40.68 7.08215 37.3117 4.51758 32.4735C1.95955 27.3843 1.22128 21.3761 2.98718 15.8753C5.14591 10.4816 8.76593 6.14669 14.1612 3.74273C20.819 0.918197 28.9413 1.56573 34.7888 5.98504ZM12.9375 10.1251C12.7591 10.2484 12.5808 10.3716 12.397 10.4986C9.52394 12.6864 7.80076 16.2401 7.03125 19.6876C6.62988 24.4127 7.33578 28.153 10.125 32.0626C10.8885 31.3289 11.5288 30.5833 12.1465 29.7247C13.1735 28.3761 14.3712 27.41 15.75 26.4376C15.6075 26.2233 15.6075 26.2233 15.4622 26.0047C15.3367 25.8111 15.2113 25.6175 15.082 25.4181C14.958 25.2288 14.834 25.0396 14.7063 24.8446C13.4431 22.5554 13.3886 19.6597 13.9845 17.141C14.8724 14.7756 16.2984 13.2238 18.5625 12.0938C20.9113 11.1464 23.9476 11.1109 26.332 12.006C28.6271 13.1093 30.0202 14.738 30.9705 17.0904C31.2559 18.1363 31.3267 19.1207 31.3242 20.1974C31.3238 20.4947 31.3238 20.4947 31.3235 20.7981C31.2863 22.4377 30.9465 23.6481 30.0938 25.0313C29.9418 25.2855 29.7899 25.5396 29.6334 25.8015C29.5069 26.0114 29.3804 26.2213 29.25 26.4376C29.5105 26.6225 29.5105 26.6225 29.7762 26.8111C31.8082 28.3328 33.1639 29.9903 34.5938 32.0626C35.508 31.2314 36.0507 30.4257 36.5977 29.3204C36.7376 29.0434 36.8775 28.7664 37.0217 28.4811C38.5086 24.9295 38.5292 20.4535 37.2184 16.8454C36.5722 15.4413 35.7843 14.1849 34.875 12.9376C34.7517 12.7592 34.6285 12.5808 34.5015 12.3971C32.3137 9.52404 28.76 7.80086 25.3125 7.03135C20.6162 6.63243 16.8011 7.30842 12.9375 10.1251ZM18.7383 17.8946C18.1184 19.1821 18.057 20.2516 18.2813 21.6563C18.9365 23.0172 19.7329 23.8136 21.0938 24.4688C22.4984 24.693 23.568 24.6317 24.8555 24.0118C25.8635 23.0998 26.6049 22.3694 26.8264 20.9818C26.8984 19.3832 26.7008 18.38 25.5938 17.1563C24.3701 16.0493 23.3669 15.8517 21.7683 15.9237C20.3807 16.1452 19.6503 16.8866 18.7383 17.8946ZM15.6368 32.5306C14.8608 33.5518 14.4444 34.4847 14.0625 35.7188C14.5766 35.9913 15.0926 36.2601 15.6094 36.5274C15.8965 36.6775 16.1837 36.8276 16.4795 36.9823C18.4581 37.8581 20.2741 38.0784 22.4121 38.0743C22.6582 38.0739 22.9042 38.0734 23.1577 38.0729C26.0282 38.0191 28.5167 37.2952 30.9375 35.7188C29.8593 33.0863 28.6845 31.4889 26.1562 30.0938C22.437 28.5991 18.2291 29.4546 15.6368 32.5306Z" fill="#222020"/>
<path id="Vector_6" d="M65.8125 51.7501C66.3499 51.6486 66.3499 51.6486 67.0123 51.6543C67.2601 51.6544 67.5078 51.6544 67.763 51.6545C68.0308 51.6589 68.2986 51.6632 68.5745 51.6677C68.8483 51.6689 69.1222 51.6701 69.4044 51.6713C70.2814 51.676 71.1582 51.6866 72.0352 51.6974C72.6288 51.7016 73.2224 51.7054 73.816 51.7089C75.2733 51.7182 76.7304 51.7323 78.1875 51.7501C79.0313 53.3321 79.0313 53.3321 79.0313 54.2813C80.0522 53.9101 81.0731 53.5388 82.125 53.1563C85.0022 56.0335 87.8794 58.9107 90.8438 61.8751C90.4725 62.896 90.1013 63.917 89.7188 64.9688C90.1103 65.0211 90.1103 65.0211 90.5098 65.0743C91.4063 65.2501 91.4063 65.2501 92.25 65.8126C92.3515 66.35 92.3515 66.35 92.3458 67.0124C92.3457 67.2602 92.3457 67.5079 92.3456 67.7631C92.3412 68.0309 92.3369 68.2987 92.3324 68.5746C92.3312 68.8484 92.33 69.1223 92.3288 69.4045C92.3241 70.2815 92.3135 71.1583 92.3027 72.0353C92.2985 72.6289 92.2947 73.2225 92.2912 73.8161C92.2819 75.2734 92.2678 76.7305 92.25 78.1876C90.668 79.0313 90.668 79.0313 89.7188 79.0313C90.2756 80.5628 90.2756 80.5628 90.8438 82.1251C87.9666 85.0023 85.0894 87.8795 82.125 90.8438C80.5936 90.287 80.5936 90.287 79.0313 89.7188C78.979 90.1104 78.979 90.1104 78.9258 90.5099C78.75 91.4063 78.75 91.4063 78.1875 92.2501C77.6501 92.3516 77.6501 92.3516 76.9877 92.3459C76.7399 92.3458 76.4922 92.3458 76.237 92.3457C75.9692 92.3413 75.7014 92.337 75.4255 92.3325C75.1517 92.3313 74.8778 92.3301 74.5956 92.3289C73.7186 92.3241 72.8418 92.3136 71.9648 92.3028C71.3712 92.2986 70.7776 92.2948 70.184 92.2913C68.7267 92.282 67.2696 92.2678 65.8125 92.2501C64.9688 90.6681 64.9688 90.6681 64.9688 89.7188C63.9478 90.0901 62.9269 90.4613 61.875 90.8438C58.9978 87.9667 56.1206 85.0895 53.1563 82.1251C53.5275 81.1042 53.8988 80.0832 54.2813 79.0313C53.8172 78.9385 53.3531 78.8457 52.875 78.7501C52.5038 78.5645 52.1325 78.3788 51.75 78.1876C51.75 74.1038 51.75 70.0201 51.75 65.8126C53.4375 64.9688 53.4375 64.9688 54.2813 64.9688C53.7244 63.4374 53.7244 63.4374 53.1563 61.8751C56.0334 58.9979 58.9106 56.1207 61.875 53.1563C62.8959 53.5276 63.9169 53.8988 64.9688 54.2813C65.021 53.8898 65.021 53.8898 65.0742 53.4903C65.25 52.5938 65.25 52.5938 65.8125 51.7501ZM69.1875 56.2501C69.0425 56.6968 68.8975 57.1434 68.748 57.6036C68.3503 58.5995 68.0911 59.2214 67.0957 59.6778C66.0849 59.9084 65.6538 59.9391 64.6875 59.6251C64.0378 59.4395 63.3881 59.2538 62.7188 59.0626C61.5122 60.2692 60.3056 61.4757 59.0625 62.7188C59.28 63.3018 59.28 63.3018 59.502 63.8966C59.8473 64.9376 60.0078 65.5964 59.625 66.6563C59.5572 66.888 59.4894 67.1197 59.4196 67.3584C58.7811 68.6177 57.532 68.7438 56.25 69.1876C56.25 71.0438 56.25 72.9001 56.25 74.8126C56.6967 74.9576 57.1433 75.1026 57.6035 75.252C58.5994 75.6498 59.2213 75.909 59.6777 76.9044C59.9083 77.9152 59.939 78.3463 59.625 79.3126C59.4394 79.9623 59.2538 80.612 59.0625 81.2813C60.2691 82.4879 61.4756 83.6945 62.7188 84.9376C63.1016 84.7926 63.4845 84.6476 63.8789 84.4981C65.2466 84.043 66.15 84.0914 67.5077 84.5805C68.5756 85.2678 68.775 86.601 69.1875 87.7501C71.0438 87.7501 72.9 87.7501 74.8125 87.7501C74.9575 87.3034 75.1025 86.8568 75.252 86.3966C75.6497 85.4007 75.9089 84.7788 76.9043 84.3224C77.9151 84.0918 78.3462 84.0611 79.3125 84.3751C79.9622 84.5607 80.6119 84.7463 81.2813 84.9376C82.4878 83.731 83.6944 82.5245 84.9375 81.2813C84.7925 80.8927 84.6475 80.504 84.4981 80.1036C84.1493 79.0574 84.0184 78.4136 84.375 77.3438C84.4272 77.0828 84.4794 76.8218 84.5332 76.5528C84.5738 76.3498 84.6144 76.1468 84.6563 75.9376C84.8325 75.88 85.0087 75.8223 85.1902 75.7629C85.42 75.6871 85.6499 75.6114 85.8867 75.5333C86.1151 75.4583 86.3435 75.3832 86.5789 75.3059C87.1904 75.1074 87.1904 75.1074 87.75 74.8126C87.75 72.9563 87.75 71.1001 87.75 69.1876C87.3033 69.0426 86.8567 68.8976 86.3965 68.7481C85.4006 68.3504 84.7787 68.0912 84.3223 67.0958C84.0917 66.085 84.061 65.6539 84.375 64.6876C84.5606 64.0379 84.7463 63.3882 84.9375 62.7188C83.7309 61.5123 82.5244 60.3057 81.2813 59.0626C80.8926 59.2076 80.5039 59.3526 80.1035 59.502C79.0625 59.8474 78.4037 60.0078 77.3438 59.6251C77.1121 59.5573 76.8804 59.4895 76.6417 59.4197C75.3824 58.7811 75.2563 57.5321 74.8125 56.2501C72.9563 56.2501 71.1 56.2501 69.1875 56.2501Z" fill="#222020"/>
<path id="Vector_7" d="M78.305 62.2991C80.7809 64.0823 82.6415 66.4409 83.25 69.4687C83.6263 72.9611 83.3274 76.0469 81.2285 78.9609C79.3125 81.2349 76.9767 82.9865 73.9488 83.3128C70.3175 83.5646 67.2889 83.1242 64.4249 80.7111C62.0292 78.424 60.7493 75.9915 60.6176 72.6651C60.574 69.1454 61.3664 66.4389 63.8437 63.8437C67.7194 60.1439 73.717 59.438 78.305 62.2991ZM66.4387 68.3877C65.3328 70.0501 65.3348 71.7528 65.5312 73.6875C66.03 75.5563 67.3444 76.8301 68.9062 77.9062C70.5934 78.7333 72.5295 78.7778 74.3379 78.2952C76.0616 77.5343 77.4111 76.1038 78.2358 74.4214C78.772 72.7321 78.7681 70.7336 78.0469 69.0996C77.068 67.431 75.5337 66.113 73.6875 65.5312C70.3901 65.1302 68.5385 65.9008 66.4387 68.3877Z" fill="#222020"/>
<path id="Vector_8" d="M137.219 63.7712C139.566 65.1707 141.026 67.1078 141.75 69.7499C142.031 72.8718 141.848 75.5815 139.852 78.1347C138.257 79.8421 136.273 80.8865 133.94 81.0944C131.746 81.1431 129.873 81.0758 127.969 79.8749C127.794 79.7763 127.619 79.6777 127.439 79.5761C126.018 78.6901 125.046 77.4359 124.312 75.9374C124.22 75.3806 124.127 74.8237 124.031 74.2499C122.453 74.2499 120.876 74.2499 119.25 74.2499C119.25 72.7649 119.25 71.2799 119.25 69.7499C120.828 69.7499 122.406 69.7499 124.031 69.7499C124.124 69.1931 124.217 68.6362 124.312 68.0624C125.498 65.7476 127.202 64.2157 129.598 63.2438C132.028 62.5868 134.938 62.6765 137.219 63.7712ZM128.988 69.6445C128.368 70.932 128.307 72.0015 128.531 73.4062C129.186 74.767 129.983 75.5635 131.344 76.2187C132.748 76.4429 133.818 76.3816 135.105 75.7617C136.113 74.8496 136.855 74.1192 137.076 72.7316C137.148 71.1331 136.951 70.1298 135.844 68.9062C134.62 67.7991 133.617 67.6015 132.018 67.6735C130.631 67.895 129.9 68.6365 128.988 69.6445Z" fill="#222020"/>
<path id="Vector_9" d="M76.4692 3.02118C78.8157 4.42037 80.2765 6.35789 81 8.99994C81.2228 11.4995 81.2529 13.8464 79.875 16.0312C79.7764 16.2059 79.6778 16.3807 79.5762 16.5607C78.6901 17.9821 77.4359 18.9542 75.9375 19.6874C75.1022 19.8267 75.1022 19.8267 74.25 19.9687C74.25 21.5465 74.25 23.1243 74.25 24.7499C72.765 24.7499 71.28 24.7499 69.75 24.7499C69.75 23.1721 69.75 21.5943 69.75 19.9687C69.1931 19.8759 68.6363 19.7831 68.0625 19.6874C65.7477 18.5018 64.2157 16.798 63.2439 14.4019C62.5869 11.9722 62.6766 9.06191 63.7712 6.78071C66.3589 2.44117 71.8805 0.819222 76.4692 3.02118ZM68.2383 8.89447C67.6184 10.182 67.5571 11.2515 67.7813 12.6562C68.4365 14.017 69.2329 14.8135 70.5938 15.4687C71.9985 15.6929 73.068 15.6316 74.3555 15.0117C75.3635 14.0996 76.1049 13.3692 76.3264 11.9816C76.3984 10.3831 76.2008 9.3798 75.0938 8.15619C73.8701 7.04912 72.8669 6.85152 71.2683 6.92353C69.8807 7.145 69.1503 7.88645 68.2383 8.89447Z" fill="#222020"/>
<path id="Vector_10" d="M69.75 119.25C71.235 119.25 72.72 119.25 74.25 119.25C74.25 120.828 74.25 122.406 74.25 124.031C74.8069 124.124 75.3637 124.217 75.9375 124.312C78.2523 125.498 79.7843 127.202 80.7561 129.598C81.4131 132.028 81.3234 134.938 80.2288 137.219C78.8296 139.566 76.892 141.027 74.25 141.75C71.7607 141.972 69.3849 142.02 67.2187 140.625C66.9207 140.441 66.9207 140.441 66.6167 140.254C64.6748 138.937 63.6188 137.25 63 135C62.7772 132.5 62.7471 130.153 64.125 127.969C64.2236 127.794 64.3222 127.619 64.4238 127.439C65.3099 126.018 66.5641 125.046 68.0625 124.312C68.6194 124.22 69.1762 124.127 69.75 124.031C69.75 122.453 69.75 120.876 69.75 119.25ZM68.2383 130.395C67.6184 131.682 67.557 132.752 67.7812 134.156C68.4365 135.517 69.2329 136.314 70.5937 136.969C71.9984 137.193 73.068 137.132 74.3555 136.512C75.3635 135.6 76.1049 134.869 76.3264 133.482C76.3984 131.883 76.2008 130.88 75.0937 129.656C73.8701 128.549 72.8669 128.352 71.2683 128.424C69.8807 128.645 69.1503 129.387 68.2383 130.395Z" fill="#222020"/>
<path id="Vector_11" d="M15.5017 63.7911C15.6765 63.9013 15.8512 64.0115 16.0312 64.1251C16.206 64.2237 16.3807 64.3223 16.5608 64.4239C17.9822 65.31 18.9543 66.5642 19.6875 68.0626C19.8267 68.8979 19.8267 68.8979 19.9687 69.7501C21.5466 69.7501 23.1244 69.7501 24.75 69.7501C24.75 71.2351 24.75 72.7201 24.75 74.2501C23.1722 74.2501 21.5944 74.2501 19.9687 74.2501C19.8759 74.8069 19.7831 75.3638 19.6875 75.9376C18.5019 78.2523 16.7984 79.7833 14.4031 80.7562C12.0863 81.3819 9.15156 81.3933 7.01806 80.2288C6.74615 80.0537 6.74615 80.0537 6.46874 79.8751C6.27007 79.7525 6.07139 79.63 5.86669 79.5037C3.92442 78.1873 2.86954 76.5 2.24999 74.2501C1.96916 71.1283 2.15171 68.4185 4.14843 65.8653C6.92468 62.8928 11.845 61.7889 15.5017 63.7911ZM7.48828 69.6446C6.86838 70.9321 6.80704 72.0016 7.03124 73.4063C7.68647 74.7672 8.48289 75.5636 9.84374 76.2188C11.2484 76.443 12.318 76.3817 13.6055 75.7618C14.6135 74.8498 15.3549 74.1194 15.5764 72.7318C15.6484 71.1332 15.4508 70.1299 14.3437 68.9063C13.1201 67.7992 12.1169 67.6016 10.5183 67.6737C9.13071 67.8951 8.4003 68.6366 7.48828 69.6446Z" fill="#222020"/>
</g>
</svg>
