<svg width="162" height="162" viewBox="0 0 162 162" fill="none" xmlns="http://www.w3.org/2000/svg">
<g id="Simplification" clip-path="url(#clip0_2870_638)">
<path id="Vector" d="M33.3133 3.00537C33.7353 3.00413 34.1574 3.00235 34.5794 3.00006C35.7328 2.99541 36.8861 2.9986 38.0395 3.00314C39.2857 3.00666 40.5319 3.00287 41.778 3.00003C44.2163 2.99562 46.6546 2.998 49.0928 3.00277C51.9318 3.00811 54.7708 3.00709 57.6097 3.0059C62.6735 3.00405 67.7373 3.00852 72.8011 3.01633C77.7167 3.02391 82.6323 3.02614 87.548 3.02282C92.9016 3.01921 98.2552 3.01859 103.609 3.02317C104.179 3.02365 104.75 3.02413 105.32 3.02461C105.741 3.02497 105.741 3.02497 106.17 3.02534C108.15 3.02684 110.131 3.02625 112.111 3.0249C114.521 3.02335 116.932 3.02523 119.343 3.03152C120.573 3.03465 121.804 3.03625 123.034 3.03376C124.366 3.03113 125.698 3.03582 127.029 3.04129C127.421 3.03938 127.813 3.03748 128.216 3.03552C128.749 3.03953 128.749 3.03953 129.292 3.04362C129.6 3.04394 129.907 3.04427 130.224 3.0446C130.992 3.16395 130.992 3.16395 131.555 3.57934C132.203 4.47359 132.239 5.24117 132.258 6.32801C131.871 7.17834 131.871 7.17834 130.992 7.91004C129.693 8.1549 128.402 8.12121 127.083 8.10804C126.678 8.11024 126.273 8.11244 125.855 8.1147C124.729 8.1206 123.604 8.11666 122.478 8.11114C121.265 8.10691 120.051 8.1118 118.837 8.11562C116.734 8.12101 114.63 8.12069 112.527 8.11657C109.483 8.11067 106.439 8.11408 103.395 8.11988C98.4537 8.12911 93.5123 8.13175 88.5708 8.12981C83.7758 8.12796 78.9808 8.12762 74.1858 8.13043C73.8906 8.1306 73.5954 8.13077 73.2913 8.13095C70.0684 8.1329 66.8455 8.13567 63.6227 8.13961C63.3394 8.13995 63.056 8.1403 62.7641 8.14065C61.6315 8.14205 60.4988 8.14347 59.3661 8.145C56.0501 8.14946 52.7342 8.15137 49.4183 8.14862C47.3377 8.14698 45.2571 8.14742 43.1765 8.14948C41.976 8.15057 40.7755 8.15059 39.575 8.14782C38.2734 8.14484 36.9718 8.14669 35.6702 8.14899C35.1014 8.14645 35.1014 8.14645 34.521 8.14386C32.7088 8.15105 31.1195 8.18181 29.4258 8.85926C28.2045 10.1448 27.8056 10.9568 27.7937 12.6998C27.7906 13.0441 27.7875 13.3884 27.7843 13.7431C27.7825 14.1225 27.7807 14.5019 27.7788 14.8928C27.7757 15.291 27.7725 15.6892 27.7693 16.0994C27.7607 17.193 27.7541 18.2867 27.7478 19.3803C27.7409 20.5226 27.7322 21.6648 27.7237 22.8071C27.7079 24.9709 27.6937 27.1348 27.6801 29.2986C27.6644 31.7617 27.6471 34.2248 27.6295 36.6879C27.5935 41.7555 27.5597 46.823 27.5274 51.8905C27.8696 51.8892 27.8696 51.8892 28.2188 51.8879C33.7724 51.8669 39.3259 51.8512 44.8795 51.8413C47.5652 51.8364 50.2509 51.8298 52.9366 51.8189C55.2776 51.8094 57.6186 51.8033 59.9596 51.8012C61.199 51.8 62.4383 51.7971 63.6777 51.7902C64.8448 51.7837 66.0119 51.7817 67.179 51.7831C67.8104 51.7828 68.4418 51.7777 69.0732 51.7724C69.4512 51.7737 69.8292 51.775 70.2187 51.7764C70.7095 51.7751 70.7095 51.7751 71.2103 51.7737C72.7202 51.9633 73.9877 52.5801 74.929 53.789C78.4144 58.569 75.9375 65.5919 75.9375 71.5077C102.772 71.5077 129.606 71.5077 157.254 71.5077C157.215 61.7907 157.176 52.0736 157.135 42.0621C157.124 38.9933 157.114 35.9245 157.103 32.7627C157.09 30.0132 157.09 30.0132 157.077 27.2637C157.071 26.0385 157.066 24.8133 157.063 23.5881C157.059 22.025 157.052 20.4619 157.043 18.8988C157.04 18.3253 157.038 17.7518 157.037 17.1784C157.036 16.403 157.031 15.6277 157.026 14.8523C157.026 14.6286 157.027 14.4049 157.027 14.1744C157.007 12.3805 156.55 10.8621 155.988 9.17567C153.256 7.65343 149.592 8.07913 146.56 8.06469C145.841 8.05974 145.121 8.04932 144.401 8.03858C144.07 8.04002 144.07 8.04002 143.733 8.04148C142.836 8.02748 142.215 8.01259 141.464 7.49414C140.873 6.5852 140.819 5.81706 140.801 4.74598C141.25 3.89641 141.25 3.89641 142.066 3.16395C143.039 2.92739 143.989 2.9422 144.986 2.95384C145.271 2.95232 145.557 2.95081 145.851 2.94925C146.456 2.94817 147.061 2.95109 147.666 2.9577C148.583 2.96611 149.498 2.95781 150.415 2.94766C153.983 2.94115 156.568 3.14116 159.409 5.47767C160.819 7.20962 162.036 8.88113 162.043 11.1765C162.045 11.4575 162.047 11.7385 162.048 12.028C162.048 12.4915 162.048 12.4915 162.049 12.9644C162.05 13.2925 162.051 13.6205 162.053 13.9585C162.057 15.0632 162.059 16.1679 162.061 17.2725C162.064 18.0624 162.066 18.8524 162.069 19.6423C162.076 22.0169 162.081 24.3915 162.085 26.7661C162.087 27.437 162.088 28.108 162.089 28.7789C162.097 32.9466 162.104 37.1143 162.108 41.282C162.109 42.2474 162.11 43.2127 162.111 44.178C162.111 44.418 162.111 44.6579 162.111 44.9051C162.115 48.7894 162.126 52.6736 162.139 56.5579C162.153 60.5474 162.16 64.5369 162.162 68.5264C162.163 70.7658 162.167 73.005 162.177 75.2443C162.187 77.3518 162.188 79.4592 162.185 81.5667C162.185 82.3394 162.187 83.1121 162.193 83.8848C162.2 84.9416 162.197 85.998 162.192 87.0549C162.197 87.359 162.201 87.6631 162.206 87.9763C162.177 90.4291 161.468 92.4725 159.823 94.3264C157.058 97.0141 153.945 97.3216 150.239 97.2803C149.796 97.2799 149.353 97.2802 148.91 97.2809C147.716 97.2812 146.523 97.2738 145.329 97.2649C144.078 97.257 142.828 97.2563 141.577 97.2548C139.213 97.2509 136.848 97.2405 134.484 97.2278C131.79 97.2136 129.097 97.2067 126.403 97.2003C120.867 97.1871 115.33 97.1639 109.793 97.1366C110.837 101.626 111.881 106.116 112.957 110.742C116.322 110.783 116.322 110.783 119.687 110.808C120.111 110.816 120.536 110.825 120.96 110.835C121.286 110.833 121.286 110.833 121.619 110.831C122.839 110.867 123.365 111.032 124.33 111.804C124.98 112.641 124.98 112.641 125.178 113.59C124.906 114.894 124.446 115.304 123.398 116.121C122.465 116.342 121.561 116.321 120.605 116.301C120.188 116.301 120.188 116.301 119.762 116.301C118.846 116.3 117.931 116.288 117.015 116.275C116.379 116.273 115.742 116.27 115.106 116.269C113.434 116.263 111.762 116.247 110.089 116.23C108.382 116.213 106.675 116.206 104.967 116.198C101.619 116.181 98.2703 116.154 94.9219 116.121C94.9228 116.308 94.9236 116.495 94.9245 116.687C94.9455 121.24 94.9612 125.793 94.9711 130.346C94.976 132.548 94.9826 134.75 94.9935 136.952C95.004 139.077 95.0095 141.203 95.0119 143.328C95.0137 144.138 95.0171 144.949 95.0223 145.759C95.0292 146.895 95.0301 148.031 95.0296 149.168C95.0348 149.669 95.0348 149.669 95.04 150.18C95.0295 152.687 94.6638 154.789 92.9246 156.72C92.7496 156.921 92.5746 157.122 92.3943 157.329C90.6712 158.838 89.0802 158.975 86.8957 158.964C86.457 158.967 86.457 158.967 86.0094 158.97C85.0457 158.976 84.0822 158.975 83.1185 158.973C82.4462 158.974 81.774 158.976 81.1017 158.978C79.6937 158.981 78.2857 158.98 76.8776 158.977C75.0767 158.973 73.276 158.98 71.4752 158.989C70.087 158.995 68.6988 158.995 67.3107 158.993C66.6469 158.993 65.9831 158.995 65.3193 158.999C64.3894 159.003 63.4599 159 62.53 158.995C62.258 158.998 61.9861 159.001 61.7059 159.004C59.5858 158.978 57.9309 158.414 56.3129 157.018C56.1718 156.841 56.0307 156.665 55.8853 156.483C55.7393 156.307 55.5932 156.131 55.4428 155.95C54.6402 154.72 54.3422 153.626 54.3601 152.165C54.3632 151.723 54.3632 151.723 54.3663 151.272C54.3742 150.817 54.3742 150.817 54.3823 150.352C54.3852 150.042 54.3881 149.733 54.391 149.413C54.3984 148.652 54.4088 147.89 54.4219 147.129C54.1595 147.13 53.8971 147.131 53.6267 147.132C47.2414 147.16 40.8561 147.181 34.4707 147.194C31.3828 147.201 28.2949 147.21 25.207 147.224C22.5156 147.237 19.8242 147.245 17.1327 147.248C15.7076 147.25 14.2826 147.253 12.8575 147.263C11.5159 147.271 10.1744 147.274 8.83272 147.272C8.34063 147.272 7.84855 147.275 7.35648 147.28C6.68362 147.286 6.0112 147.284 5.33833 147.281C4.96208 147.282 4.58584 147.283 4.1982 147.285C2.54432 147.035 1.63838 146.267 0.524228 145.059C-0.227959 143.489 -0.175017 142.095 -0.160691 140.374C-0.162665 140.01 -0.164638 139.647 -0.166673 139.273C-0.170842 138.267 -0.169349 137.261 -0.165425 136.256C-0.162559 135.17 -0.166983 134.084 -0.170463 132.998C-0.176089 130.872 -0.174875 128.746 -0.171206 126.621C-0.168347 124.893 -0.16796 123.165 -0.169338 121.437C-0.169532 121.191 -0.169725 120.945 -0.169924 120.692C-0.170329 120.192 -0.17074 119.692 -0.171155 119.193C-0.174764 114.508 -0.170616 109.823 -0.163815 105.138C-0.15816 101.119 -0.159143 97.0995 -0.164978 93.08C-0.171752 88.4119 -0.174416 83.7439 -0.17053 79.0758C-0.170127 78.5779 -0.16973 78.0801 -0.169338 77.5823C-0.169045 77.2149 -0.169045 77.2149 -0.168746 76.8401C-0.167654 75.1144 -0.169497 73.3888 -0.172476 71.6631C-0.176026 69.5599 -0.175064 67.4568 -0.168324 65.3537C-0.164998 64.2807 -0.163693 63.2078 -0.16788 62.1348C-0.171329 60.9716 -0.167011 59.8087 -0.160691 58.6455C-0.164926 58.1368 -0.164926 58.1368 -0.169246 57.6178C-0.149105 55.7119 -0.00234929 54.6096 1.26565 53.1561C2.56465 52.0146 3.63361 51.851 5.33096 51.8546C5.90097 51.8546 5.90097 51.8546 6.4825 51.8547C7.09804 51.8571 7.09804 51.8571 7.72602 51.8596C8.1503 51.8602 8.57458 51.8607 8.99885 51.861C10.1146 51.8622 11.2304 51.8653 12.3461 51.8688C13.485 51.872 14.6239 51.8735 15.7629 51.8751C17.9969 51.8785 20.2309 51.8839 22.4649 51.8905C22.4637 51.6782 22.4625 51.4659 22.4613 51.2471C22.4333 46.0707 22.4124 40.8943 22.3993 35.7178C22.3928 33.2144 22.3839 30.7111 22.3694 28.2078C22.3567 26.0248 22.3486 23.8419 22.3458 21.6589C22.3441 20.504 22.3403 19.3492 22.331 18.1942C22.3208 16.9021 22.3206 15.6102 22.3212 14.318C22.3166 13.9389 22.3121 13.5597 22.3074 13.1691C22.3204 10.5186 22.761 8.3351 24.3077 6.14262C24.5995 5.86241 24.5995 5.86241 24.8972 5.57655C25.0877 5.38485 25.2782 5.19315 25.4744 4.99565C27.9822 3.19255 30.2793 2.98157 33.3133 3.00537ZM5.06252 56.953C4.87217 60.9504 4.69909 64.9037 4.70517 68.8979C4.70474 69.3888 4.70418 69.8796 4.70349 70.3705C4.70207 71.687 4.70261 73.0036 4.70362 74.3201C4.70443 75.7325 4.70367 77.1448 4.70318 78.5572C4.7026 80.9462 4.70335 83.3353 4.70487 85.7243C4.70637 88.1191 4.70642 90.5138 4.70487 92.9086C4.6945 109.297 4.80533 125.68 5.06252 142.066C7.6521 142.398 10.2191 142.426 12.8264 142.419C13.282 142.419 13.7375 142.419 14.1931 142.419C15.4206 142.419 16.6481 142.417 17.8756 142.415C19.1618 142.413 20.4481 142.413 21.7344 142.412C24.1659 142.411 26.5975 142.409 29.029 142.406C31.7991 142.402 34.5691 142.4 37.3391 142.399C43.0333 142.395 48.7276 142.39 54.4219 142.383C54.4219 138.937 54.4219 135.491 54.4219 131.941C52.4021 131.937 52.4021 131.937 50.3416 131.932C45.9012 131.922 41.4609 131.904 37.0205 131.883C34.3274 131.871 31.6343 131.86 28.9411 131.856C26.5941 131.851 24.2473 131.843 21.9004 131.829C20.6573 131.822 19.4143 131.817 18.1712 131.817C17.0017 131.818 15.8324 131.812 14.6629 131.802C14.0279 131.798 13.3929 131.8 12.7579 131.802C12.3812 131.798 12.0046 131.794 11.6165 131.789C11.2883 131.788 10.9602 131.787 10.6222 131.786C9.80862 131.625 9.80861 131.625 9.22855 131.029C8.77891 130.213 8.73907 129.679 8.73657 128.749C8.73358 128.429 8.73059 128.11 8.72751 127.78C8.72943 127.436 8.73135 127.093 8.73333 126.739C8.73197 126.208 8.73197 126.208 8.73058 125.666C8.72993 124.918 8.73168 124.17 8.73565 123.422C8.74073 122.274 8.73569 121.128 8.72962 119.98C8.73025 119.254 8.73146 118.527 8.73333 117.801C8.73045 117.285 8.73045 117.285 8.72751 116.758C8.7305 116.439 8.73349 116.12 8.73657 115.792C8.73733 115.511 8.73808 115.23 8.73886 114.941C8.88376 114.077 9.11986 113.797 9.80862 113.273C10.4217 113.147 10.4217 113.147 11.0742 113.155C11.2896 113.152 11.5049 113.15 11.7268 113.147C12.3399 113.273 12.3399 113.273 13.2891 114.223C13.3935 118.399 13.4979 122.576 13.6055 126.879C27.0749 126.879 40.5443 126.879 54.4219 126.879C54.4633 115.018 54.4633 115.018 54.4876 103.157C54.5006 100.859 54.5006 100.859 54.5086 99.7815C54.5128 99.032 54.5138 98.2825 54.5124 97.533C54.5108 96.395 54.5192 95.2575 54.5297 94.1196C54.5269 93.7879 54.5242 93.4561 54.5214 93.1143C54.5628 90.4687 55.3753 88.9981 57.1311 87.0709C58.2188 86.3788 58.2188 86.3788 62.0156 85.4296C62.0156 78.8515 62.0156 72.2734 62.0156 65.496C46.0403 65.496 30.0649 65.496 13.6055 65.496C13.5265 77.8447 13.5265 77.8447 13.4542 90.1934C13.437 92.5791 13.437 92.5791 13.4282 93.6952C13.4226 94.4764 13.4182 95.2576 13.4148 96.0389C13.4094 97.2207 13.4001 98.4024 13.39 99.5842C13.3889 100.108 13.3889 100.108 13.3879 100.643C13.3844 100.96 13.3808 101.278 13.3772 101.605C13.3754 101.882 13.3737 102.158 13.3719 102.444C13.2891 103.148 13.2891 103.148 12.6563 104.098C11.5579 104.362 10.7716 104.527 9.68996 104.157C9.1758 103.781 9.1758 103.781 8.8594 103.148C8.82793 102.605 8.81666 102.061 8.81496 101.517C8.81225 100.999 8.81225 100.999 8.80949 100.47C8.80913 100.089 8.80878 99.7081 8.80841 99.3157C8.80684 98.9159 8.80527 98.5162 8.80365 98.1043C8.7995 97.006 8.79746 95.9078 8.79606 94.8095C8.79513 94.1238 8.79383 93.438 8.79242 92.7523C8.78809 90.6079 8.78503 88.4636 8.78381 86.3192C8.78239 83.8416 8.77683 81.3641 8.76767 78.8865C8.76084 76.9727 8.75764 75.059 8.75722 73.1452C8.75689 72.0015 8.75501 70.8578 8.74936 69.7142C8.7432 68.4391 8.74456 67.1642 8.74662 65.8891C8.7437 65.5089 8.74078 65.1287 8.73778 64.7369C8.73954 64.3904 8.7413 64.044 8.74312 63.687C8.74266 63.3853 8.74219 63.0837 8.74172 62.7729C8.88084 61.8775 9.10026 61.6112 9.80862 61.0663C10.7353 60.603 11.552 60.709 12.5871 60.7076C12.9218 60.7065 12.9218 60.7065 13.2634 60.7054C14.0149 60.7034 14.7664 60.7037 15.518 60.7039C16.0553 60.703 16.5926 60.7019 17.13 60.7007C18.5924 60.6979 20.0548 60.6972 21.5172 60.697C22.7367 60.6967 23.9563 60.6955 25.1759 60.6944C28.0527 60.6918 30.9295 60.691 33.8064 60.6913C36.7766 60.6914 39.7468 60.6881 42.717 60.6831C45.2647 60.679 47.8123 60.6773 50.36 60.6775C51.8826 60.6776 53.4053 60.6767 54.9279 60.6733C56.3599 60.6703 57.7919 60.6702 59.2239 60.6725C59.7499 60.6729 60.2759 60.6721 60.802 60.6702C61.5192 60.6678 62.2364 60.6692 62.9537 60.6717C63.3554 60.6715 63.757 60.6713 64.1709 60.6711C65.1263 60.7457 65.6616 60.8468 66.4453 61.3827C66.9163 62.3246 66.8142 63.1858 66.8267 64.2367C66.8298 64.4652 66.833 64.6936 66.8362 64.929C66.8462 65.6857 66.854 66.4424 66.8618 67.1991C66.8684 67.7232 66.875 68.2472 66.8818 68.7713C66.8993 70.1518 66.9149 71.5323 66.9301 72.9128C66.946 74.3211 66.9636 75.7293 66.9811 77.1375C67.0152 79.9015 67.0473 82.6655 67.0781 85.4296C68.3311 85.4296 69.5841 85.4296 70.875 85.4296C70.875 76.0323 70.875 66.635 70.875 56.953C49.1569 56.953 27.4388 56.953 5.06252 56.953ZM75.9375 76.5702C75.9375 79.4938 75.9375 82.4174 75.9375 85.4296C76.8638 85.4377 77.79 85.4459 78.7444 85.4543C79.6492 85.4665 80.554 85.4808 81.4588 85.4953C82.0838 85.5041 82.7089 85.5109 83.3341 85.5153C84.2367 85.5222 85.139 85.5369 86.0415 85.5532C86.4555 85.5538 86.4555 85.5538 86.8778 85.5544C89.2532 85.6101 91.206 86.2013 92.9641 87.8422C93.5915 88.6849 93.9525 89.5827 94.3323 90.5588C94.4436 90.8428 94.5548 91.1269 94.6694 91.4195C94.7527 91.6355 94.836 91.8515 94.9219 92.0741C102.604 92.1037 110.285 92.126 117.967 92.1397C121.534 92.1462 125.101 92.1551 128.667 92.1696C131.776 92.1822 134.884 92.1904 137.993 92.1932C139.639 92.1948 141.285 92.1987 142.931 92.2079C144.481 92.2165 146.03 92.2192 147.58 92.2173C148.148 92.2176 148.717 92.2201 149.285 92.225C150.062 92.2313 150.839 92.2298 151.615 92.2263C151.84 92.23 152.065 92.2337 152.296 92.2375C153.878 92.2185 154.762 91.7857 155.988 90.8085C159.035 87.5516 157.254 78.4811 157.254 76.5702C130.42 76.5702 103.585 76.5702 75.9375 76.5702ZM60.0522 91.0019C59.2958 92.0088 59.3284 92.6267 59.3322 93.8799C59.3311 94.0929 59.33 94.3058 59.3289 94.5253C59.3268 95.2386 59.3338 95.9515 59.3407 96.6648C59.3411 97.1762 59.3409 97.6876 59.3402 98.199C59.3398 99.5875 59.3472 100.976 59.3561 102.364C59.364 103.815 59.3647 105.266 59.3662 106.717C59.3702 109.465 59.3805 112.212 59.3932 114.96C59.41 118.673 59.4169 122.386 59.4243 126.099C59.4362 131.949 59.4614 137.798 59.4844 143.648C69.5081 143.648 79.5319 143.648 89.8594 143.648C89.887 134.577 89.887 134.577 89.9057 125.505C89.9114 121.807 89.918 118.108 89.931 114.41C89.9405 111.716 89.9466 109.023 89.9487 106.329C89.9499 104.903 89.9529 103.477 89.9598 102.051C89.9662 100.708 89.9682 99.3658 89.9668 98.0234C89.967 97.5306 89.9689 97.0379 89.9725 96.5452C89.9773 95.8723 89.9761 95.1996 89.9735 94.5267C89.9744 94.1502 89.9753 93.7736 89.9762 93.3857C89.847 92.2854 89.5701 91.6899 88.9102 90.8085C87.901 90.3039 86.8073 90.4398 85.6987 90.4361C85.2989 90.433 85.2989 90.433 84.891 90.4298C84.0068 90.4235 83.1226 90.4198 82.2384 90.4167C81.9369 90.4154 81.6354 90.4141 81.3247 90.4128C79.7292 90.4062 78.1337 90.4017 76.5382 90.3987C74.8882 90.3952 73.2384 90.3843 71.5885 90.3717C70.3215 90.3635 69.0544 90.3608 67.7874 90.3597C67.179 90.3581 66.5707 90.3545 65.9624 90.3486C65.1117 90.3409 64.2613 90.3412 63.4106 90.3434C63.1587 90.3393 62.9069 90.3353 62.6474 90.3311C61.5995 90.341 60.9112 90.3743 60.0522 91.0019ZM94.9219 97.1366C94.9219 101.731 94.9219 106.325 94.9219 111.058C99.0984 111.058 103.275 111.058 107.578 111.058C107.06 107.926 107.06 107.926 106.41 104.837C106.363 104.633 106.315 104.429 106.266 104.219C106.168 103.797 106.068 103.376 105.969 102.954C105.816 102.308 105.665 101.661 105.515 101.014C105.112 99.0242 105.112 99.0242 104.414 97.1366C101.282 97.1366 98.1492 97.1366 94.9219 97.1366ZM59.4844 148.711C59.4844 150.068 59.4844 151.426 59.4844 152.824C60.9482 154.288 62.2029 154.138 64.1995 154.141C64.5756 154.143 64.5756 154.143 64.9592 154.145C65.7871 154.15 66.6149 154.152 67.4427 154.154C68.0189 154.156 68.595 154.158 69.1711 154.159C70.3783 154.163 71.5856 154.165 72.7928 154.166C74.3391 154.167 75.8854 154.175 77.4316 154.184C78.6214 154.19 79.8111 154.192 81.0008 154.192C81.5709 154.193 82.1409 154.196 82.711 154.2C83.5085 154.205 84.3058 154.205 85.1033 154.203C85.3383 154.205 85.5732 154.208 85.8152 154.211C87.2202 154.2 88.1143 154.013 89.2266 153.141C90.1812 151.899 90.1812 151.899 89.8594 148.711C79.8356 148.711 69.8119 148.711 59.4844 148.711Z" fill="white"/>
<path id="Vector_2" d="M37.771 134.394C38.0402 134.387 38.3094 134.381 38.5867 134.374C40.1269 134.364 41.1407 134.43 42.3985 135.422C42.9839 136.007 42.8071 136.822 42.8496 137.603C42.6545 138.568 42.1999 138.916 41.4492 139.535C40.6576 139.699 40.6576 139.699 39.7782 139.703C39.4597 139.705 39.1411 139.707 38.8129 139.708C38.3168 139.701 38.3168 139.701 37.8106 139.693C37.4798 139.698 37.149 139.703 36.8082 139.708C36.4897 139.707 36.1711 139.705 35.8429 139.703C35.5527 139.702 35.2625 139.7 34.9635 139.699C33.9281 139.485 33.5481 139.096 32.9063 138.27C32.7578 137.082 32.7381 136.359 33.3216 135.303C34.5291 134.14 36.2035 134.403 37.771 134.394Z" fill="white"/>
<path id="Vector_3" d="M74.4939 92.5686C74.7959 92.5622 75.098 92.5559 75.4091 92.5494C77.6091 92.5509 77.6091 92.5509 78.6677 93.2792C79.3087 94.3037 79.2704 95.0056 79.1016 96.1875C78.6665 96.8784 78.6665 96.8784 77.8359 97.4531C76.7262 97.6504 75.6383 97.644 74.5137 97.6311C74.0628 97.6424 74.0628 97.6424 73.6028 97.6539C71.4175 97.6493 71.4175 97.6493 70.3497 96.7226C69.7714 95.5608 69.8991 94.8913 70.2422 93.6562C71.3179 92.2209 72.8499 92.5564 74.4939 92.5686Z" fill="white"/>
</g>
<defs>
<clipPath id="clip0_2870_638">
<rect width="162" height="162" fill="white"/>
</clipPath>
</defs>
</svg>
