<svg width="4629" height="1418" viewBox="0 0 4629 1418" fill="none" xmlns="http://www.w3.org/2000/svg">
<g clip-path="url(#clip0_17_3)">
<path d="M3145.57 864.562L3263.97 682.852H4479.61L4525.65 868.732" fill="white"/>
<path d="M3391.62 82.4674L3592.28 0L4460.79 598.316L4525.65 868.731" fill="white"/>
<path d="M3391.62 82.4675L3577.86 193.726L3604.43 404.983L3429.19 330.132" fill="white"/>
<path d="M3586.27 404.918C3586.27 404.918 3517.79 527.962 3518.58 547.364C3519.37 566.767 3599.5 645.557 3612.51 649.136C3625.51 652.714 3842.62 568.014 3859.27 558.625C3875.92 549.236 3923.74 505.835 3923.74 505.835L3914.84 501.535L3839.47 532.69L3600.39 374.78L3581.04 394.478L3586.27 404.918Z" fill="white"/>
<path d="M628.346 854.779L539.676 1304.34H401.546L441.383 1099.46L314.813 1263.87H247.982L178.589 1102.02L138.129 1304.34H0L89.9514 854.779H213.302L311.037 1093.74L499.281 854.844L628.346 854.779Z" fill="white"/>
<path d="M1791.54 1294.4C1763.85 1282.33 1740.38 1262.31 1724.09 1236.88C1708.43 1212.06 1700.61 1182.95 1700.64 1149.55C1700.87 1133.58 1702.59 1117.67 1705.76 1102.02L1755.22 854.779H1906.85L1858.04 1099.46C1855.59 1110.23 1854.29 1121.24 1854.17 1132.29C1854.17 1152.4 1859.31 1167.38 1869.6 1177.23C1879.89 1187.08 1894.88 1192 1914.56 1192C1936.83 1192 1954.18 1184.93 1966.62 1170.79C1979.05 1156.66 1988.68 1132.9 1995.52 1099.52L2044.35 854.844H2193.42L2142.64 1108.52C2128.94 1176.61 2101.57 1228.04 2060.54 1262.82C2019.51 1297.59 1964.69 1314.94 1896.07 1314.85C1855.72 1314.7 1820.88 1307.88 1791.54 1294.4Z" fill="white"/>
<path d="M2262.78 854.779H2414.4L2324.45 1304.34H2172.82L2262.78 854.779Z" fill="white"/>
<path d="M2930.96 854.779L2841.01 1304.34H2716.38L2587.24 1094.96L2545.47 1304.34H2397.69L2487.64 854.779H2612.43L2741.6 1064.13L2783.34 854.779H2930.96Z" fill="white"/>
<path d="M3878.91 1106.88C3857.74 1136.64 3827.87 1158.8 3789.29 1173.36L3864.46 1304.38H3707.06L3643.44 1191.35H3606.2L3583.7 1304.38H3432.08L3522.03 854.812H3723.74C3782.85 854.812 3828.83 867.757 3861.67 893.649C3894.51 919.54 3910.93 955.828 3910.93 1002.51C3910.8 1042.32 3900.13 1077.11 3878.91 1106.88ZM3700.62 971.684H3649.88L3628.66 1077H3691.06C3712.04 1077 3728.31 1071.76 3739.9 1061.28C3751.48 1050.79 3757.26 1036.13 3757.24 1017.28C3757.19 986.862 3738.32 971.652 3700.62 971.652V971.684Z" fill="white"/>
<path d="M4000.65 854.779H4152.28L4062.33 1304.34H3910.73L4000.65 854.779Z" fill="white"/>
<path d="M1106.35 1304.31L999.679 854.746H850.647L564.076 1304.31H724.078L769.037 1225.98H769.201L831.566 1116.79H831.369L854.916 1075.88L857.609 1071.16V1071.19L897.544 1001.82L919.35 1116.53L935.705 1198.34H869.826L815.999 1304.31H1060.01H1106.35Z" fill="white"/>
<path d="M4629 1304.31L4522.37 854.746H4373.3L4086.76 1304.31H4246.76L4291.72 1225.98H4291.99L4354.32 1116.79H4354.02L4420.2 1001.82L4440.53 1108.81H4440.56L4458.49 1198.34H4392.61L4338.78 1304.31H4582.79H4629Z" fill="white"/>
<path d="M3407.68 1304.31L3301.01 854.746H3151.94L2865.44 1304.31H3025.41L3070.37 1225.98H3070.6L3132.93 1116.79H3132.7L3198.87 1001.82L3219.76 1111.77L3237.07 1198.34H3171.22L3117.4 1304.31H3361.4H3407.68Z" fill="white"/>
<path d="M1482.11 1304.57C1480.05 1303.2 1478.13 1301.62 1476.4 1299.85C1512.28 1289.06 1545.46 1270.77 1573.74 1246.2C1601.34 1222.07 1623.27 1192.14 1637.98 1158.55C1653.53 1122.92 1661.36 1084.39 1660.96 1045.52C1660.96 1006.12 1651.65 971.225 1633.02 940.825C1613.88 909.962 1586.21 885.308 1553.34 869.848C1518.86 852.951 1478.71 844.503 1432.88 844.503C1378.48 844.503 1329.75 855.84 1286.71 878.515C1244.77 900.178 1209.81 933.25 1185.85 973.917C1161.66 1014.8 1149.55 1061.36 1149.53 1113.61C1149.53 1161.12 1162.92 1201.9 1189.7 1235.93C1216.47 1269.96 1253.63 1293.19 1301.16 1305.63C1321.98 1343.84 1348.7 1372.09 1381.32 1390.39C1413.95 1408.69 1452.71 1417.9 1497.61 1418.03C1499.12 1418.03 1500.54 1418.03 1502.05 1418.03C1503.56 1418.03 1504.94 1418.03 1506.38 1418.03C1592.72 1418.03 1664.02 1368.79 1675.74 1304.57H1482.11ZM1325.82 1168.17C1310.17 1152.34 1302.34 1131.15 1302.34 1104.58C1302.11 1080.93 1306.93 1057.5 1316.5 1035.87C1325.24 1015.75 1339.35 998.415 1357.28 985.768C1375.71 973.159 1397.62 966.648 1419.94 967.154C1447.33 967.154 1468.86 975.077 1484.51 990.923C1500.16 1006.77 1507.98 1027.97 1507.96 1054.51C1508.2 1078.16 1503.37 1101.59 1493.8 1123.22C1485.08 1143.36 1470.96 1160.69 1453.02 1173.32C1434.6 1185.93 1412.7 1192.44 1390.39 1191.94C1362.93 1191.94 1341.41 1184.01 1325.82 1168.17Z" fill="white"/>
<path d="M3371.82 266.443L3149.91 327.966L2957.07 703.074C2954.4 708.258 2952.78 713.917 2952.3 719.727C2951.82 725.538 2952.49 731.386 2954.27 736.937C2956.05 742.489 2958.91 747.635 2962.68 752.083C2966.45 756.53 2971.06 760.191 2976.25 762.857L3182.55 868.83C3188.95 872.122 3195.94 874.122 3203.11 874.714C3210.28 875.306 3217.5 874.48 3224.36 872.281C3231.21 870.083 3237.56 866.556 3243.05 861.903C3248.54 857.249 3253.06 851.56 3256.35 845.16L3444.33 479.506L3371.82 266.443ZM3335.99 386.763C3332.72 391.688 3328.06 395.534 3322.61 397.814C3317.16 400.094 3311.15 400.706 3305.35 399.573C3299.54 398.439 3294.21 395.611 3290.02 391.446C3285.82 387.281 3282.96 381.966 3281.79 376.174C3280.61 370.382 3281.19 364.372 3283.43 358.906C3285.68 353.439 3289.5 348.761 3294.4 345.463C3299.31 342.165 3305.08 340.395 3310.99 340.378C3316.9 340.361 3322.69 342.096 3327.61 345.365C3330.89 347.546 3333.7 350.351 3335.89 353.619C3338.08 356.888 3339.6 360.556 3340.37 364.414C3341.14 368.271 3341.14 372.242 3340.37 376.1C3339.6 379.958 3338.08 383.626 3335.89 386.894L3335.99 386.763Z" fill="#FFC200"/>
<path d="M3318.35 350.388L3353.13 258.827" stroke="#FFC200" stroke-width="4.97" stroke-miterlimit="10" stroke-linecap="round"/>
<path d="M3318.35 350.388L3380.62 282.431" stroke="#FFC200" stroke-width="4.97" stroke-miterlimit="10" stroke-linecap="round"/>
<path d="M3469.52 145.828C3486.02 145.828 3499.4 132.453 3499.4 115.953C3499.4 99.454 3486.02 86.0786 3469.52 86.0786C3453.01 86.0786 3439.63 99.454 3439.63 115.953C3439.63 132.453 3453.01 145.828 3469.52 145.828Z" fill="white"/>
<path d="M3458.91 132.204L3363.14 278.656" stroke="#FFC200" stroke-width="4.97" stroke-miterlimit="10" stroke-linecap="round"/>
<path d="M3074.67 612.104L3120.94 592.833L3139.56 641.749L3278.78 579.242L3330.99 613.975L3138.18 696.771L3094.64 674.414L3074.67 612.104Z" fill="black"/>
<path d="M2763.07 348.254H2589.9L2257.03 870.537H2442.88L2495.09 779.501H2495.81L2568.23 652.649H2567.51L2644.39 519.099L2669.77 652.649H2669.74L2688.69 747.427H2612.33L2549.77 870.537H2886.95L2763.07 348.254Z" fill="white"/>
<path d="M590.71 617.488C605.121 637.901 612.582 662.405 611.991 687.382C612.437 719.988 601.471 751.725 580.989 777.105C560.278 803.018 531.487 823.077 494.618 837.281C457.748 851.485 415.865 858.587 368.968 858.587H90.8052L195.469 334.564H460.956C517.88 334.564 562.763 344.906 595.604 365.588C628.445 386.271 644.865 414.055 644.865 448.942C644.865 478.357 634.4 505.015 613.469 528.915C591.834 553.282 563.475 570.712 531.958 579.012C555.621 584.149 576.548 597.853 590.71 617.488ZM416.456 718.045C421.958 714.166 426.433 709.007 429.494 703.012C432.555 697.018 434.111 690.369 434.026 683.639C434.156 678.987 433.088 674.38 430.926 670.258C428.764 666.137 425.58 662.639 421.678 660.101C413.468 654.388 402.127 651.521 387.655 651.499H305.552L289.821 731.505H372.088C389.975 731.505 404.765 727.018 416.456 718.045ZM445.258 523.695C449.657 519.594 453.132 514.604 455.454 509.057C457.775 503.51 458.89 497.532 458.723 491.522C458.958 487.447 458.311 483.37 456.826 479.568C455.341 475.767 453.053 472.33 450.118 469.493C444.371 464.24 436.259 461.647 425.816 461.647H342.794L327.851 536.4H410.84C423.54 536.868 435.911 532.301 445.258 523.695Z" fill="white"/>
<path d="M1193.8 636.562C1185.85 680.536 1167.66 722.023 1140.7 757.669C1114.35 791.989 1080.1 819.436 1040.86 837.675C1000.73 856.606 955.738 866.072 905.885 866.072C861.528 866.072 822.765 858.729 789.595 844.043C756.426 829.358 730.755 808.303 712.583 780.88C694.477 753.456 685.424 721.294 685.424 684.394C685.751 668.327 687.499 652.321 690.646 636.562L751.237 334.531H924.703L864.144 636.562C862.657 642.933 861.908 649.454 861.911 655.997C861.911 675.935 868.14 691.879 880.598 703.829C886.861 709.799 894.251 714.461 902.337 717.545C910.423 720.628 919.042 722.07 927.692 721.787C949.682 721.783 970.835 713.36 986.805 698.248C1004.53 681.974 1016.35 660.276 1020.4 636.562L1080.96 334.531H1254.46L1193.8 636.562Z" fill="white"/>
<path d="M1651.44 339.029C1687.49 348.992 1721.82 364.367 1753.25 384.629L1676.2 516.965C1647.71 499.517 1617.53 484.988 1586.12 473.597C1552.47 461.144 1524.67 454.917 1502.74 454.917C1493.99 454.481 1485.29 456.554 1477.68 460.892C1474.59 462.887 1472.1 465.672 1470.45 468.957C1468.81 472.241 1468.07 475.907 1468.32 479.572C1468.32 490.515 1474.68 499.269 1487.4 505.835C1500.12 512.401 1520.19 519.383 1547.6 526.78C1576.27 534.878 1604.38 544.869 1631.74 556.688C1654.42 567.036 1674.28 582.674 1689.67 602.288C1706.11 622.708 1714.34 649.617 1714.36 683.016C1714.36 723.877 1703.52 758.381 1681.82 786.527C1659.45 815.165 1629.36 836.808 1595.09 848.902C1556.86 862.721 1516.46 869.56 1475.81 869.093C1428.9 868.993 1382.32 861.287 1337.88 846.276C1292.27 831.065 1253.51 810.273 1221.59 783.9L1299.35 653.075C1323.3 675.99 1354.34 695.546 1392.46 711.741C1430.57 727.937 1463.1 735.991 1490.03 735.904C1503.95 735.904 1514.9 733.288 1522.87 728.057C1526.77 725.542 1529.93 722.039 1532.04 717.904C1534.14 713.769 1535.12 709.151 1534.86 704.519C1534.86 693.05 1528.37 684.208 1515.41 677.993C1502.45 671.777 1481.76 664.927 1453.34 657.441C1424.95 650.143 1397.09 640.896 1369.96 629.766C1347.49 620.104 1327.72 605.091 1312.39 586.038C1296.17 566.34 1288.07 540.547 1288.09 508.659C1288.09 471.299 1298.3 438.47 1318.73 410.171C1339.16 381.872 1367.69 360.062 1404.35 344.741C1441 329.53 1483.25 321.936 1531.11 321.958C1571.83 321.908 1612.35 327.657 1651.44 339.029Z" fill="white"/>
<path d="M2202.68 349.896C2239.01 366.04 2271.23 390.179 2296.93 420.512L2183.99 539.387C2171.15 518.597 2153.92 500.861 2133.51 487.418C2113.31 474.286 2092.99 467.72 2072.56 467.72C2050.8 467.525 2029.47 473.761 2011.25 485.645C1992.43 498.062 1977.22 515.217 1967.14 535.382C1956.02 557.242 1950.39 581.477 1950.72 605.998C1950.72 638.827 1959.7 665.868 1977.65 687.119C1986.05 697.365 1996.68 705.554 2008.73 711.062C2020.78 716.57 2033.93 719.25 2047.17 718.898C2066.11 718.898 2087.05 713.284 2110 702.057C2133.17 690.677 2154.38 675.671 2172.82 657.606L2261.79 764.4C2229.14 796.956 2190.73 823.181 2148.52 841.746C2105.37 860.962 2063.62 870.559 2023.27 870.537C1973.9 870.537 1930.11 859.824 1891.9 838.397C1854.51 817.736 1823.76 786.883 1803.23 749.43C1782.32 711.588 1771.86 668.735 1771.84 620.87C1771.19 567.392 1785.57 514.807 1813.35 469.099C1840.81 423.946 1879.94 387.022 1926.62 362.207C1975.34 336.083 2029.89 322.712 2085.17 323.337C2125.81 323.487 2165.92 332.553 2202.68 349.896Z" fill="white"/>
</g>
<defs>
<clipPath id="clip0_17_3">
<rect width="4629" height="1418" fill="white"/>
</clipPath>
</defs>
</svg>
